<?xml version="1.0" encoding="utf-8" standalone="no"?>
<!DOCTYPE svg PUBLIC "-//W3C//DTD SVG 1.1//EN"
  "http://www.w3.org/Graphics/SVG/1.1/DTD/svg11.dtd">
<svg xmlns:xlink="http://www.w3.org/1999/xlink" width="266.4pt" height="181.143125pt" viewBox="0 0 266.4 181.143125" xmlns="http://www.w3.org/2000/svg" version="1.1">
 <metadata>
  <rdf:RDF xmlns:dc="http://purl.org/dc/elements/1.1/" xmlns:cc="http://creativecommons.org/ns#" xmlns:rdf="http://www.w3.org/1999/02/22-rdf-syntax-ns#">
   <cc:Work>
    <dc:type rdf:resource="http://purl.org/dc/dcmitype/StillImage"/>
    <dc:date>2023-12-20T13:35:50.931691</dc:date>
    <dc:format>image/svg+xml</dc:format>
    <dc:creator>
     <cc:Agent>
      <dc:title>Matplotlib v3.5.1, https://matplotlib.org/</dc:title>
     </cc:Agent>
    </dc:creator>
   </cc:Work>
  </rdf:RDF>
 </metadata>
 <defs>
  <style type="text/css">*{stroke-linejoin: round; stroke-linecap: butt}</style>
 </defs>
 <g id="figure_1">
  <g id="patch_1">
   <path d="M 0 181.143125 
L 266.4 181.143125 
L 266.4 0 
L 0 0 
L 0 181.143125 
z
" style="fill: none"/>
  </g>
  <g id="axes_1">
   <g id="patch_2">
    <path d="M 7.2 126.09 
L 259.2 126.09 
L 259.2 18.09 
L 7.2 18.09 
L 7.2 126.09 
z
" style="fill: none"/>
   </g>
   <g id="matplotlib.axis_1">
    <g id="xtick_1">
     <g id="line2d_1">
      <defs>
       <path id="med72a27f1c" d="M 0 0 
L 0 6 
" style="stroke: #262626; stroke-width: 1.25"/>
      </defs>
      <g>
       <use xlink:href="#med72a27f1c" x="13.5" y="126.09" style="fill: #262626; stroke: #262626; stroke-width: 1.25"/>
      </g>
     </g>
     <g id="text_1">
      <text style="fill: #262626; font: 10px 'sans-serif'" transform="translate(16.085156 173.380625)rotate(-90)">L1ME3F</text>
     </g>
    </g>
    <g id="xtick_2">
     <g id="line2d_2">
      <g>
       <use xlink:href="#med72a27f1c" x="26.1" y="126.09" style="fill: #262626; stroke: #262626; stroke-width: 1.25"/>
      </g>
     </g>
     <g id="text_2">
      <text style="fill: #262626; font: 10px 'sans-serif'" transform="translate(28.685156 165.613438)rotate(-90)">L1PBa</text>
     </g>
    </g>
    <g id="xtick_3">
     <g id="line2d_3">
      <g>
       <use xlink:href="#med72a27f1c" x="38.7" y="126.09" style="fill: #262626; stroke: #262626; stroke-width: 1.25"/>
      </g>
     </g>
     <g id="text_3">
      <text style="fill: #262626; font: 10px 'sans-serif'" transform="translate(41.285156 164.875937)rotate(-90)">L1PA7</text>
     </g>
    </g>
    <g id="xtick_4">
     <g id="line2d_4">
      <g>
       <use xlink:href="#med72a27f1c" x="51.3" y="126.09" style="fill: #262626; stroke: #262626; stroke-width: 1.25"/>
      </g>
     </g>
     <g id="text_4">
      <text style="fill: #262626; font: 10px 'sans-serif'" transform="translate(53.885156 167.272812)rotate(-90)">L1MA1</text>
     </g>
    </g>
    <g id="xtick_5">
     <g id="line2d_5">
      <g>
       <use xlink:href="#med72a27f1c" x="63.9" y="126.09" style="fill: #262626; stroke: #262626; stroke-width: 1.25"/>
      </g>
     </g>
     <g id="text_5">
      <text style="fill: #262626; font: 10px 'sans-serif'" transform="translate(66.485156 165.613438)rotate(-90)">L1PB1</text>
     </g>
    </g>
    <g id="xtick_6">
     <g id="line2d_6">
      <g>
       <use xlink:href="#med72a27f1c" x="76.5" y="126.09" style="fill: #262626; stroke: #262626; stroke-width: 1.25"/>
      </g>
     </g>
     <g id="text_6">
      <text style="fill: #262626; font: 10px 'sans-serif'" transform="translate(79.085156 164.875937)rotate(-90)">L1PA5</text>
     </g>
    </g>
    <g id="xtick_7">
     <g id="line2d_7">
      <g>
       <use xlink:href="#med72a27f1c" x="89.1" y="126.09" style="fill: #262626; stroke: #262626; stroke-width: 1.25"/>
      </g>
     </g>
     <g id="text_7">
      <text style="fill: #262626; font: 10px 'sans-serif'" transform="translate(91.685156 164.875937)rotate(-90)">L1PA4</text>
     </g>
    </g>
    <g id="xtick_8">
     <g id="line2d_8">
      <g>
       <use xlink:href="#med72a27f1c" x="101.7" y="126.09" style="fill: #262626; stroke: #262626; stroke-width: 1.25"/>
      </g>
     </g>
     <g id="text_8">
      <text style="fill: #262626; font: 10px 'sans-serif'" transform="translate(104.285156 164.875937)rotate(-90)">L1PA6</text>
     </g>
    </g>
    <g id="xtick_9">
     <g id="line2d_9">
      <g>
       <use xlink:href="#med72a27f1c" x="114.3" y="126.09" style="fill: #262626; stroke: #262626; stroke-width: 1.25"/>
      </g>
     </g>
     <g id="text_9">
      <text style="fill: #262626; font: 10px 'sans-serif'" transform="translate(116.885156 167.272812)rotate(-90)">L1MA7</text>
     </g>
    </g>
    <g id="xtick_10">
     <g id="line2d_10">
      <g>
       <use xlink:href="#med72a27f1c" x="126.9" y="126.09" style="fill: #262626; stroke: #262626; stroke-width: 1.25"/>
      </g>
     </g>
     <g id="text_10">
      <text style="fill: #262626; font: 10px 'sans-serif'" transform="translate(129.485156 167.272812)rotate(-90)">L1ME1</text>
     </g>
    </g>
    <g id="xtick_11">
     <g id="line2d_11">
      <g>
       <use xlink:href="#med72a27f1c" x="139.5" y="126.09" style="fill: #262626; stroke: #262626; stroke-width: 1.25"/>
      </g>
     </g>
     <g id="text_11">
      <text style="fill: #262626; font: 10px 'sans-serif'" transform="translate(142.085156 167.272812)rotate(-90)">L1MB7</text>
     </g>
    </g>
    <g id="xtick_12">
     <g id="line2d_12">
      <g>
       <use xlink:href="#med72a27f1c" x="152.1" y="126.09" style="fill: #262626; stroke: #262626; stroke-width: 1.25"/>
      </g>
     </g>
     <g id="text_12">
      <text style="fill: #262626; font: 10px 'sans-serif'" transform="translate(154.685156 172.272812)rotate(-90)">L1ME2z</text>
     </g>
    </g>
    <g id="xtick_13">
     <g id="line2d_13">
      <g>
       <use xlink:href="#med72a27f1c" x="164.7" y="126.09" style="fill: #262626; stroke: #262626; stroke-width: 1.25"/>
      </g>
     </g>
     <g id="text_13">
      <text style="fill: #262626; font: 10px 'sans-serif'" transform="translate(167.285156 166.711875)rotate(-90)">L1MEc</text>
     </g>
    </g>
    <g id="xtick_14">
     <g id="line2d_14">
      <g>
       <use xlink:href="#med72a27f1c" x="177.3" y="126.09" style="fill: #262626; stroke: #262626; stroke-width: 1.25"/>
      </g>
     </g>
     <g id="text_14">
      <text style="fill: #262626; font: 10px 'sans-serif'" transform="translate(179.885156 170.436875)rotate(-90)">L1PA16</text>
     </g>
    </g>
    <g id="xtick_15">
     <g id="line2d_15">
      <g>
       <use xlink:href="#med72a27f1c" x="189.9" y="126.09" style="fill: #262626; stroke: #262626; stroke-width: 1.25"/>
      </g>
     </g>
     <g id="text_15">
      <text style="fill: #262626; font: 10px 'sans-serif'" transform="translate(192.485156 173.943125)rotate(-90)">L1ME3A</text>
     </g>
    </g>
    <g id="xtick_16">
     <g id="line2d_16">
      <g>
       <use xlink:href="#med72a27f1c" x="202.5" y="126.09" style="fill: #262626; stroke: #262626; stroke-width: 1.25"/>
      </g>
     </g>
     <g id="text_16">
      <text style="fill: #262626; font: 10px 'sans-serif'" transform="translate(205.085156 173.385312)rotate(-90)">L1MC5a</text>
     </g>
    </g>
    <g id="xtick_17">
     <g id="line2d_17">
      <g>
       <use xlink:href="#med72a27f1c" x="215.1" y="126.09" style="fill: #262626; stroke: #262626; stroke-width: 1.25"/>
      </g>
     </g>
     <g id="text_17">
      <text style="fill: #262626; font: 10px 'sans-serif'" transform="translate(217.685156 167.824375)rotate(-90)">L1MCb</text>
     </g>
    </g>
    <g id="xtick_18">
     <g id="line2d_18">
      <g>
       <use xlink:href="#med72a27f1c" x="227.7" y="126.09" style="fill: #262626; stroke: #262626; stroke-width: 1.25"/>
      </g>
     </g>
     <g id="text_18">
      <text style="fill: #262626; font: 10px 'sans-serif'" transform="translate(230.285156 173.943125)rotate(-90)">L1MA4A</text>
     </g>
    </g>
    <g id="xtick_19">
     <g id="line2d_19">
      <g>
       <use xlink:href="#med72a27f1c" x="240.3" y="126.09" style="fill: #262626; stroke: #262626; stroke-width: 1.25"/>
      </g>
     </g>
     <g id="text_19">
      <text style="fill: #262626; font: 10px 'sans-serif'" transform="translate(242.885156 167.272812)rotate(-90)">L1ME2</text>
     </g>
    </g>
    <g id="xtick_20">
     <g id="line2d_20">
      <g>
       <use xlink:href="#med72a27f1c" x="252.9" y="126.09" style="fill: #262626; stroke: #262626; stroke-width: 1.25"/>
      </g>
     </g>
     <g id="text_20">
      <text style="fill: #262626; font: 10px 'sans-serif'" transform="translate(255.485156 170.436875)rotate(-90)">L1PA13</text>
     </g>
    </g>
   </g>
   <g id="matplotlib.axis_2"/>
   <g id="QuadMesh_1">
    <path d="M 7.2 18.09 
L 19.8 18.09 
L 19.8 22.41 
L 7.2 22.41 
L 7.2 18.09 
" clip-path="url(#p48b722c375)" style="fill: #0d0887"/>
    <path d="M 19.8 18.09 
L 32.4 18.09 
L 32.4 22.41 
L 19.8 22.41 
L 19.8 18.09 
" clip-path="url(#p48b722c375)" style="fill: #0d0887"/>
    <path d="M 32.4 18.09 
L 45 18.09 
L 45 22.41 
L 32.4 22.41 
L 32.4 18.09 
" clip-path="url(#p48b722c375)" style="fill: #0d0887"/>
    <path d="M 45 18.09 
L 57.6 18.09 
L 57.6 22.41 
L 45 22.41 
L 45 18.09 
" clip-path="url(#p48b722c375)" style="fill: #0d0887"/>
    <path d="M 57.6 18.09 
L 70.2 18.09 
L 70.2 22.41 
L 57.6 22.41 
L 57.6 18.09 
" clip-path="url(#p48b722c375)" style="fill: #0d0887"/>
    <path d="M 70.2 18.09 
L 82.8 18.09 
L 82.8 22.41 
L 70.2 22.41 
L 70.2 18.09 
" clip-path="url(#p48b722c375)" style="fill: #0d0887"/>
    <path d="M 82.8 18.09 
L 95.4 18.09 
L 95.4 22.41 
L 82.8 22.41 
L 82.8 18.09 
" clip-path="url(#p48b722c375)" style="fill: #0d0887"/>
    <path d="M 95.4 18.09 
L 108 18.09 
L 108 22.41 
L 95.4 22.41 
L 95.4 18.09 
" clip-path="url(#p48b722c375)" style="fill: #0d0887"/>
    <path d="M 108 18.09 
L 120.6 18.09 
L 120.6 22.41 
L 108 22.41 
L 108 18.09 
" clip-path="url(#p48b722c375)" style="fill: #0d0887"/>
    <path d="M 120.6 18.09 
L 133.2 18.09 
L 133.2 22.41 
L 120.6 22.41 
L 120.6 18.09 
" clip-path="url(#p48b722c375)" style="fill: #0d0887"/>
    <path d="M 133.2 18.09 
L 145.8 18.09 
L 145.8 22.41 
L 133.2 22.41 
L 133.2 18.09 
" clip-path="url(#p48b722c375)" style="fill: #0d0887"/>
    <path d="M 145.8 18.09 
L 158.4 18.09 
L 158.4 22.41 
L 145.8 22.41 
L 145.8 18.09 
" clip-path="url(#p48b722c375)" style="fill: #0d0887"/>
    <path d="M 158.4 18.09 
L 171 18.09 
L 171 22.41 
L 158.4 22.41 
L 158.4 18.09 
" clip-path="url(#p48b722c375)" style="fill: #0d0887"/>
    <path d="M 171 18.09 
L 183.6 18.09 
L 183.6 22.41 
L 171 22.41 
L 171 18.09 
" clip-path="url(#p48b722c375)" style="fill: #330597"/>
    <path d="M 183.6 18.09 
L 196.2 18.09 
L 196.2 22.41 
L 183.6 22.41 
L 183.6 18.09 
" clip-path="url(#p48b722c375)" style="fill: #0d0887"/>
    <path d="M 196.2 18.09 
L 208.8 18.09 
L 208.8 22.41 
L 196.2 22.41 
L 196.2 18.09 
" clip-path="url(#p48b722c375)" style="fill: #0d0887"/>
    <path d="M 208.8 18.09 
L 221.4 18.09 
L 221.4 22.41 
L 208.8 22.41 
L 208.8 18.09 
" clip-path="url(#p48b722c375)" style="fill: #b6308b"/>
    <path d="M 221.4 18.09 
L 234 18.09 
L 234 22.41 
L 221.4 22.41 
L 221.4 18.09 
" clip-path="url(#p48b722c375)" style="fill: #5801a4"/>
    <path d="M 234 18.09 
L 246.6 18.09 
L 246.6 22.41 
L 234 22.41 
L 234 18.09 
" clip-path="url(#p48b722c375)" style="fill: #7201a8"/>
    <path d="M 246.6 18.09 
L 259.2 18.09 
L 259.2 22.41 
L 246.6 22.41 
L 246.6 18.09 
" clip-path="url(#p48b722c375)" style="fill: #6f00a8"/>
    <path d="M 7.2 22.41 
L 19.8 22.41 
L 19.8 26.73 
L 7.2 26.73 
L 7.2 22.41 
" clip-path="url(#p48b722c375)" style="fill: #0d0887"/>
    <path d="M 19.8 22.41 
L 32.4 22.41 
L 32.4 26.73 
L 19.8 26.73 
L 19.8 22.41 
" clip-path="url(#p48b722c375)" style="fill: #0d0887"/>
    <path d="M 32.4 22.41 
L 45 22.41 
L 45 26.73 
L 32.4 26.73 
L 32.4 22.41 
" clip-path="url(#p48b722c375)" style="fill: #0d0887"/>
    <path d="M 45 22.41 
L 57.6 22.41 
L 57.6 26.73 
L 45 26.73 
L 45 22.41 
" clip-path="url(#p48b722c375)" style="fill: #0d0887"/>
    <path d="M 57.6 22.41 
L 70.2 22.41 
L 70.2 26.73 
L 57.6 26.73 
L 57.6 22.41 
" clip-path="url(#p48b722c375)" style="fill: #0d0887"/>
    <path d="M 70.2 22.41 
L 82.8 22.41 
L 82.8 26.73 
L 70.2 26.73 
L 70.2 22.41 
" clip-path="url(#p48b722c375)" style="fill: #0d0887"/>
    <path d="M 82.8 22.41 
L 95.4 22.41 
L 95.4 26.73 
L 82.8 26.73 
L 82.8 22.41 
" clip-path="url(#p48b722c375)" style="fill: #0d0887"/>
    <path d="M 95.4 22.41 
L 108 22.41 
L 108 26.73 
L 95.4 26.73 
L 95.4 22.41 
" clip-path="url(#p48b722c375)" style="fill: #0d0887"/>
    <path d="M 108 22.41 
L 120.6 22.41 
L 120.6 26.73 
L 108 26.73 
L 108 22.41 
" clip-path="url(#p48b722c375)" style="fill: #0d0887"/>
    <path d="M 120.6 22.41 
L 133.2 22.41 
L 133.2 26.73 
L 120.6 26.73 
L 120.6 22.41 
" clip-path="url(#p48b722c375)" style="fill: #0d0887"/>
    <path d="M 133.2 22.41 
L 145.8 22.41 
L 145.8 26.73 
L 133.2 26.73 
L 133.2 22.41 
" clip-path="url(#p48b722c375)" style="fill: #0d0887"/>
    <path d="M 145.8 22.41 
L 158.4 22.41 
L 158.4 26.73 
L 145.8 26.73 
L 145.8 22.41 
" clip-path="url(#p48b722c375)" style="fill: #0d0887"/>
    <path d="M 158.4 22.41 
L 171 22.41 
L 171 26.73 
L 158.4 26.73 
L 158.4 22.41 
" clip-path="url(#p48b722c375)" style="fill: #0d0887"/>
    <path d="M 171 22.41 
L 183.6 22.41 
L 183.6 26.73 
L 171 26.73 
L 171 22.41 
" clip-path="url(#p48b722c375)" style="fill: #330597"/>
    <path d="M 183.6 22.41 
L 196.2 22.41 
L 196.2 26.73 
L 183.6 26.73 
L 183.6 22.41 
" clip-path="url(#p48b722c375)" style="fill: #0d0887"/>
    <path d="M 196.2 22.41 
L 208.8 22.41 
L 208.8 26.73 
L 196.2 26.73 
L 196.2 22.41 
" clip-path="url(#p48b722c375)" style="fill: #0d0887"/>
    <path d="M 208.8 22.41 
L 221.4 22.41 
L 221.4 26.73 
L 208.8 26.73 
L 208.8 22.41 
" clip-path="url(#p48b722c375)" style="fill: #b6308b"/>
    <path d="M 221.4 22.41 
L 234 22.41 
L 234 26.73 
L 221.4 26.73 
L 221.4 22.41 
" clip-path="url(#p48b722c375)" style="fill: #5801a4"/>
    <path d="M 234 22.41 
L 246.6 22.41 
L 246.6 26.73 
L 234 26.73 
L 234 22.41 
" clip-path="url(#p48b722c375)" style="fill: #7201a8"/>
    <path d="M 246.6 22.41 
L 259.2 22.41 
L 259.2 26.73 
L 246.6 26.73 
L 246.6 22.41 
" clip-path="url(#p48b722c375)" style="fill: #6f00a8"/>
    <path d="M 7.2 26.73 
L 19.8 26.73 
L 19.8 31.05 
L 7.2 31.05 
L 7.2 26.73 
" clip-path="url(#p48b722c375)" style="fill: #0d0887"/>
    <path d="M 19.8 26.73 
L 32.4 26.73 
L 32.4 31.05 
L 19.8 31.05 
L 19.8 26.73 
" clip-path="url(#p48b722c375)" style="fill: #b83289"/>
    <path d="M 32.4 26.73 
L 45 26.73 
L 45 31.05 
L 32.4 31.05 
L 32.4 26.73 
" clip-path="url(#p48b722c375)" style="fill: #0d0887"/>
    <path d="M 45 26.73 
L 57.6 26.73 
L 57.6 31.05 
L 45 31.05 
L 45 26.73 
" clip-path="url(#p48b722c375)" style="fill: #0d0887"/>
    <path d="M 57.6 26.73 
L 70.2 26.73 
L 70.2 31.05 
L 57.6 31.05 
L 57.6 26.73 
" clip-path="url(#p48b722c375)" style="fill: #5502a4"/>
    <path d="M 70.2 26.73 
L 82.8 26.73 
L 82.8 31.05 
L 70.2 31.05 
L 70.2 26.73 
" clip-path="url(#p48b722c375)" style="fill: #0d0887"/>
    <path d="M 82.8 26.73 
L 95.4 26.73 
L 95.4 31.05 
L 82.8 31.05 
L 82.8 26.73 
" clip-path="url(#p48b722c375)" style="fill: #0d0887"/>
    <path d="M 95.4 26.73 
L 108 26.73 
L 108 31.05 
L 95.4 31.05 
L 95.4 26.73 
" clip-path="url(#p48b722c375)" style="fill: #0d0887"/>
    <path d="M 108 26.73 
L 120.6 26.73 
L 120.6 31.05 
L 108 31.05 
L 108 26.73 
" clip-path="url(#p48b722c375)" style="fill: #0d0887"/>
    <path d="M 120.6 26.73 
L 133.2 26.73 
L 133.2 31.05 
L 120.6 31.05 
L 120.6 26.73 
" clip-path="url(#p48b722c375)" style="fill: #0d0887"/>
    <path d="M 133.2 26.73 
L 145.8 26.73 
L 145.8 31.05 
L 133.2 31.05 
L 133.2 26.73 
" clip-path="url(#p48b722c375)" style="fill: #0d0887"/>
    <path d="M 145.8 26.73 
L 158.4 26.73 
L 158.4 31.05 
L 145.8 31.05 
L 145.8 26.73 
" clip-path="url(#p48b722c375)" style="fill: #0d0887"/>
    <path d="M 158.4 26.73 
L 171 26.73 
L 171 31.05 
L 158.4 31.05 
L 158.4 26.73 
" clip-path="url(#p48b722c375)" style="fill: #0d0887"/>
    <path d="M 171 26.73 
L 183.6 26.73 
L 183.6 31.05 
L 171 31.05 
L 171 26.73 
" clip-path="url(#p48b722c375)" style="fill: #0d0887"/>
    <path d="M 183.6 26.73 
L 196.2 26.73 
L 196.2 31.05 
L 183.6 31.05 
L 183.6 26.73 
" clip-path="url(#p48b722c375)" style="fill: #0d0887"/>
    <path d="M 196.2 26.73 
L 208.8 26.73 
L 208.8 31.05 
L 196.2 31.05 
L 196.2 26.73 
" clip-path="url(#p48b722c375)" style="fill: #0d0887"/>
    <path d="M 208.8 26.73 
L 221.4 26.73 
L 221.4 31.05 
L 208.8 31.05 
L 208.8 26.73 
" clip-path="url(#p48b722c375)" style="fill: #0d0887"/>
    <path d="M 221.4 26.73 
L 234 26.73 
L 234 31.05 
L 221.4 31.05 
L 221.4 26.73 
" clip-path="url(#p48b722c375)" style="fill: #0d0887"/>
    <path d="M 234 26.73 
L 246.6 26.73 
L 246.6 31.05 
L 234 31.05 
L 234 26.73 
" clip-path="url(#p48b722c375)" style="fill: #0d0887"/>
    <path d="M 246.6 26.73 
L 259.2 26.73 
L 259.2 31.05 
L 246.6 31.05 
L 246.6 26.73 
" clip-path="url(#p48b722c375)" style="fill: #0d0887"/>
    <path d="M 7.2 31.05 
L 19.8 31.05 
L 19.8 35.37 
L 7.2 35.37 
L 7.2 31.05 
" clip-path="url(#p48b722c375)" style="fill: #0d0887"/>
    <path d="M 19.8 31.05 
L 32.4 31.05 
L 32.4 35.37 
L 19.8 35.37 
L 19.8 31.05 
" clip-path="url(#p48b722c375)" style="fill: #b83289"/>
    <path d="M 32.4 31.05 
L 45 31.05 
L 45 35.37 
L 32.4 35.37 
L 32.4 31.05 
" clip-path="url(#p48b722c375)" style="fill: #0d0887"/>
    <path d="M 45 31.05 
L 57.6 31.05 
L 57.6 35.37 
L 45 35.37 
L 45 31.05 
" clip-path="url(#p48b722c375)" style="fill: #0d0887"/>
    <path d="M 57.6 31.05 
L 70.2 31.05 
L 70.2 35.37 
L 57.6 35.37 
L 57.6 31.05 
" clip-path="url(#p48b722c375)" style="fill: #5502a4"/>
    <path d="M 70.2 31.05 
L 82.8 31.05 
L 82.8 35.37 
L 70.2 35.37 
L 70.2 31.05 
" clip-path="url(#p48b722c375)" style="fill: #0d0887"/>
    <path d="M 82.8 31.05 
L 95.4 31.05 
L 95.4 35.37 
L 82.8 35.37 
L 82.8 31.05 
" clip-path="url(#p48b722c375)" style="fill: #0d0887"/>
    <path d="M 95.4 31.05 
L 108 31.05 
L 108 35.37 
L 95.4 35.37 
L 95.4 31.05 
" clip-path="url(#p48b722c375)" style="fill: #0d0887"/>
    <path d="M 108 31.05 
L 120.6 31.05 
L 120.6 35.37 
L 108 35.37 
L 108 31.05 
" clip-path="url(#p48b722c375)" style="fill: #0d0887"/>
    <path d="M 120.6 31.05 
L 133.2 31.05 
L 133.2 35.37 
L 120.6 35.37 
L 120.6 31.05 
" clip-path="url(#p48b722c375)" style="fill: #0d0887"/>
    <path d="M 133.2 31.05 
L 145.8 31.05 
L 145.8 35.37 
L 133.2 35.37 
L 133.2 31.05 
" clip-path="url(#p48b722c375)" style="fill: #0d0887"/>
    <path d="M 145.8 31.05 
L 158.4 31.05 
L 158.4 35.37 
L 145.8 35.37 
L 145.8 31.05 
" clip-path="url(#p48b722c375)" style="fill: #0d0887"/>
    <path d="M 158.4 31.05 
L 171 31.05 
L 171 35.37 
L 158.4 35.37 
L 158.4 31.05 
" clip-path="url(#p48b722c375)" style="fill: #0d0887"/>
    <path d="M 171 31.05 
L 183.6 31.05 
L 183.6 35.37 
L 171 35.37 
L 171 31.05 
" clip-path="url(#p48b722c375)" style="fill: #0d0887"/>
    <path d="M 183.6 31.05 
L 196.2 31.05 
L 196.2 35.37 
L 183.6 35.37 
L 183.6 31.05 
" clip-path="url(#p48b722c375)" style="fill: #0d0887"/>
    <path d="M 196.2 31.05 
L 208.8 31.05 
L 208.8 35.37 
L 196.2 35.37 
L 196.2 31.05 
" clip-path="url(#p48b722c375)" style="fill: #0d0887"/>
    <path d="M 208.8 31.05 
L 221.4 31.05 
L 221.4 35.37 
L 208.8 35.37 
L 208.8 31.05 
" clip-path="url(#p48b722c375)" style="fill: #0d0887"/>
    <path d="M 221.4 31.05 
L 234 31.05 
L 234 35.37 
L 221.4 35.37 
L 221.4 31.05 
" clip-path="url(#p48b722c375)" style="fill: #0d0887"/>
    <path d="M 234 31.05 
L 246.6 31.05 
L 246.6 35.37 
L 234 35.37 
L 234 31.05 
" clip-path="url(#p48b722c375)" style="fill: #0d0887"/>
    <path d="M 246.6 31.05 
L 259.2 31.05 
L 259.2 35.37 
L 246.6 35.37 
L 246.6 31.05 
" clip-path="url(#p48b722c375)" style="fill: #0d0887"/>
    <path d="M 7.2 35.37 
L 19.8 35.37 
L 19.8 39.69 
L 7.2 39.69 
L 7.2 35.37 
" clip-path="url(#p48b722c375)" style="fill: #b52f8c"/>
    <path d="M 19.8 35.37 
L 32.4 35.37 
L 32.4 39.69 
L 19.8 39.69 
L 19.8 35.37 
" clip-path="url(#p48b722c375)" style="fill: #0d0887"/>
    <path d="M 32.4 35.37 
L 45 35.37 
L 45 39.69 
L 32.4 39.69 
L 32.4 35.37 
" clip-path="url(#p48b722c375)" style="fill: #0d0887"/>
    <path d="M 45 35.37 
L 57.6 35.37 
L 57.6 39.69 
L 45 39.69 
L 45 35.37 
" clip-path="url(#p48b722c375)" style="fill: #0d0887"/>
    <path d="M 57.6 35.37 
L 70.2 35.37 
L 70.2 39.69 
L 57.6 39.69 
L 57.6 35.37 
" clip-path="url(#p48b722c375)" style="fill: #0d0887"/>
    <path d="M 70.2 35.37 
L 82.8 35.37 
L 82.8 39.69 
L 70.2 39.69 
L 70.2 35.37 
" clip-path="url(#p48b722c375)" style="fill: #0d0887"/>
    <path d="M 82.8 35.37 
L 95.4 35.37 
L 95.4 39.69 
L 82.8 39.69 
L 82.8 35.37 
" clip-path="url(#p48b722c375)" style="fill: #0d0887"/>
    <path d="M 95.4 35.37 
L 108 35.37 
L 108 39.69 
L 95.4 39.69 
L 95.4 35.37 
" clip-path="url(#p48b722c375)" style="fill: #0d0887"/>
    <path d="M 108 35.37 
L 120.6 35.37 
L 120.6 39.69 
L 108 39.69 
L 108 35.37 
" clip-path="url(#p48b722c375)" style="fill: #0d0887"/>
    <path d="M 120.6 35.37 
L 133.2 35.37 
L 133.2 39.69 
L 120.6 39.69 
L 120.6 35.37 
" clip-path="url(#p48b722c375)" style="fill: #0d0887"/>
    <path d="M 133.2 35.37 
L 145.8 35.37 
L 145.8 39.69 
L 133.2 39.69 
L 133.2 35.37 
" clip-path="url(#p48b722c375)" style="fill: #3a049a"/>
    <path d="M 145.8 35.37 
L 158.4 35.37 
L 158.4 39.69 
L 145.8 39.69 
L 145.8 35.37 
" clip-path="url(#p48b722c375)" style="fill: #5002a2"/>
    <path d="M 158.4 35.37 
L 171 35.37 
L 171 39.69 
L 158.4 39.69 
L 158.4 35.37 
" clip-path="url(#p48b722c375)" style="fill: #0d0887"/>
    <path d="M 171 35.37 
L 183.6 35.37 
L 183.6 39.69 
L 171 39.69 
L 171 35.37 
" clip-path="url(#p48b722c375)" style="fill: #0d0887"/>
    <path d="M 183.6 35.37 
L 196.2 35.37 
L 196.2 39.69 
L 183.6 39.69 
L 183.6 35.37 
" clip-path="url(#p48b722c375)" style="fill: #0d0887"/>
    <path d="M 196.2 35.37 
L 208.8 35.37 
L 208.8 39.69 
L 196.2 39.69 
L 196.2 35.37 
" clip-path="url(#p48b722c375)" style="fill: #0d0887"/>
    <path d="M 208.8 35.37 
L 221.4 35.37 
L 221.4 39.69 
L 208.8 39.69 
L 208.8 35.37 
" clip-path="url(#p48b722c375)" style="fill: #0d0887"/>
    <path d="M 221.4 35.37 
L 234 35.37 
L 234 39.69 
L 221.4 39.69 
L 221.4 35.37 
" clip-path="url(#p48b722c375)" style="fill: #0d0887"/>
    <path d="M 234 35.37 
L 246.6 35.37 
L 246.6 39.69 
L 234 39.69 
L 234 35.37 
" clip-path="url(#p48b722c375)" style="fill: #0d0887"/>
    <path d="M 246.6 35.37 
L 259.2 35.37 
L 259.2 39.69 
L 246.6 39.69 
L 246.6 35.37 
" clip-path="url(#p48b722c375)" style="fill: #0d0887"/>
    <path d="M 7.2 39.69 
L 19.8 39.69 
L 19.8 44.01 
L 7.2 44.01 
L 7.2 39.69 
" clip-path="url(#p48b722c375)" style="fill: #b52f8c"/>
    <path d="M 19.8 39.69 
L 32.4 39.69 
L 32.4 44.01 
L 19.8 44.01 
L 19.8 39.69 
" clip-path="url(#p48b722c375)" style="fill: #0d0887"/>
    <path d="M 32.4 39.69 
L 45 39.69 
L 45 44.01 
L 32.4 44.01 
L 32.4 39.69 
" clip-path="url(#p48b722c375)" style="fill: #0d0887"/>
    <path d="M 45 39.69 
L 57.6 39.69 
L 57.6 44.01 
L 45 44.01 
L 45 39.69 
" clip-path="url(#p48b722c375)" style="fill: #0d0887"/>
    <path d="M 57.6 39.69 
L 70.2 39.69 
L 70.2 44.01 
L 57.6 44.01 
L 57.6 39.69 
" clip-path="url(#p48b722c375)" style="fill: #0d0887"/>
    <path d="M 70.2 39.69 
L 82.8 39.69 
L 82.8 44.01 
L 70.2 44.01 
L 70.2 39.69 
" clip-path="url(#p48b722c375)" style="fill: #0d0887"/>
    <path d="M 82.8 39.69 
L 95.4 39.69 
L 95.4 44.01 
L 82.8 44.01 
L 82.8 39.69 
" clip-path="url(#p48b722c375)" style="fill: #0d0887"/>
    <path d="M 95.4 39.69 
L 108 39.69 
L 108 44.01 
L 95.4 44.01 
L 95.4 39.69 
" clip-path="url(#p48b722c375)" style="fill: #0d0887"/>
    <path d="M 108 39.69 
L 120.6 39.69 
L 120.6 44.01 
L 108 44.01 
L 108 39.69 
" clip-path="url(#p48b722c375)" style="fill: #0d0887"/>
    <path d="M 120.6 39.69 
L 133.2 39.69 
L 133.2 44.01 
L 120.6 44.01 
L 120.6 39.69 
" clip-path="url(#p48b722c375)" style="fill: #0d0887"/>
    <path d="M 133.2 39.69 
L 145.8 39.69 
L 145.8 44.01 
L 133.2 44.01 
L 133.2 39.69 
" clip-path="url(#p48b722c375)" style="fill: #3a049a"/>
    <path d="M 145.8 39.69 
L 158.4 39.69 
L 158.4 44.01 
L 145.8 44.01 
L 145.8 39.69 
" clip-path="url(#p48b722c375)" style="fill: #5002a2"/>
    <path d="M 158.4 39.69 
L 171 39.69 
L 171 44.01 
L 158.4 44.01 
L 158.4 39.69 
" clip-path="url(#p48b722c375)" style="fill: #0d0887"/>
    <path d="M 171 39.69 
L 183.6 39.69 
L 183.6 44.01 
L 171 44.01 
L 171 39.69 
" clip-path="url(#p48b722c375)" style="fill: #0d0887"/>
    <path d="M 183.6 39.69 
L 196.2 39.69 
L 196.2 44.01 
L 183.6 44.01 
L 183.6 39.69 
" clip-path="url(#p48b722c375)" style="fill: #0d0887"/>
    <path d="M 196.2 39.69 
L 208.8 39.69 
L 208.8 44.01 
L 196.2 44.01 
L 196.2 39.69 
" clip-path="url(#p48b722c375)" style="fill: #0d0887"/>
    <path d="M 208.8 39.69 
L 221.4 39.69 
L 221.4 44.01 
L 208.8 44.01 
L 208.8 39.69 
" clip-path="url(#p48b722c375)" style="fill: #0d0887"/>
    <path d="M 221.4 39.69 
L 234 39.69 
L 234 44.01 
L 221.4 44.01 
L 221.4 39.69 
" clip-path="url(#p48b722c375)" style="fill: #0d0887"/>
    <path d="M 234 39.69 
L 246.6 39.69 
L 246.6 44.01 
L 234 44.01 
L 234 39.69 
" clip-path="url(#p48b722c375)" style="fill: #0d0887"/>
    <path d="M 246.6 39.69 
L 259.2 39.69 
L 259.2 44.01 
L 246.6 44.01 
L 246.6 39.69 
" clip-path="url(#p48b722c375)" style="fill: #0d0887"/>
    <path d="M 7.2 44.01 
L 19.8 44.01 
L 19.8 48.33 
L 7.2 48.33 
L 7.2 44.01 
" clip-path="url(#p48b722c375)" style="fill: #b52f8c"/>
    <path d="M 19.8 44.01 
L 32.4 44.01 
L 32.4 48.33 
L 19.8 48.33 
L 19.8 44.01 
" clip-path="url(#p48b722c375)" style="fill: #0d0887"/>
    <path d="M 32.4 44.01 
L 45 44.01 
L 45 48.33 
L 32.4 48.33 
L 32.4 44.01 
" clip-path="url(#p48b722c375)" style="fill: #0d0887"/>
    <path d="M 45 44.01 
L 57.6 44.01 
L 57.6 48.33 
L 45 48.33 
L 45 44.01 
" clip-path="url(#p48b722c375)" style="fill: #0d0887"/>
    <path d="M 57.6 44.01 
L 70.2 44.01 
L 70.2 48.33 
L 57.6 48.33 
L 57.6 44.01 
" clip-path="url(#p48b722c375)" style="fill: #0d0887"/>
    <path d="M 70.2 44.01 
L 82.8 44.01 
L 82.8 48.33 
L 70.2 48.33 
L 70.2 44.01 
" clip-path="url(#p48b722c375)" style="fill: #0d0887"/>
    <path d="M 82.8 44.01 
L 95.4 44.01 
L 95.4 48.33 
L 82.8 48.33 
L 82.8 44.01 
" clip-path="url(#p48b722c375)" style="fill: #0d0887"/>
    <path d="M 95.4 44.01 
L 108 44.01 
L 108 48.33 
L 95.4 48.33 
L 95.4 44.01 
" clip-path="url(#p48b722c375)" style="fill: #0d0887"/>
    <path d="M 108 44.01 
L 120.6 44.01 
L 120.6 48.33 
L 108 48.33 
L 108 44.01 
" clip-path="url(#p48b722c375)" style="fill: #0d0887"/>
    <path d="M 120.6 44.01 
L 133.2 44.01 
L 133.2 48.33 
L 120.6 48.33 
L 120.6 44.01 
" clip-path="url(#p48b722c375)" style="fill: #0d0887"/>
    <path d="M 133.2 44.01 
L 145.8 44.01 
L 145.8 48.33 
L 133.2 48.33 
L 133.2 44.01 
" clip-path="url(#p48b722c375)" style="fill: #260591"/>
    <path d="M 145.8 44.01 
L 158.4 44.01 
L 158.4 48.33 
L 145.8 48.33 
L 145.8 44.01 
" clip-path="url(#p48b722c375)" style="fill: #0d0887"/>
    <path d="M 158.4 44.01 
L 171 44.01 
L 171 48.33 
L 158.4 48.33 
L 158.4 44.01 
" clip-path="url(#p48b722c375)" style="fill: #0d0887"/>
    <path d="M 171 44.01 
L 183.6 44.01 
L 183.6 48.33 
L 171 48.33 
L 171 44.01 
" clip-path="url(#p48b722c375)" style="fill: #0d0887"/>
    <path d="M 183.6 44.01 
L 196.2 44.01 
L 196.2 48.33 
L 183.6 48.33 
L 183.6 44.01 
" clip-path="url(#p48b722c375)" style="fill: #2f0596"/>
    <path d="M 196.2 44.01 
L 208.8 44.01 
L 208.8 48.33 
L 196.2 48.33 
L 196.2 44.01 
" clip-path="url(#p48b722c375)" style="fill: #0d0887"/>
    <path d="M 208.8 44.01 
L 221.4 44.01 
L 221.4 48.33 
L 208.8 48.33 
L 208.8 44.01 
" clip-path="url(#p48b722c375)" style="fill: #0d0887"/>
    <path d="M 221.4 44.01 
L 234 44.01 
L 234 48.33 
L 221.4 48.33 
L 221.4 44.01 
" clip-path="url(#p48b722c375)" style="fill: #0d0887"/>
    <path d="M 234 44.01 
L 246.6 44.01 
L 246.6 48.33 
L 234 48.33 
L 234 44.01 
" clip-path="url(#p48b722c375)" style="fill: #0d0887"/>
    <path d="M 246.6 44.01 
L 259.2 44.01 
L 259.2 48.33 
L 246.6 48.33 
L 246.6 44.01 
" clip-path="url(#p48b722c375)" style="fill: #0d0887"/>
    <path d="M 7.2 48.33 
L 19.8 48.33 
L 19.8 52.65 
L 7.2 52.65 
L 7.2 48.33 
" clip-path="url(#p48b722c375)" style="fill: #b52f8c"/>
    <path d="M 19.8 48.33 
L 32.4 48.33 
L 32.4 52.65 
L 19.8 52.65 
L 19.8 48.33 
" clip-path="url(#p48b722c375)" style="fill: #0d0887"/>
    <path d="M 32.4 48.33 
L 45 48.33 
L 45 52.65 
L 32.4 52.65 
L 32.4 48.33 
" clip-path="url(#p48b722c375)" style="fill: #0d0887"/>
    <path d="M 45 48.33 
L 57.6 48.33 
L 57.6 52.65 
L 45 52.65 
L 45 48.33 
" clip-path="url(#p48b722c375)" style="fill: #0d0887"/>
    <path d="M 57.6 48.33 
L 70.2 48.33 
L 70.2 52.65 
L 57.6 52.65 
L 57.6 48.33 
" clip-path="url(#p48b722c375)" style="fill: #0d0887"/>
    <path d="M 70.2 48.33 
L 82.8 48.33 
L 82.8 52.65 
L 70.2 52.65 
L 70.2 48.33 
" clip-path="url(#p48b722c375)" style="fill: #0d0887"/>
    <path d="M 82.8 48.33 
L 95.4 48.33 
L 95.4 52.65 
L 82.8 52.65 
L 82.8 48.33 
" clip-path="url(#p48b722c375)" style="fill: #0d0887"/>
    <path d="M 95.4 48.33 
L 108 48.33 
L 108 52.65 
L 95.4 52.65 
L 95.4 48.33 
" clip-path="url(#p48b722c375)" style="fill: #0d0887"/>
    <path d="M 108 48.33 
L 120.6 48.33 
L 120.6 52.65 
L 108 52.65 
L 108 48.33 
" clip-path="url(#p48b722c375)" style="fill: #0d0887"/>
    <path d="M 120.6 48.33 
L 133.2 48.33 
L 133.2 52.65 
L 120.6 52.65 
L 120.6 48.33 
" clip-path="url(#p48b722c375)" style="fill: #0d0887"/>
    <path d="M 133.2 48.33 
L 145.8 48.33 
L 145.8 52.65 
L 133.2 52.65 
L 133.2 48.33 
" clip-path="url(#p48b722c375)" style="fill: #260591"/>
    <path d="M 145.8 48.33 
L 158.4 48.33 
L 158.4 52.65 
L 145.8 52.65 
L 145.8 48.33 
" clip-path="url(#p48b722c375)" style="fill: #0d0887"/>
    <path d="M 158.4 48.33 
L 171 48.33 
L 171 52.65 
L 158.4 52.65 
L 158.4 48.33 
" clip-path="url(#p48b722c375)" style="fill: #0d0887"/>
    <path d="M 171 48.33 
L 183.6 48.33 
L 183.6 52.65 
L 171 52.65 
L 171 48.33 
" clip-path="url(#p48b722c375)" style="fill: #0d0887"/>
    <path d="M 183.6 48.33 
L 196.2 48.33 
L 196.2 52.65 
L 183.6 52.65 
L 183.6 48.33 
" clip-path="url(#p48b722c375)" style="fill: #2f0596"/>
    <path d="M 196.2 48.33 
L 208.8 48.33 
L 208.8 52.65 
L 196.2 52.65 
L 196.2 48.33 
" clip-path="url(#p48b722c375)" style="fill: #0d0887"/>
    <path d="M 208.8 48.33 
L 221.4 48.33 
L 221.4 52.65 
L 208.8 52.65 
L 208.8 48.33 
" clip-path="url(#p48b722c375)" style="fill: #0d0887"/>
    <path d="M 221.4 48.33 
L 234 48.33 
L 234 52.65 
L 221.4 52.65 
L 221.4 48.33 
" clip-path="url(#p48b722c375)" style="fill: #0d0887"/>
    <path d="M 234 48.33 
L 246.6 48.33 
L 246.6 52.65 
L 234 52.65 
L 234 48.33 
" clip-path="url(#p48b722c375)" style="fill: #0d0887"/>
    <path d="M 246.6 48.33 
L 259.2 48.33 
L 259.2 52.65 
L 246.6 52.65 
L 246.6 48.33 
" clip-path="url(#p48b722c375)" style="fill: #0d0887"/>
    <path d="M 7.2 52.65 
L 19.8 52.65 
L 19.8 56.97 
L 7.2 56.97 
L 7.2 52.65 
" clip-path="url(#p48b722c375)" style="fill: #0d0887"/>
    <path d="M 19.8 52.65 
L 32.4 52.65 
L 32.4 56.97 
L 19.8 56.97 
L 19.8 52.65 
" clip-path="url(#p48b722c375)" style="fill: #0d0887"/>
    <path d="M 32.4 52.65 
L 45 52.65 
L 45 56.97 
L 32.4 56.97 
L 32.4 52.65 
" clip-path="url(#p48b722c375)" style="fill: #0d0887"/>
    <path d="M 45 52.65 
L 57.6 52.65 
L 57.6 56.97 
L 45 56.97 
L 45 52.65 
" clip-path="url(#p48b722c375)" style="fill: #0d0887"/>
    <path d="M 57.6 52.65 
L 70.2 52.65 
L 70.2 56.97 
L 57.6 56.97 
L 57.6 52.65 
" clip-path="url(#p48b722c375)" style="fill: #0d0887"/>
    <path d="M 70.2 52.65 
L 82.8 52.65 
L 82.8 56.97 
L 70.2 56.97 
L 70.2 52.65 
" clip-path="url(#p48b722c375)" style="fill: #7e03a8"/>
    <path d="M 82.8 52.65 
L 95.4 52.65 
L 95.4 56.97 
L 82.8 56.97 
L 82.8 52.65 
" clip-path="url(#p48b722c375)" style="fill: #38049a"/>
    <path d="M 95.4 52.65 
L 108 52.65 
L 108 56.97 
L 95.4 56.97 
L 95.4 52.65 
" clip-path="url(#p48b722c375)" style="fill: #5901a5"/>
    <path d="M 108 52.65 
L 120.6 52.65 
L 120.6 56.97 
L 108 56.97 
L 108 52.65 
" clip-path="url(#p48b722c375)" style="fill: #44039e"/>
    <path d="M 120.6 52.65 
L 133.2 52.65 
L 133.2 56.97 
L 120.6 56.97 
L 120.6 52.65 
" clip-path="url(#p48b722c375)" style="fill: #0d0887"/>
    <path d="M 133.2 52.65 
L 145.8 52.65 
L 145.8 56.97 
L 133.2 56.97 
L 133.2 52.65 
" clip-path="url(#p48b722c375)" style="fill: #3a049a"/>
    <path d="M 145.8 52.65 
L 158.4 52.65 
L 158.4 56.97 
L 145.8 56.97 
L 145.8 52.65 
" clip-path="url(#p48b722c375)" style="fill: #0d0887"/>
    <path d="M 158.4 52.65 
L 171 52.65 
L 171 56.97 
L 158.4 56.97 
L 158.4 52.65 
" clip-path="url(#p48b722c375)" style="fill: #0d0887"/>
    <path d="M 171 52.65 
L 183.6 52.65 
L 183.6 56.97 
L 171 56.97 
L 171 52.65 
" clip-path="url(#p48b722c375)" style="fill: #0d0887"/>
    <path d="M 183.6 52.65 
L 196.2 52.65 
L 196.2 56.97 
L 183.6 56.97 
L 183.6 52.65 
" clip-path="url(#p48b722c375)" style="fill: #0d0887"/>
    <path d="M 196.2 52.65 
L 208.8 52.65 
L 208.8 56.97 
L 196.2 56.97 
L 196.2 52.65 
" clip-path="url(#p48b722c375)" style="fill: #0d0887"/>
    <path d="M 208.8 52.65 
L 221.4 52.65 
L 221.4 56.97 
L 208.8 56.97 
L 208.8 52.65 
" clip-path="url(#p48b722c375)" style="fill: #0d0887"/>
    <path d="M 221.4 52.65 
L 234 52.65 
L 234 56.97 
L 221.4 56.97 
L 221.4 52.65 
" clip-path="url(#p48b722c375)" style="fill: #0d0887"/>
    <path d="M 234 52.65 
L 246.6 52.65 
L 246.6 56.97 
L 234 56.97 
L 234 52.65 
" clip-path="url(#p48b722c375)" style="fill: #0d0887"/>
    <path d="M 246.6 52.65 
L 259.2 52.65 
L 259.2 56.97 
L 246.6 56.97 
L 246.6 52.65 
" clip-path="url(#p48b722c375)" style="fill: #0d0887"/>
    <path d="M 7.2 56.97 
L 19.8 56.97 
L 19.8 61.29 
L 7.2 61.29 
L 7.2 56.97 
" clip-path="url(#p48b722c375)" style="fill: #0d0887"/>
    <path d="M 19.8 56.97 
L 32.4 56.97 
L 32.4 61.29 
L 19.8 61.29 
L 19.8 56.97 
" clip-path="url(#p48b722c375)" style="fill: #0d0887"/>
    <path d="M 32.4 56.97 
L 45 56.97 
L 45 61.29 
L 32.4 61.29 
L 32.4 56.97 
" clip-path="url(#p48b722c375)" style="fill: #0d0887"/>
    <path d="M 45 56.97 
L 57.6 56.97 
L 57.6 61.29 
L 45 61.29 
L 45 56.97 
" clip-path="url(#p48b722c375)" style="fill: #0d0887"/>
    <path d="M 57.6 56.97 
L 70.2 56.97 
L 70.2 61.29 
L 57.6 61.29 
L 57.6 56.97 
" clip-path="url(#p48b722c375)" style="fill: #0d0887"/>
    <path d="M 70.2 56.97 
L 82.8 56.97 
L 82.8 61.29 
L 70.2 61.29 
L 70.2 56.97 
" clip-path="url(#p48b722c375)" style="fill: #7e03a8"/>
    <path d="M 82.8 56.97 
L 95.4 56.97 
L 95.4 61.29 
L 82.8 61.29 
L 82.8 56.97 
" clip-path="url(#p48b722c375)" style="fill: #38049a"/>
    <path d="M 95.4 56.97 
L 108 56.97 
L 108 61.29 
L 95.4 61.29 
L 95.4 56.97 
" clip-path="url(#p48b722c375)" style="fill: #5901a5"/>
    <path d="M 108 56.97 
L 120.6 56.97 
L 120.6 61.29 
L 108 61.29 
L 108 56.97 
" clip-path="url(#p48b722c375)" style="fill: #44039e"/>
    <path d="M 120.6 56.97 
L 133.2 56.97 
L 133.2 61.29 
L 120.6 61.29 
L 120.6 56.97 
" clip-path="url(#p48b722c375)" style="fill: #0d0887"/>
    <path d="M 133.2 56.97 
L 145.8 56.97 
L 145.8 61.29 
L 133.2 61.29 
L 133.2 56.97 
" clip-path="url(#p48b722c375)" style="fill: #3a049a"/>
    <path d="M 145.8 56.97 
L 158.4 56.97 
L 158.4 61.29 
L 145.8 61.29 
L 145.8 56.97 
" clip-path="url(#p48b722c375)" style="fill: #0d0887"/>
    <path d="M 158.4 56.97 
L 171 56.97 
L 171 61.29 
L 158.4 61.29 
L 158.4 56.97 
" clip-path="url(#p48b722c375)" style="fill: #0d0887"/>
    <path d="M 171 56.97 
L 183.6 56.97 
L 183.6 61.29 
L 171 61.29 
L 171 56.97 
" clip-path="url(#p48b722c375)" style="fill: #0d0887"/>
    <path d="M 183.6 56.97 
L 196.2 56.97 
L 196.2 61.29 
L 183.6 61.29 
L 183.6 56.97 
" clip-path="url(#p48b722c375)" style="fill: #0d0887"/>
    <path d="M 196.2 56.97 
L 208.8 56.97 
L 208.8 61.29 
L 196.2 61.29 
L 196.2 56.97 
" clip-path="url(#p48b722c375)" style="fill: #0d0887"/>
    <path d="M 208.8 56.97 
L 221.4 56.97 
L 221.4 61.29 
L 208.8 61.29 
L 208.8 56.97 
" clip-path="url(#p48b722c375)" style="fill: #0d0887"/>
    <path d="M 221.4 56.97 
L 234 56.97 
L 234 61.29 
L 221.4 61.29 
L 221.4 56.97 
" clip-path="url(#p48b722c375)" style="fill: #0d0887"/>
    <path d="M 234 56.97 
L 246.6 56.97 
L 246.6 61.29 
L 234 61.29 
L 234 56.97 
" clip-path="url(#p48b722c375)" style="fill: #0d0887"/>
    <path d="M 246.6 56.97 
L 259.2 56.97 
L 259.2 61.29 
L 246.6 61.29 
L 246.6 56.97 
" clip-path="url(#p48b722c375)" style="fill: #0d0887"/>
    <path d="M 7.2 61.29 
L 19.8 61.29 
L 19.8 65.61 
L 7.2 65.61 
L 7.2 61.29 
" clip-path="url(#p48b722c375)" style="fill: #0d0887"/>
    <path d="M 19.8 61.29 
L 32.4 61.29 
L 32.4 65.61 
L 19.8 65.61 
L 19.8 61.29 
" clip-path="url(#p48b722c375)" style="fill: #0d0887"/>
    <path d="M 32.4 61.29 
L 45 61.29 
L 45 65.61 
L 32.4 65.61 
L 32.4 61.29 
" clip-path="url(#p48b722c375)" style="fill: #350498"/>
    <path d="M 45 61.29 
L 57.6 61.29 
L 57.6 65.61 
L 45 65.61 
L 45 61.29 
" clip-path="url(#p48b722c375)" style="fill: #7401a8"/>
    <path d="M 57.6 61.29 
L 70.2 61.29 
L 70.2 65.61 
L 57.6 65.61 
L 57.6 61.29 
" clip-path="url(#p48b722c375)" style="fill: #0d0887"/>
    <path d="M 70.2 61.29 
L 82.8 61.29 
L 82.8 65.61 
L 70.2 65.61 
L 70.2 61.29 
" clip-path="url(#p48b722c375)" style="fill: #0d0887"/>
    <path d="M 82.8 61.29 
L 95.4 61.29 
L 95.4 65.61 
L 82.8 65.61 
L 82.8 61.29 
" clip-path="url(#p48b722c375)" style="fill: #0d0887"/>
    <path d="M 95.4 61.29 
L 108 61.29 
L 108 65.61 
L 95.4 65.61 
L 95.4 61.29 
" clip-path="url(#p48b722c375)" style="fill: #0d0887"/>
    <path d="M 108 61.29 
L 120.6 61.29 
L 120.6 65.61 
L 108 65.61 
L 108 61.29 
" clip-path="url(#p48b722c375)" style="fill: #0d0887"/>
    <path d="M 120.6 61.29 
L 133.2 61.29 
L 133.2 65.61 
L 120.6 65.61 
L 120.6 61.29 
" clip-path="url(#p48b722c375)" style="fill: #0d0887"/>
    <path d="M 133.2 61.29 
L 145.8 61.29 
L 145.8 65.61 
L 133.2 65.61 
L 133.2 61.29 
" clip-path="url(#p48b722c375)" style="fill: #0d0887"/>
    <path d="M 145.8 61.29 
L 158.4 61.29 
L 158.4 65.61 
L 145.8 65.61 
L 145.8 61.29 
" clip-path="url(#p48b722c375)" style="fill: #0d0887"/>
    <path d="M 158.4 61.29 
L 171 61.29 
L 171 65.61 
L 158.4 65.61 
L 158.4 61.29 
" clip-path="url(#p48b722c375)" style="fill: #0d0887"/>
    <path d="M 171 61.29 
L 183.6 61.29 
L 183.6 65.61 
L 171 65.61 
L 171 61.29 
" clip-path="url(#p48b722c375)" style="fill: #0d0887"/>
    <path d="M 183.6 61.29 
L 196.2 61.29 
L 196.2 65.61 
L 183.6 65.61 
L 183.6 61.29 
" clip-path="url(#p48b722c375)" style="fill: #0d0887"/>
    <path d="M 196.2 61.29 
L 208.8 61.29 
L 208.8 65.61 
L 196.2 65.61 
L 196.2 61.29 
" clip-path="url(#p48b722c375)" style="fill: #0d0887"/>
    <path d="M 208.8 61.29 
L 221.4 61.29 
L 221.4 65.61 
L 208.8 65.61 
L 208.8 61.29 
" clip-path="url(#p48b722c375)" style="fill: #0d0887"/>
    <path d="M 221.4 61.29 
L 234 61.29 
L 234 65.61 
L 221.4 65.61 
L 221.4 61.29 
" clip-path="url(#p48b722c375)" style="fill: #0d0887"/>
    <path d="M 234 61.29 
L 246.6 61.29 
L 246.6 65.61 
L 234 65.61 
L 234 61.29 
" clip-path="url(#p48b722c375)" style="fill: #0d0887"/>
    <path d="M 246.6 61.29 
L 259.2 61.29 
L 259.2 65.61 
L 246.6 65.61 
L 246.6 61.29 
" clip-path="url(#p48b722c375)" style="fill: #0d0887"/>
    <path d="M 7.2 65.61 
L 19.8 65.61 
L 19.8 69.93 
L 7.2 69.93 
L 7.2 65.61 
" clip-path="url(#p48b722c375)" style="fill: #0d0887"/>
    <path d="M 19.8 65.61 
L 32.4 65.61 
L 32.4 69.93 
L 19.8 69.93 
L 19.8 65.61 
" clip-path="url(#p48b722c375)" style="fill: #0d0887"/>
    <path d="M 32.4 65.61 
L 45 65.61 
L 45 69.93 
L 32.4 69.93 
L 32.4 65.61 
" clip-path="url(#p48b722c375)" style="fill: #5502a4"/>
    <path d="M 45 65.61 
L 57.6 65.61 
L 57.6 69.93 
L 45 69.93 
L 45 65.61 
" clip-path="url(#p48b722c375)" style="fill: #0d0887"/>
    <path d="M 57.6 65.61 
L 70.2 65.61 
L 70.2 69.93 
L 57.6 69.93 
L 57.6 65.61 
" clip-path="url(#p48b722c375)" style="fill: #0d0887"/>
    <path d="M 70.2 65.61 
L 82.8 65.61 
L 82.8 69.93 
L 70.2 69.93 
L 70.2 65.61 
" clip-path="url(#p48b722c375)" style="fill: #0d0887"/>
    <path d="M 82.8 65.61 
L 95.4 65.61 
L 95.4 69.93 
L 82.8 69.93 
L 82.8 65.61 
" clip-path="url(#p48b722c375)" style="fill: #0d0887"/>
    <path d="M 95.4 65.61 
L 108 65.61 
L 108 69.93 
L 95.4 69.93 
L 95.4 65.61 
" clip-path="url(#p48b722c375)" style="fill: #0d0887"/>
    <path d="M 108 65.61 
L 120.6 65.61 
L 120.6 69.93 
L 108 69.93 
L 108 65.61 
" clip-path="url(#p48b722c375)" style="fill: #0d0887"/>
    <path d="M 120.6 65.61 
L 133.2 65.61 
L 133.2 69.93 
L 120.6 69.93 
L 120.6 65.61 
" clip-path="url(#p48b722c375)" style="fill: #20068f"/>
    <path d="M 133.2 65.61 
L 145.8 65.61 
L 145.8 69.93 
L 133.2 69.93 
L 133.2 65.61 
" clip-path="url(#p48b722c375)" style="fill: #0d0887"/>
    <path d="M 145.8 65.61 
L 158.4 65.61 
L 158.4 69.93 
L 145.8 69.93 
L 145.8 65.61 
" clip-path="url(#p48b722c375)" style="fill: #0d0887"/>
    <path d="M 158.4 65.61 
L 171 65.61 
L 171 69.93 
L 158.4 69.93 
L 158.4 65.61 
" clip-path="url(#p48b722c375)" style="fill: #0d0887"/>
    <path d="M 171 65.61 
L 183.6 65.61 
L 183.6 69.93 
L 171 69.93 
L 171 65.61 
" clip-path="url(#p48b722c375)" style="fill: #0d0887"/>
    <path d="M 183.6 65.61 
L 196.2 65.61 
L 196.2 69.93 
L 183.6 69.93 
L 183.6 65.61 
" clip-path="url(#p48b722c375)" style="fill: #0d0887"/>
    <path d="M 196.2 65.61 
L 208.8 65.61 
L 208.8 69.93 
L 196.2 69.93 
L 196.2 65.61 
" clip-path="url(#p48b722c375)" style="fill: #0d0887"/>
    <path d="M 208.8 65.61 
L 221.4 65.61 
L 221.4 69.93 
L 208.8 69.93 
L 208.8 65.61 
" clip-path="url(#p48b722c375)" style="fill: #0d0887"/>
    <path d="M 221.4 65.61 
L 234 65.61 
L 234 69.93 
L 221.4 69.93 
L 221.4 65.61 
" clip-path="url(#p48b722c375)" style="fill: #0d0887"/>
    <path d="M 234 65.61 
L 246.6 65.61 
L 246.6 69.93 
L 234 69.93 
L 234 65.61 
" clip-path="url(#p48b722c375)" style="fill: #0d0887"/>
    <path d="M 246.6 65.61 
L 259.2 65.61 
L 259.2 69.93 
L 246.6 69.93 
L 246.6 65.61 
" clip-path="url(#p48b722c375)" style="fill: #0d0887"/>
    <path d="M 7.2 69.93 
L 19.8 69.93 
L 19.8 74.25 
L 7.2 74.25 
L 7.2 69.93 
" clip-path="url(#p48b722c375)" style="fill: #0d0887"/>
    <path d="M 19.8 69.93 
L 32.4 69.93 
L 32.4 74.25 
L 19.8 74.25 
L 19.8 69.93 
" clip-path="url(#p48b722c375)" style="fill: #0d0887"/>
    <path d="M 32.4 69.93 
L 45 69.93 
L 45 74.25 
L 32.4 74.25 
L 32.4 69.93 
" clip-path="url(#p48b722c375)" style="fill: #5502a4"/>
    <path d="M 45 69.93 
L 57.6 69.93 
L 57.6 74.25 
L 45 74.25 
L 45 69.93 
" clip-path="url(#p48b722c375)" style="fill: #0d0887"/>
    <path d="M 57.6 69.93 
L 70.2 69.93 
L 70.2 74.25 
L 57.6 74.25 
L 57.6 69.93 
" clip-path="url(#p48b722c375)" style="fill: #0d0887"/>
    <path d="M 70.2 69.93 
L 82.8 69.93 
L 82.8 74.25 
L 70.2 74.25 
L 70.2 69.93 
" clip-path="url(#p48b722c375)" style="fill: #0d0887"/>
    <path d="M 82.8 69.93 
L 95.4 69.93 
L 95.4 74.25 
L 82.8 74.25 
L 82.8 69.93 
" clip-path="url(#p48b722c375)" style="fill: #0d0887"/>
    <path d="M 95.4 69.93 
L 108 69.93 
L 108 74.25 
L 95.4 74.25 
L 95.4 69.93 
" clip-path="url(#p48b722c375)" style="fill: #0d0887"/>
    <path d="M 108 69.93 
L 120.6 69.93 
L 120.6 74.25 
L 108 74.25 
L 108 69.93 
" clip-path="url(#p48b722c375)" style="fill: #0d0887"/>
    <path d="M 120.6 69.93 
L 133.2 69.93 
L 133.2 74.25 
L 120.6 74.25 
L 120.6 69.93 
" clip-path="url(#p48b722c375)" style="fill: #20068f"/>
    <path d="M 133.2 69.93 
L 145.8 69.93 
L 145.8 74.25 
L 133.2 74.25 
L 133.2 69.93 
" clip-path="url(#p48b722c375)" style="fill: #0d0887"/>
    <path d="M 145.8 69.93 
L 158.4 69.93 
L 158.4 74.25 
L 145.8 74.25 
L 145.8 69.93 
" clip-path="url(#p48b722c375)" style="fill: #0d0887"/>
    <path d="M 158.4 69.93 
L 171 69.93 
L 171 74.25 
L 158.4 74.25 
L 158.4 69.93 
" clip-path="url(#p48b722c375)" style="fill: #0d0887"/>
    <path d="M 171 69.93 
L 183.6 69.93 
L 183.6 74.25 
L 171 74.25 
L 171 69.93 
" clip-path="url(#p48b722c375)" style="fill: #0d0887"/>
    <path d="M 183.6 69.93 
L 196.2 69.93 
L 196.2 74.25 
L 183.6 74.25 
L 183.6 69.93 
" clip-path="url(#p48b722c375)" style="fill: #0d0887"/>
    <path d="M 196.2 69.93 
L 208.8 69.93 
L 208.8 74.25 
L 196.2 74.25 
L 196.2 69.93 
" clip-path="url(#p48b722c375)" style="fill: #0d0887"/>
    <path d="M 208.8 69.93 
L 221.4 69.93 
L 221.4 74.25 
L 208.8 74.25 
L 208.8 69.93 
" clip-path="url(#p48b722c375)" style="fill: #0d0887"/>
    <path d="M 221.4 69.93 
L 234 69.93 
L 234 74.25 
L 221.4 74.25 
L 221.4 69.93 
" clip-path="url(#p48b722c375)" style="fill: #0d0887"/>
    <path d="M 234 69.93 
L 246.6 69.93 
L 246.6 74.25 
L 234 74.25 
L 234 69.93 
" clip-path="url(#p48b722c375)" style="fill: #0d0887"/>
    <path d="M 246.6 69.93 
L 259.2 69.93 
L 259.2 74.25 
L 246.6 74.25 
L 246.6 69.93 
" clip-path="url(#p48b722c375)" style="fill: #0d0887"/>
    <path d="M 7.2 74.25 
L 19.8 74.25 
L 19.8 78.57 
L 7.2 78.57 
L 7.2 74.25 
" clip-path="url(#p48b722c375)" style="fill: #0d0887"/>
    <path d="M 19.8 74.25 
L 32.4 74.25 
L 32.4 78.57 
L 19.8 78.57 
L 19.8 74.25 
" clip-path="url(#p48b722c375)" style="fill: #0d0887"/>
    <path d="M 32.4 74.25 
L 45 74.25 
L 45 78.57 
L 32.4 78.57 
L 32.4 74.25 
" clip-path="url(#p48b722c375)" style="fill: #0d0887"/>
    <path d="M 45 74.25 
L 57.6 74.25 
L 57.6 78.57 
L 45 78.57 
L 45 74.25 
" clip-path="url(#p48b722c375)" style="fill: #0d0887"/>
    <path d="M 57.6 74.25 
L 70.2 74.25 
L 70.2 78.57 
L 57.6 78.57 
L 57.6 74.25 
" clip-path="url(#p48b722c375)" style="fill: #350498"/>
    <path d="M 70.2 74.25 
L 82.8 74.25 
L 82.8 78.57 
L 70.2 78.57 
L 70.2 74.25 
" clip-path="url(#p48b722c375)" style="fill: #0d0887"/>
    <path d="M 82.8 74.25 
L 95.4 74.25 
L 95.4 78.57 
L 82.8 78.57 
L 82.8 74.25 
" clip-path="url(#p48b722c375)" style="fill: #38049a"/>
    <path d="M 95.4 74.25 
L 108 74.25 
L 108 78.57 
L 95.4 78.57 
L 95.4 74.25 
" clip-path="url(#p48b722c375)" style="fill: #0d0887"/>
    <path d="M 108 74.25 
L 120.6 74.25 
L 120.6 78.57 
L 108 78.57 
L 108 74.25 
" clip-path="url(#p48b722c375)" style="fill: #0d0887"/>
    <path d="M 120.6 74.25 
L 133.2 74.25 
L 133.2 78.57 
L 120.6 78.57 
L 120.6 74.25 
" clip-path="url(#p48b722c375)" style="fill: #20068f"/>
    <path d="M 133.2 74.25 
L 145.8 74.25 
L 145.8 78.57 
L 133.2 78.57 
L 133.2 74.25 
" clip-path="url(#p48b722c375)" style="fill: #0d0887"/>
    <path d="M 145.8 74.25 
L 158.4 74.25 
L 158.4 78.57 
L 145.8 78.57 
L 145.8 74.25 
" clip-path="url(#p48b722c375)" style="fill: #0d0887"/>
    <path d="M 158.4 74.25 
L 171 74.25 
L 171 78.57 
L 158.4 78.57 
L 158.4 74.25 
" clip-path="url(#p48b722c375)" style="fill: #0d0887"/>
    <path d="M 171 74.25 
L 183.6 74.25 
L 183.6 78.57 
L 171 78.57 
L 171 74.25 
" clip-path="url(#p48b722c375)" style="fill: #0d0887"/>
    <path d="M 183.6 74.25 
L 196.2 74.25 
L 196.2 78.57 
L 183.6 78.57 
L 183.6 74.25 
" clip-path="url(#p48b722c375)" style="fill: #0d0887"/>
    <path d="M 196.2 74.25 
L 208.8 74.25 
L 208.8 78.57 
L 196.2 78.57 
L 196.2 74.25 
" clip-path="url(#p48b722c375)" style="fill: #2e0595"/>
    <path d="M 208.8 74.25 
L 221.4 74.25 
L 221.4 78.57 
L 208.8 78.57 
L 208.8 74.25 
" clip-path="url(#p48b722c375)" style="fill: #0d0887"/>
    <path d="M 221.4 74.25 
L 234 74.25 
L 234 78.57 
L 221.4 78.57 
L 221.4 74.25 
" clip-path="url(#p48b722c375)" style="fill: #0d0887"/>
    <path d="M 234 74.25 
L 246.6 74.25 
L 246.6 78.57 
L 234 78.57 
L 234 74.25 
" clip-path="url(#p48b722c375)" style="fill: #0d0887"/>
    <path d="M 246.6 74.25 
L 259.2 74.25 
L 259.2 78.57 
L 246.6 78.57 
L 246.6 74.25 
" clip-path="url(#p48b722c375)" style="fill: #0d0887"/>
    <path d="M 7.2 78.57 
L 19.8 78.57 
L 19.8 82.89 
L 7.2 82.89 
L 7.2 78.57 
" clip-path="url(#p48b722c375)" style="fill: #0d0887"/>
    <path d="M 19.8 78.57 
L 32.4 78.57 
L 32.4 82.89 
L 19.8 82.89 
L 19.8 78.57 
" clip-path="url(#p48b722c375)" style="fill: #0d0887"/>
    <path d="M 32.4 78.57 
L 45 78.57 
L 45 82.89 
L 32.4 82.89 
L 32.4 78.57 
" clip-path="url(#p48b722c375)" style="fill: #0d0887"/>
    <path d="M 45 78.57 
L 57.6 78.57 
L 57.6 82.89 
L 45 82.89 
L 45 78.57 
" clip-path="url(#p48b722c375)" style="fill: #0d0887"/>
    <path d="M 57.6 78.57 
L 70.2 78.57 
L 70.2 82.89 
L 57.6 82.89 
L 57.6 78.57 
" clip-path="url(#p48b722c375)" style="fill: #350498"/>
    <path d="M 70.2 78.57 
L 82.8 78.57 
L 82.8 82.89 
L 70.2 82.89 
L 70.2 78.57 
" clip-path="url(#p48b722c375)" style="fill: #0d0887"/>
    <path d="M 82.8 78.57 
L 95.4 78.57 
L 95.4 82.89 
L 82.8 82.89 
L 82.8 78.57 
" clip-path="url(#p48b722c375)" style="fill: #38049a"/>
    <path d="M 95.4 78.57 
L 108 78.57 
L 108 82.89 
L 95.4 82.89 
L 95.4 78.57 
" clip-path="url(#p48b722c375)" style="fill: #0d0887"/>
    <path d="M 108 78.57 
L 120.6 78.57 
L 120.6 82.89 
L 108 82.89 
L 108 78.57 
" clip-path="url(#p48b722c375)" style="fill: #0d0887"/>
    <path d="M 120.6 78.57 
L 133.2 78.57 
L 133.2 82.89 
L 120.6 82.89 
L 120.6 78.57 
" clip-path="url(#p48b722c375)" style="fill: #20068f"/>
    <path d="M 133.2 78.57 
L 145.8 78.57 
L 145.8 82.89 
L 133.2 82.89 
L 133.2 78.57 
" clip-path="url(#p48b722c375)" style="fill: #0d0887"/>
    <path d="M 145.8 78.57 
L 158.4 78.57 
L 158.4 82.89 
L 145.8 82.89 
L 145.8 78.57 
" clip-path="url(#p48b722c375)" style="fill: #0d0887"/>
    <path d="M 158.4 78.57 
L 171 78.57 
L 171 82.89 
L 158.4 82.89 
L 158.4 78.57 
" clip-path="url(#p48b722c375)" style="fill: #0d0887"/>
    <path d="M 171 78.57 
L 183.6 78.57 
L 183.6 82.89 
L 171 82.89 
L 171 78.57 
" clip-path="url(#p48b722c375)" style="fill: #0d0887"/>
    <path d="M 183.6 78.57 
L 196.2 78.57 
L 196.2 82.89 
L 183.6 82.89 
L 183.6 78.57 
" clip-path="url(#p48b722c375)" style="fill: #0d0887"/>
    <path d="M 196.2 78.57 
L 208.8 78.57 
L 208.8 82.89 
L 196.2 82.89 
L 196.2 78.57 
" clip-path="url(#p48b722c375)" style="fill: #2e0595"/>
    <path d="M 208.8 78.57 
L 221.4 78.57 
L 221.4 82.89 
L 208.8 82.89 
L 208.8 78.57 
" clip-path="url(#p48b722c375)" style="fill: #0d0887"/>
    <path d="M 221.4 78.57 
L 234 78.57 
L 234 82.89 
L 221.4 82.89 
L 221.4 78.57 
" clip-path="url(#p48b722c375)" style="fill: #0d0887"/>
    <path d="M 234 78.57 
L 246.6 78.57 
L 246.6 82.89 
L 234 82.89 
L 234 78.57 
" clip-path="url(#p48b722c375)" style="fill: #0d0887"/>
    <path d="M 246.6 78.57 
L 259.2 78.57 
L 259.2 82.89 
L 246.6 82.89 
L 246.6 78.57 
" clip-path="url(#p48b722c375)" style="fill: #0d0887"/>
    <path d="M 7.2 82.89 
L 19.8 82.89 
L 19.8 87.21 
L 7.2 87.21 
L 7.2 82.89 
" clip-path="url(#p48b722c375)" style="fill: #0d0887"/>
    <path d="M 19.8 82.89 
L 32.4 82.89 
L 32.4 87.21 
L 19.8 87.21 
L 19.8 82.89 
" clip-path="url(#p48b722c375)" style="fill: #0d0887"/>
    <path d="M 32.4 82.89 
L 45 82.89 
L 45 87.21 
L 32.4 87.21 
L 32.4 82.89 
" clip-path="url(#p48b722c375)" style="fill: #0d0887"/>
    <path d="M 45 82.89 
L 57.6 82.89 
L 57.6 87.21 
L 45 87.21 
L 45 82.89 
" clip-path="url(#p48b722c375)" style="fill: #0d0887"/>
    <path d="M 57.6 82.89 
L 70.2 82.89 
L 70.2 87.21 
L 57.6 87.21 
L 57.6 82.89 
" clip-path="url(#p48b722c375)" style="fill: #0d0887"/>
    <path d="M 70.2 82.89 
L 82.8 82.89 
L 82.8 87.21 
L 70.2 87.21 
L 70.2 82.89 
" clip-path="url(#p48b722c375)" style="fill: #0d0887"/>
    <path d="M 82.8 82.89 
L 95.4 82.89 
L 95.4 87.21 
L 82.8 87.21 
L 82.8 82.89 
" clip-path="url(#p48b722c375)" style="fill: #0d0887"/>
    <path d="M 95.4 82.89 
L 108 82.89 
L 108 87.21 
L 95.4 87.21 
L 95.4 82.89 
" clip-path="url(#p48b722c375)" style="fill: #0d0887"/>
    <path d="M 108 82.89 
L 120.6 82.89 
L 120.6 87.21 
L 108 87.21 
L 108 82.89 
" clip-path="url(#p48b722c375)" style="fill: #0d0887"/>
    <path d="M 120.6 82.89 
L 133.2 82.89 
L 133.2 87.21 
L 120.6 87.21 
L 120.6 82.89 
" clip-path="url(#p48b722c375)" style="fill: #4b03a1"/>
    <path d="M 133.2 82.89 
L 145.8 82.89 
L 145.8 87.21 
L 133.2 87.21 
L 133.2 82.89 
" clip-path="url(#p48b722c375)" style="fill: #0d0887"/>
    <path d="M 145.8 82.89 
L 158.4 82.89 
L 158.4 87.21 
L 145.8 87.21 
L 145.8 82.89 
" clip-path="url(#p48b722c375)" style="fill: #0d0887"/>
    <path d="M 158.4 82.89 
L 171 82.89 
L 171 87.21 
L 158.4 87.21 
L 158.4 82.89 
" clip-path="url(#p48b722c375)" style="fill: #0d0887"/>
    <path d="M 171 82.89 
L 183.6 82.89 
L 183.6 87.21 
L 171 87.21 
L 171 82.89 
" clip-path="url(#p48b722c375)" style="fill: #0d0887"/>
    <path d="M 183.6 82.89 
L 196.2 82.89 
L 196.2 87.21 
L 183.6 87.21 
L 183.6 82.89 
" clip-path="url(#p48b722c375)" style="fill: #0d0887"/>
    <path d="M 196.2 82.89 
L 208.8 82.89 
L 208.8 87.21 
L 196.2 87.21 
L 196.2 82.89 
" clip-path="url(#p48b722c375)" style="fill: #0d0887"/>
    <path d="M 208.8 82.89 
L 221.4 82.89 
L 221.4 87.21 
L 208.8 87.21 
L 208.8 82.89 
" clip-path="url(#p48b722c375)" style="fill: #0d0887"/>
    <path d="M 221.4 82.89 
L 234 82.89 
L 234 87.21 
L 221.4 87.21 
L 221.4 82.89 
" clip-path="url(#p48b722c375)" style="fill: #0d0887"/>
    <path d="M 234 82.89 
L 246.6 82.89 
L 246.6 87.21 
L 234 87.21 
L 234 82.89 
" clip-path="url(#p48b722c375)" style="fill: #0d0887"/>
    <path d="M 246.6 82.89 
L 259.2 82.89 
L 259.2 87.21 
L 246.6 87.21 
L 246.6 82.89 
" clip-path="url(#p48b722c375)" style="fill: #0d0887"/>
    <path d="M 7.2 87.21 
L 19.8 87.21 
L 19.8 91.53 
L 7.2 91.53 
L 7.2 87.21 
" clip-path="url(#p48b722c375)" style="fill: #0d0887"/>
    <path d="M 19.8 87.21 
L 32.4 87.21 
L 32.4 91.53 
L 19.8 91.53 
L 19.8 87.21 
" clip-path="url(#p48b722c375)" style="fill: #0d0887"/>
    <path d="M 32.4 87.21 
L 45 87.21 
L 45 91.53 
L 32.4 91.53 
L 32.4 87.21 
" clip-path="url(#p48b722c375)" style="fill: #0d0887"/>
    <path d="M 45 87.21 
L 57.6 87.21 
L 57.6 91.53 
L 45 91.53 
L 45 87.21 
" clip-path="url(#p48b722c375)" style="fill: #0d0887"/>
    <path d="M 57.6 87.21 
L 70.2 87.21 
L 70.2 91.53 
L 57.6 91.53 
L 57.6 87.21 
" clip-path="url(#p48b722c375)" style="fill: #0d0887"/>
    <path d="M 70.2 87.21 
L 82.8 87.21 
L 82.8 91.53 
L 70.2 91.53 
L 70.2 87.21 
" clip-path="url(#p48b722c375)" style="fill: #0d0887"/>
    <path d="M 82.8 87.21 
L 95.4 87.21 
L 95.4 91.53 
L 82.8 91.53 
L 82.8 87.21 
" clip-path="url(#p48b722c375)" style="fill: #0d0887"/>
    <path d="M 95.4 87.21 
L 108 87.21 
L 108 91.53 
L 95.4 91.53 
L 95.4 87.21 
" clip-path="url(#p48b722c375)" style="fill: #0d0887"/>
    <path d="M 108 87.21 
L 120.6 87.21 
L 120.6 91.53 
L 108 91.53 
L 108 87.21 
" clip-path="url(#p48b722c375)" style="fill: #0d0887"/>
    <path d="M 120.6 87.21 
L 133.2 87.21 
L 133.2 91.53 
L 120.6 91.53 
L 120.6 87.21 
" clip-path="url(#p48b722c375)" style="fill: #4b03a1"/>
    <path d="M 133.2 87.21 
L 145.8 87.21 
L 145.8 91.53 
L 133.2 91.53 
L 133.2 87.21 
" clip-path="url(#p48b722c375)" style="fill: #0d0887"/>
    <path d="M 145.8 87.21 
L 158.4 87.21 
L 158.4 91.53 
L 145.8 91.53 
L 145.8 87.21 
" clip-path="url(#p48b722c375)" style="fill: #0d0887"/>
    <path d="M 158.4 87.21 
L 171 87.21 
L 171 91.53 
L 158.4 91.53 
L 158.4 87.21 
" clip-path="url(#p48b722c375)" style="fill: #0d0887"/>
    <path d="M 171 87.21 
L 183.6 87.21 
L 183.6 91.53 
L 171 91.53 
L 171 87.21 
" clip-path="url(#p48b722c375)" style="fill: #0d0887"/>
    <path d="M 183.6 87.21 
L 196.2 87.21 
L 196.2 91.53 
L 183.6 91.53 
L 183.6 87.21 
" clip-path="url(#p48b722c375)" style="fill: #0d0887"/>
    <path d="M 196.2 87.21 
L 208.8 87.21 
L 208.8 91.53 
L 196.2 91.53 
L 196.2 87.21 
" clip-path="url(#p48b722c375)" style="fill: #0d0887"/>
    <path d="M 208.8 87.21 
L 221.4 87.21 
L 221.4 91.53 
L 208.8 91.53 
L 208.8 87.21 
" clip-path="url(#p48b722c375)" style="fill: #0d0887"/>
    <path d="M 221.4 87.21 
L 234 87.21 
L 234 91.53 
L 221.4 91.53 
L 221.4 87.21 
" clip-path="url(#p48b722c375)" style="fill: #0d0887"/>
    <path d="M 234 87.21 
L 246.6 87.21 
L 246.6 91.53 
L 234 91.53 
L 234 87.21 
" clip-path="url(#p48b722c375)" style="fill: #0d0887"/>
    <path d="M 246.6 87.21 
L 259.2 87.21 
L 259.2 91.53 
L 246.6 91.53 
L 246.6 87.21 
" clip-path="url(#p48b722c375)" style="fill: #0d0887"/>
    <path d="M 7.2 91.53 
L 19.8 91.53 
L 19.8 95.85 
L 7.2 95.85 
L 7.2 91.53 
" clip-path="url(#p48b722c375)" style="fill: #0d0887"/>
    <path d="M 19.8 91.53 
L 32.4 91.53 
L 32.4 95.85 
L 19.8 95.85 
L 19.8 91.53 
" clip-path="url(#p48b722c375)" style="fill: #0d0887"/>
    <path d="M 32.4 91.53 
L 45 91.53 
L 45 95.85 
L 32.4 95.85 
L 32.4 91.53 
" clip-path="url(#p48b722c375)" style="fill: #0d0887"/>
    <path d="M 45 91.53 
L 57.6 91.53 
L 57.6 95.85 
L 45 95.85 
L 45 91.53 
" clip-path="url(#p48b722c375)" style="fill: #0d0887"/>
    <path d="M 57.6 91.53 
L 70.2 91.53 
L 70.2 95.85 
L 57.6 95.85 
L 57.6 91.53 
" clip-path="url(#p48b722c375)" style="fill: #0d0887"/>
    <path d="M 70.2 91.53 
L 82.8 91.53 
L 82.8 95.85 
L 70.2 95.85 
L 70.2 91.53 
" clip-path="url(#p48b722c375)" style="fill: #0d0887"/>
    <path d="M 82.8 91.53 
L 95.4 91.53 
L 95.4 95.85 
L 82.8 95.85 
L 82.8 91.53 
" clip-path="url(#p48b722c375)" style="fill: #0d0887"/>
    <path d="M 95.4 91.53 
L 108 91.53 
L 108 95.85 
L 95.4 95.85 
L 95.4 91.53 
" clip-path="url(#p48b722c375)" style="fill: #0d0887"/>
    <path d="M 108 91.53 
L 120.6 91.53 
L 120.6 95.85 
L 108 95.85 
L 108 91.53 
" clip-path="url(#p48b722c375)" style="fill: #0d0887"/>
    <path d="M 120.6 91.53 
L 133.2 91.53 
L 133.2 95.85 
L 120.6 95.85 
L 120.6 91.53 
" clip-path="url(#p48b722c375)" style="fill: #0d0887"/>
    <path d="M 133.2 91.53 
L 145.8 91.53 
L 145.8 95.85 
L 133.2 95.85 
L 133.2 91.53 
" clip-path="url(#p48b722c375)" style="fill: #0d0887"/>
    <path d="M 145.8 91.53 
L 158.4 91.53 
L 158.4 95.85 
L 145.8 95.85 
L 145.8 91.53 
" clip-path="url(#p48b722c375)" style="fill: #0d0887"/>
    <path d="M 158.4 91.53 
L 171 91.53 
L 171 95.85 
L 158.4 95.85 
L 158.4 91.53 
" clip-path="url(#p48b722c375)" style="fill: #0d0887"/>
    <path d="M 171 91.53 
L 183.6 91.53 
L 183.6 95.85 
L 171 95.85 
L 171 91.53 
" clip-path="url(#p48b722c375)" style="fill: #0d0887"/>
    <path d="M 183.6 91.53 
L 196.2 91.53 
L 196.2 95.85 
L 183.6 95.85 
L 183.6 91.53 
" clip-path="url(#p48b722c375)" style="fill: #0d0887"/>
    <path d="M 196.2 91.53 
L 208.8 91.53 
L 208.8 95.85 
L 196.2 95.85 
L 196.2 91.53 
" clip-path="url(#p48b722c375)" style="fill: #0d0887"/>
    <path d="M 208.8 91.53 
L 221.4 91.53 
L 221.4 95.85 
L 208.8 95.85 
L 208.8 91.53 
" clip-path="url(#p48b722c375)" style="fill: #0d0887"/>
    <path d="M 221.4 91.53 
L 234 91.53 
L 234 95.85 
L 221.4 95.85 
L 221.4 91.53 
" clip-path="url(#p48b722c375)" style="fill: #0d0887"/>
    <path d="M 234 91.53 
L 246.6 91.53 
L 246.6 95.85 
L 234 95.85 
L 234 91.53 
" clip-path="url(#p48b722c375)" style="fill: #0d0887"/>
    <path d="M 246.6 91.53 
L 259.2 91.53 
L 259.2 95.85 
L 246.6 95.85 
L 246.6 91.53 
" clip-path="url(#p48b722c375)" style="fill: #0d0887"/>
    <path d="M 7.2 95.85 
L 19.8 95.85 
L 19.8 100.17 
L 7.2 100.17 
L 7.2 95.85 
" clip-path="url(#p48b722c375)" style="fill: #0d0887"/>
    <path d="M 19.8 95.85 
L 32.4 95.85 
L 32.4 100.17 
L 19.8 100.17 
L 19.8 95.85 
" clip-path="url(#p48b722c375)" style="fill: #0d0887"/>
    <path d="M 32.4 95.85 
L 45 95.85 
L 45 100.17 
L 32.4 100.17 
L 32.4 95.85 
" clip-path="url(#p48b722c375)" style="fill: #0d0887"/>
    <path d="M 45 95.85 
L 57.6 95.85 
L 57.6 100.17 
L 45 100.17 
L 45 95.85 
" clip-path="url(#p48b722c375)" style="fill: #0d0887"/>
    <path d="M 57.6 95.85 
L 70.2 95.85 
L 70.2 100.17 
L 57.6 100.17 
L 57.6 95.85 
" clip-path="url(#p48b722c375)" style="fill: #0d0887"/>
    <path d="M 70.2 95.85 
L 82.8 95.85 
L 82.8 100.17 
L 70.2 100.17 
L 70.2 95.85 
" clip-path="url(#p48b722c375)" style="fill: #0d0887"/>
    <path d="M 82.8 95.85 
L 95.4 95.85 
L 95.4 100.17 
L 82.8 100.17 
L 82.8 95.85 
" clip-path="url(#p48b722c375)" style="fill: #0d0887"/>
    <path d="M 95.4 95.85 
L 108 95.85 
L 108 100.17 
L 95.4 100.17 
L 95.4 95.85 
" clip-path="url(#p48b722c375)" style="fill: #0d0887"/>
    <path d="M 108 95.85 
L 120.6 95.85 
L 120.6 100.17 
L 108 100.17 
L 108 95.85 
" clip-path="url(#p48b722c375)" style="fill: #0d0887"/>
    <path d="M 120.6 95.85 
L 133.2 95.85 
L 133.2 100.17 
L 120.6 100.17 
L 120.6 95.85 
" clip-path="url(#p48b722c375)" style="fill: #0d0887"/>
    <path d="M 133.2 95.85 
L 145.8 95.85 
L 145.8 100.17 
L 133.2 100.17 
L 133.2 95.85 
" clip-path="url(#p48b722c375)" style="fill: #0d0887"/>
    <path d="M 145.8 95.85 
L 158.4 95.85 
L 158.4 100.17 
L 145.8 100.17 
L 145.8 95.85 
" clip-path="url(#p48b722c375)" style="fill: #0d0887"/>
    <path d="M 158.4 95.85 
L 171 95.85 
L 171 100.17 
L 158.4 100.17 
L 158.4 95.85 
" clip-path="url(#p48b722c375)" style="fill: #0d0887"/>
    <path d="M 171 95.85 
L 183.6 95.85 
L 183.6 100.17 
L 171 100.17 
L 171 95.85 
" clip-path="url(#p48b722c375)" style="fill: #0d0887"/>
    <path d="M 183.6 95.85 
L 196.2 95.85 
L 196.2 100.17 
L 183.6 100.17 
L 183.6 95.85 
" clip-path="url(#p48b722c375)" style="fill: #0d0887"/>
    <path d="M 196.2 95.85 
L 208.8 95.85 
L 208.8 100.17 
L 196.2 100.17 
L 196.2 95.85 
" clip-path="url(#p48b722c375)" style="fill: #0d0887"/>
    <path d="M 208.8 95.85 
L 221.4 95.85 
L 221.4 100.17 
L 208.8 100.17 
L 208.8 95.85 
" clip-path="url(#p48b722c375)" style="fill: #0d0887"/>
    <path d="M 221.4 95.85 
L 234 95.85 
L 234 100.17 
L 221.4 100.17 
L 221.4 95.85 
" clip-path="url(#p48b722c375)" style="fill: #0d0887"/>
    <path d="M 234 95.85 
L 246.6 95.85 
L 246.6 100.17 
L 234 100.17 
L 234 95.85 
" clip-path="url(#p48b722c375)" style="fill: #0d0887"/>
    <path d="M 246.6 95.85 
L 259.2 95.85 
L 259.2 100.17 
L 246.6 100.17 
L 246.6 95.85 
" clip-path="url(#p48b722c375)" style="fill: #0d0887"/>
    <path d="M 7.2 100.17 
L 19.8 100.17 
L 19.8 104.49 
L 7.2 104.49 
L 7.2 100.17 
" clip-path="url(#p48b722c375)" style="fill: #0d0887"/>
    <path d="M 19.8 100.17 
L 32.4 100.17 
L 32.4 104.49 
L 19.8 104.49 
L 19.8 100.17 
" clip-path="url(#p48b722c375)" style="fill: #0d0887"/>
    <path d="M 32.4 100.17 
L 45 100.17 
L 45 104.49 
L 32.4 104.49 
L 32.4 100.17 
" clip-path="url(#p48b722c375)" style="fill: #0d0887"/>
    <path d="M 45 100.17 
L 57.6 100.17 
L 57.6 104.49 
L 45 104.49 
L 45 100.17 
" clip-path="url(#p48b722c375)" style="fill: #0d0887"/>
    <path d="M 57.6 100.17 
L 70.2 100.17 
L 70.2 104.49 
L 57.6 104.49 
L 57.6 100.17 
" clip-path="url(#p48b722c375)" style="fill: #0d0887"/>
    <path d="M 70.2 100.17 
L 82.8 100.17 
L 82.8 104.49 
L 70.2 104.49 
L 70.2 100.17 
" clip-path="url(#p48b722c375)" style="fill: #0d0887"/>
    <path d="M 82.8 100.17 
L 95.4 100.17 
L 95.4 104.49 
L 82.8 104.49 
L 82.8 100.17 
" clip-path="url(#p48b722c375)" style="fill: #0d0887"/>
    <path d="M 95.4 100.17 
L 108 100.17 
L 108 104.49 
L 95.4 104.49 
L 95.4 100.17 
" clip-path="url(#p48b722c375)" style="fill: #0d0887"/>
    <path d="M 108 100.17 
L 120.6 100.17 
L 120.6 104.49 
L 108 104.49 
L 108 100.17 
" clip-path="url(#p48b722c375)" style="fill: #0d0887"/>
    <path d="M 120.6 100.17 
L 133.2 100.17 
L 133.2 104.49 
L 120.6 104.49 
L 120.6 100.17 
" clip-path="url(#p48b722c375)" style="fill: #0d0887"/>
    <path d="M 133.2 100.17 
L 145.8 100.17 
L 145.8 104.49 
L 133.2 104.49 
L 133.2 100.17 
" clip-path="url(#p48b722c375)" style="fill: #0d0887"/>
    <path d="M 145.8 100.17 
L 158.4 100.17 
L 158.4 104.49 
L 145.8 104.49 
L 145.8 100.17 
" clip-path="url(#p48b722c375)" style="fill: #0d0887"/>
    <path d="M 158.4 100.17 
L 171 100.17 
L 171 104.49 
L 158.4 104.49 
L 158.4 100.17 
" clip-path="url(#p48b722c375)" style="fill: #0d0887"/>
    <path d="M 171 100.17 
L 183.6 100.17 
L 183.6 104.49 
L 171 104.49 
L 171 100.17 
" clip-path="url(#p48b722c375)" style="fill: #0d0887"/>
    <path d="M 183.6 100.17 
L 196.2 100.17 
L 196.2 104.49 
L 183.6 104.49 
L 183.6 100.17 
" clip-path="url(#p48b722c375)" style="fill: #0d0887"/>
    <path d="M 196.2 100.17 
L 208.8 100.17 
L 208.8 104.49 
L 196.2 104.49 
L 196.2 100.17 
" clip-path="url(#p48b722c375)" style="fill: #0d0887"/>
    <path d="M 208.8 100.17 
L 221.4 100.17 
L 221.4 104.49 
L 208.8 104.49 
L 208.8 100.17 
" clip-path="url(#p48b722c375)" style="fill: #0d0887"/>
    <path d="M 221.4 100.17 
L 234 100.17 
L 234 104.49 
L 221.4 104.49 
L 221.4 100.17 
" clip-path="url(#p48b722c375)" style="fill: #0d0887"/>
    <path d="M 234 100.17 
L 246.6 100.17 
L 246.6 104.49 
L 234 104.49 
L 234 100.17 
" clip-path="url(#p48b722c375)" style="fill: #0d0887"/>
    <path d="M 246.6 100.17 
L 259.2 100.17 
L 259.2 104.49 
L 246.6 104.49 
L 246.6 100.17 
" clip-path="url(#p48b722c375)" style="fill: #0d0887"/>
    <path d="M 7.2 104.49 
L 19.8 104.49 
L 19.8 108.81 
L 7.2 108.81 
L 7.2 104.49 
" clip-path="url(#p48b722c375)" style="fill: #0d0887"/>
    <path d="M 19.8 104.49 
L 32.4 104.49 
L 32.4 108.81 
L 19.8 108.81 
L 19.8 104.49 
" clip-path="url(#p48b722c375)" style="fill: #0d0887"/>
    <path d="M 32.4 104.49 
L 45 104.49 
L 45 108.81 
L 32.4 108.81 
L 32.4 104.49 
" clip-path="url(#p48b722c375)" style="fill: #0d0887"/>
    <path d="M 45 104.49 
L 57.6 104.49 
L 57.6 108.81 
L 45 108.81 
L 45 104.49 
" clip-path="url(#p48b722c375)" style="fill: #0d0887"/>
    <path d="M 57.6 104.49 
L 70.2 104.49 
L 70.2 108.81 
L 57.6 108.81 
L 57.6 104.49 
" clip-path="url(#p48b722c375)" style="fill: #0d0887"/>
    <path d="M 70.2 104.49 
L 82.8 104.49 
L 82.8 108.81 
L 70.2 108.81 
L 70.2 104.49 
" clip-path="url(#p48b722c375)" style="fill: #0d0887"/>
    <path d="M 82.8 104.49 
L 95.4 104.49 
L 95.4 108.81 
L 82.8 108.81 
L 82.8 104.49 
" clip-path="url(#p48b722c375)" style="fill: #0d0887"/>
    <path d="M 95.4 104.49 
L 108 104.49 
L 108 108.81 
L 95.4 108.81 
L 95.4 104.49 
" clip-path="url(#p48b722c375)" style="fill: #0d0887"/>
    <path d="M 108 104.49 
L 120.6 104.49 
L 120.6 108.81 
L 108 108.81 
L 108 104.49 
" clip-path="url(#p48b722c375)" style="fill: #0d0887"/>
    <path d="M 120.6 104.49 
L 133.2 104.49 
L 133.2 108.81 
L 120.6 108.81 
L 120.6 104.49 
" clip-path="url(#p48b722c375)" style="fill: #0d0887"/>
    <path d="M 133.2 104.49 
L 145.8 104.49 
L 145.8 108.81 
L 133.2 108.81 
L 133.2 104.49 
" clip-path="url(#p48b722c375)" style="fill: #0d0887"/>
    <path d="M 145.8 104.49 
L 158.4 104.49 
L 158.4 108.81 
L 145.8 108.81 
L 145.8 104.49 
" clip-path="url(#p48b722c375)" style="fill: #0d0887"/>
    <path d="M 158.4 104.49 
L 171 104.49 
L 171 108.81 
L 158.4 108.81 
L 158.4 104.49 
" clip-path="url(#p48b722c375)" style="fill: #0d0887"/>
    <path d="M 171 104.49 
L 183.6 104.49 
L 183.6 108.81 
L 171 108.81 
L 171 104.49 
" clip-path="url(#p48b722c375)" style="fill: #0d0887"/>
    <path d="M 183.6 104.49 
L 196.2 104.49 
L 196.2 108.81 
L 183.6 108.81 
L 183.6 104.49 
" clip-path="url(#p48b722c375)" style="fill: #0d0887"/>
    <path d="M 196.2 104.49 
L 208.8 104.49 
L 208.8 108.81 
L 196.2 108.81 
L 196.2 104.49 
" clip-path="url(#p48b722c375)" style="fill: #0d0887"/>
    <path d="M 208.8 104.49 
L 221.4 104.49 
L 221.4 108.81 
L 208.8 108.81 
L 208.8 104.49 
" clip-path="url(#p48b722c375)" style="fill: #0d0887"/>
    <path d="M 221.4 104.49 
L 234 104.49 
L 234 108.81 
L 221.4 108.81 
L 221.4 104.49 
" clip-path="url(#p48b722c375)" style="fill: #0d0887"/>
    <path d="M 234 104.49 
L 246.6 104.49 
L 246.6 108.81 
L 234 108.81 
L 234 104.49 
" clip-path="url(#p48b722c375)" style="fill: #0d0887"/>
    <path d="M 246.6 104.49 
L 259.2 104.49 
L 259.2 108.81 
L 246.6 108.81 
L 246.6 104.49 
" clip-path="url(#p48b722c375)" style="fill: #0d0887"/>
    <path d="M 7.2 108.81 
L 19.8 108.81 
L 19.8 113.13 
L 7.2 113.13 
L 7.2 108.81 
" clip-path="url(#p48b722c375)" style="fill: #0d0887"/>
    <path d="M 19.8 108.81 
L 32.4 108.81 
L 32.4 113.13 
L 19.8 113.13 
L 19.8 108.81 
" clip-path="url(#p48b722c375)" style="fill: #0d0887"/>
    <path d="M 32.4 108.81 
L 45 108.81 
L 45 113.13 
L 32.4 113.13 
L 32.4 108.81 
" clip-path="url(#p48b722c375)" style="fill: #0d0887"/>
    <path d="M 45 108.81 
L 57.6 108.81 
L 57.6 113.13 
L 45 113.13 
L 45 108.81 
" clip-path="url(#p48b722c375)" style="fill: #0d0887"/>
    <path d="M 57.6 108.81 
L 70.2 108.81 
L 70.2 113.13 
L 57.6 113.13 
L 57.6 108.81 
" clip-path="url(#p48b722c375)" style="fill: #0d0887"/>
    <path d="M 70.2 108.81 
L 82.8 108.81 
L 82.8 113.13 
L 70.2 113.13 
L 70.2 108.81 
" clip-path="url(#p48b722c375)" style="fill: #0d0887"/>
    <path d="M 82.8 108.81 
L 95.4 108.81 
L 95.4 113.13 
L 82.8 113.13 
L 82.8 108.81 
" clip-path="url(#p48b722c375)" style="fill: #0d0887"/>
    <path d="M 95.4 108.81 
L 108 108.81 
L 108 113.13 
L 95.4 113.13 
L 95.4 108.81 
" clip-path="url(#p48b722c375)" style="fill: #0d0887"/>
    <path d="M 108 108.81 
L 120.6 108.81 
L 120.6 113.13 
L 108 113.13 
L 108 108.81 
" clip-path="url(#p48b722c375)" style="fill: #0d0887"/>
    <path d="M 120.6 108.81 
L 133.2 108.81 
L 133.2 113.13 
L 120.6 113.13 
L 120.6 108.81 
" clip-path="url(#p48b722c375)" style="fill: #0d0887"/>
    <path d="M 133.2 108.81 
L 145.8 108.81 
L 145.8 113.13 
L 133.2 113.13 
L 133.2 108.81 
" clip-path="url(#p48b722c375)" style="fill: #0d0887"/>
    <path d="M 145.8 108.81 
L 158.4 108.81 
L 158.4 113.13 
L 145.8 113.13 
L 145.8 108.81 
" clip-path="url(#p48b722c375)" style="fill: #0d0887"/>
    <path d="M 158.4 108.81 
L 171 108.81 
L 171 113.13 
L 158.4 113.13 
L 158.4 108.81 
" clip-path="url(#p48b722c375)" style="fill: #0d0887"/>
    <path d="M 171 108.81 
L 183.6 108.81 
L 183.6 113.13 
L 171 113.13 
L 171 108.81 
" clip-path="url(#p48b722c375)" style="fill: #0d0887"/>
    <path d="M 183.6 108.81 
L 196.2 108.81 
L 196.2 113.13 
L 183.6 113.13 
L 183.6 108.81 
" clip-path="url(#p48b722c375)" style="fill: #0d0887"/>
    <path d="M 196.2 108.81 
L 208.8 108.81 
L 208.8 113.13 
L 196.2 113.13 
L 196.2 108.81 
" clip-path="url(#p48b722c375)" style="fill: #0d0887"/>
    <path d="M 208.8 108.81 
L 221.4 108.81 
L 221.4 113.13 
L 208.8 113.13 
L 208.8 108.81 
" clip-path="url(#p48b722c375)" style="fill: #0d0887"/>
    <path d="M 221.4 108.81 
L 234 108.81 
L 234 113.13 
L 221.4 113.13 
L 221.4 108.81 
" clip-path="url(#p48b722c375)" style="fill: #0d0887"/>
    <path d="M 234 108.81 
L 246.6 108.81 
L 246.6 113.13 
L 234 113.13 
L 234 108.81 
" clip-path="url(#p48b722c375)" style="fill: #0d0887"/>
    <path d="M 246.6 108.81 
L 259.2 108.81 
L 259.2 113.13 
L 246.6 113.13 
L 246.6 108.81 
" clip-path="url(#p48b722c375)" style="fill: #0d0887"/>
    <path d="M 7.2 113.13 
L 19.8 113.13 
L 19.8 117.45 
L 7.2 117.45 
L 7.2 113.13 
" clip-path="url(#p48b722c375)" style="fill: #0d0887"/>
    <path d="M 19.8 113.13 
L 32.4 113.13 
L 32.4 117.45 
L 19.8 117.45 
L 19.8 113.13 
" clip-path="url(#p48b722c375)" style="fill: #0d0887"/>
    <path d="M 32.4 113.13 
L 45 113.13 
L 45 117.45 
L 32.4 117.45 
L 32.4 113.13 
" clip-path="url(#p48b722c375)" style="fill: #0d0887"/>
    <path d="M 45 113.13 
L 57.6 113.13 
L 57.6 117.45 
L 45 117.45 
L 45 113.13 
" clip-path="url(#p48b722c375)" style="fill: #0d0887"/>
    <path d="M 57.6 113.13 
L 70.2 113.13 
L 70.2 117.45 
L 57.6 117.45 
L 57.6 113.13 
" clip-path="url(#p48b722c375)" style="fill: #0d0887"/>
    <path d="M 70.2 113.13 
L 82.8 113.13 
L 82.8 117.45 
L 70.2 117.45 
L 70.2 113.13 
" clip-path="url(#p48b722c375)" style="fill: #0d0887"/>
    <path d="M 82.8 113.13 
L 95.4 113.13 
L 95.4 117.45 
L 82.8 117.45 
L 82.8 113.13 
" clip-path="url(#p48b722c375)" style="fill: #0d0887"/>
    <path d="M 95.4 113.13 
L 108 113.13 
L 108 117.45 
L 95.4 117.45 
L 95.4 113.13 
" clip-path="url(#p48b722c375)" style="fill: #0d0887"/>
    <path d="M 108 113.13 
L 120.6 113.13 
L 120.6 117.45 
L 108 117.45 
L 108 113.13 
" clip-path="url(#p48b722c375)" style="fill: #0d0887"/>
    <path d="M 120.6 113.13 
L 133.2 113.13 
L 133.2 117.45 
L 120.6 117.45 
L 120.6 113.13 
" clip-path="url(#p48b722c375)" style="fill: #0d0887"/>
    <path d="M 133.2 113.13 
L 145.8 113.13 
L 145.8 117.45 
L 133.2 117.45 
L 133.2 113.13 
" clip-path="url(#p48b722c375)" style="fill: #0d0887"/>
    <path d="M 145.8 113.13 
L 158.4 113.13 
L 158.4 117.45 
L 145.8 117.45 
L 145.8 113.13 
" clip-path="url(#p48b722c375)" style="fill: #0d0887"/>
    <path d="M 158.4 113.13 
L 171 113.13 
L 171 117.45 
L 158.4 117.45 
L 158.4 113.13 
" clip-path="url(#p48b722c375)" style="fill: #0d0887"/>
    <path d="M 171 113.13 
L 183.6 113.13 
L 183.6 117.45 
L 171 117.45 
L 171 113.13 
" clip-path="url(#p48b722c375)" style="fill: #0d0887"/>
    <path d="M 183.6 113.13 
L 196.2 113.13 
L 196.2 117.45 
L 183.6 117.45 
L 183.6 113.13 
" clip-path="url(#p48b722c375)" style="fill: #0d0887"/>
    <path d="M 196.2 113.13 
L 208.8 113.13 
L 208.8 117.45 
L 196.2 117.45 
L 196.2 113.13 
" clip-path="url(#p48b722c375)" style="fill: #0d0887"/>
    <path d="M 208.8 113.13 
L 221.4 113.13 
L 221.4 117.45 
L 208.8 117.45 
L 208.8 113.13 
" clip-path="url(#p48b722c375)" style="fill: #0d0887"/>
    <path d="M 221.4 113.13 
L 234 113.13 
L 234 117.45 
L 221.4 117.45 
L 221.4 113.13 
" clip-path="url(#p48b722c375)" style="fill: #0d0887"/>
    <path d="M 234 113.13 
L 246.6 113.13 
L 246.6 117.45 
L 234 117.45 
L 234 113.13 
" clip-path="url(#p48b722c375)" style="fill: #0d0887"/>
    <path d="M 246.6 113.13 
L 259.2 113.13 
L 259.2 117.45 
L 246.6 117.45 
L 246.6 113.13 
" clip-path="url(#p48b722c375)" style="fill: #0d0887"/>
    <path d="M 7.2 117.45 
L 19.8 117.45 
L 19.8 121.77 
L 7.2 121.77 
L 7.2 117.45 
" clip-path="url(#p48b722c375)" style="fill: #0d0887"/>
    <path d="M 19.8 117.45 
L 32.4 117.45 
L 32.4 121.77 
L 19.8 121.77 
L 19.8 117.45 
" clip-path="url(#p48b722c375)" style="fill: #0d0887"/>
    <path d="M 32.4 117.45 
L 45 117.45 
L 45 121.77 
L 32.4 121.77 
L 32.4 117.45 
" clip-path="url(#p48b722c375)" style="fill: #0d0887"/>
    <path d="M 45 117.45 
L 57.6 117.45 
L 57.6 121.77 
L 45 121.77 
L 45 117.45 
" clip-path="url(#p48b722c375)" style="fill: #0d0887"/>
    <path d="M 57.6 117.45 
L 70.2 117.45 
L 70.2 121.77 
L 57.6 121.77 
L 57.6 117.45 
" clip-path="url(#p48b722c375)" style="fill: #0d0887"/>
    <path d="M 70.2 117.45 
L 82.8 117.45 
L 82.8 121.77 
L 70.2 121.77 
L 70.2 117.45 
" clip-path="url(#p48b722c375)" style="fill: #0d0887"/>
    <path d="M 82.8 117.45 
L 95.4 117.45 
L 95.4 121.77 
L 82.8 121.77 
L 82.8 117.45 
" clip-path="url(#p48b722c375)" style="fill: #0d0887"/>
    <path d="M 95.4 117.45 
L 108 117.45 
L 108 121.77 
L 95.4 121.77 
L 95.4 117.45 
" clip-path="url(#p48b722c375)" style="fill: #0d0887"/>
    <path d="M 108 117.45 
L 120.6 117.45 
L 120.6 121.77 
L 108 121.77 
L 108 117.45 
" clip-path="url(#p48b722c375)" style="fill: #0d0887"/>
    <path d="M 120.6 117.45 
L 133.2 117.45 
L 133.2 121.77 
L 120.6 121.77 
L 120.6 117.45 
" clip-path="url(#p48b722c375)" style="fill: #0d0887"/>
    <path d="M 133.2 117.45 
L 145.8 117.45 
L 145.8 121.77 
L 133.2 121.77 
L 133.2 117.45 
" clip-path="url(#p48b722c375)" style="fill: #0d0887"/>
    <path d="M 145.8 117.45 
L 158.4 117.45 
L 158.4 121.77 
L 145.8 121.77 
L 145.8 117.45 
" clip-path="url(#p48b722c375)" style="fill: #0d0887"/>
    <path d="M 158.4 117.45 
L 171 117.45 
L 171 121.77 
L 158.4 121.77 
L 158.4 117.45 
" clip-path="url(#p48b722c375)" style="fill: #43039e"/>
    <path d="M 171 117.45 
L 183.6 117.45 
L 183.6 121.77 
L 171 121.77 
L 171 117.45 
" clip-path="url(#p48b722c375)" style="fill: #0d0887"/>
    <path d="M 183.6 117.45 
L 196.2 117.45 
L 196.2 121.77 
L 183.6 121.77 
L 183.6 117.45 
" clip-path="url(#p48b722c375)" style="fill: #0d0887"/>
    <path d="M 196.2 117.45 
L 208.8 117.45 
L 208.8 121.77 
L 196.2 121.77 
L 196.2 117.45 
" clip-path="url(#p48b722c375)" style="fill: #0d0887"/>
    <path d="M 208.8 117.45 
L 221.4 117.45 
L 221.4 121.77 
L 208.8 121.77 
L 208.8 117.45 
" clip-path="url(#p48b722c375)" style="fill: #0d0887"/>
    <path d="M 221.4 117.45 
L 234 117.45 
L 234 121.77 
L 221.4 121.77 
L 221.4 117.45 
" clip-path="url(#p48b722c375)" style="fill: #0d0887"/>
    <path d="M 234 117.45 
L 246.6 117.45 
L 246.6 121.77 
L 234 121.77 
L 234 117.45 
" clip-path="url(#p48b722c375)" style="fill: #0d0887"/>
    <path d="M 246.6 117.45 
L 259.2 117.45 
L 259.2 121.77 
L 246.6 121.77 
L 246.6 117.45 
" clip-path="url(#p48b722c375)" style="fill: #0d0887"/>
    <path d="M 7.2 121.77 
L 19.8 121.77 
L 19.8 126.09 
L 7.2 126.09 
L 7.2 121.77 
" clip-path="url(#p48b722c375)" style="fill: #0d0887"/>
    <path d="M 19.8 121.77 
L 32.4 121.77 
L 32.4 126.09 
L 19.8 126.09 
L 19.8 121.77 
" clip-path="url(#p48b722c375)" style="fill: #0d0887"/>
    <path d="M 32.4 121.77 
L 45 121.77 
L 45 126.09 
L 32.4 126.09 
L 32.4 121.77 
" clip-path="url(#p48b722c375)" style="fill: #0d0887"/>
    <path d="M 45 121.77 
L 57.6 121.77 
L 57.6 126.09 
L 45 126.09 
L 45 121.77 
" clip-path="url(#p48b722c375)" style="fill: #0d0887"/>
    <path d="M 57.6 121.77 
L 70.2 121.77 
L 70.2 126.09 
L 57.6 126.09 
L 57.6 121.77 
" clip-path="url(#p48b722c375)" style="fill: #0d0887"/>
    <path d="M 70.2 121.77 
L 82.8 121.77 
L 82.8 126.09 
L 70.2 126.09 
L 70.2 121.77 
" clip-path="url(#p48b722c375)" style="fill: #0d0887"/>
    <path d="M 82.8 121.77 
L 95.4 121.77 
L 95.4 126.09 
L 82.8 126.09 
L 82.8 121.77 
" clip-path="url(#p48b722c375)" style="fill: #0d0887"/>
    <path d="M 95.4 121.77 
L 108 121.77 
L 108 126.09 
L 95.4 126.09 
L 95.4 121.77 
" clip-path="url(#p48b722c375)" style="fill: #0d0887"/>
    <path d="M 108 121.77 
L 120.6 121.77 
L 120.6 126.09 
L 108 126.09 
L 108 121.77 
" clip-path="url(#p48b722c375)" style="fill: #0d0887"/>
    <path d="M 120.6 121.77 
L 133.2 121.77 
L 133.2 126.09 
L 120.6 126.09 
L 120.6 121.77 
" clip-path="url(#p48b722c375)" style="fill: #0d0887"/>
    <path d="M 133.2 121.77 
L 145.8 121.77 
L 145.8 126.09 
L 133.2 126.09 
L 133.2 121.77 
" clip-path="url(#p48b722c375)" style="fill: #0d0887"/>
    <path d="M 145.8 121.77 
L 158.4 121.77 
L 158.4 126.09 
L 145.8 126.09 
L 145.8 121.77 
" clip-path="url(#p48b722c375)" style="fill: #0d0887"/>
    <path d="M 158.4 121.77 
L 171 121.77 
L 171 126.09 
L 158.4 126.09 
L 158.4 121.77 
" clip-path="url(#p48b722c375)" style="fill: #43039e"/>
    <path d="M 171 121.77 
L 183.6 121.77 
L 183.6 126.09 
L 171 126.09 
L 171 121.77 
" clip-path="url(#p48b722c375)" style="fill: #0d0887"/>
    <path d="M 183.6 121.77 
L 196.2 121.77 
L 196.2 126.09 
L 183.6 126.09 
L 183.6 121.77 
" clip-path="url(#p48b722c375)" style="fill: #0d0887"/>
    <path d="M 196.2 121.77 
L 208.8 121.77 
L 208.8 126.09 
L 196.2 126.09 
L 196.2 121.77 
" clip-path="url(#p48b722c375)" style="fill: #0d0887"/>
    <path d="M 208.8 121.77 
L 221.4 121.77 
L 221.4 126.09 
L 208.8 126.09 
L 208.8 121.77 
" clip-path="url(#p48b722c375)" style="fill: #0d0887"/>
    <path d="M 221.4 121.77 
L 234 121.77 
L 234 126.09 
L 221.4 126.09 
L 221.4 121.77 
" clip-path="url(#p48b722c375)" style="fill: #0d0887"/>
    <path d="M 234 121.77 
L 246.6 121.77 
L 246.6 126.09 
L 234 126.09 
L 234 121.77 
" clip-path="url(#p48b722c375)" style="fill: #0d0887"/>
    <path d="M 246.6 121.77 
L 259.2 121.77 
L 259.2 126.09 
L 246.6 126.09 
L 246.6 121.77 
" clip-path="url(#p48b722c375)" style="fill: #0d0887"/>
   </g>
  </g>
  <g id="text_21">
   <text style="fill: #262626; font: 14.4px 'sans-serif'; text-anchor: middle" x="73.962545" y="17.50725" transform="rotate(-0, 73.962545, 17.50725)">k13 DELS LINES</text>
  </g>
 </g>
 <defs>
  <clipPath id="p48b722c375">
   <rect x="7.2" y="18.09" width="252" height="108"/>
  </clipPath>
 </defs>
</svg>
