<?xml version="1.0" encoding="utf-8" standalone="no"?>
<!DOCTYPE svg PUBLIC "-//W3C//DTD SVG 1.1//EN"
  "http://www.w3.org/Graphics/SVG/1.1/DTD/svg11.dtd">
<svg xmlns:xlink="http://www.w3.org/1999/xlink" width="266.4pt" height="181.160312pt" viewBox="0 0 266.4 181.160312" xmlns="http://www.w3.org/2000/svg" version="1.1">
 <metadata>
  <rdf:RDF xmlns:dc="http://purl.org/dc/elements/1.1/" xmlns:cc="http://creativecommons.org/ns#" xmlns:rdf="http://www.w3.org/1999/02/22-rdf-syntax-ns#">
   <cc:Work>
    <dc:type rdf:resource="http://purl.org/dc/dcmitype/StillImage"/>
    <dc:date>2023-12-20T13:35:50.299977</dc:date>
    <dc:format>image/svg+xml</dc:format>
    <dc:creator>
     <cc:Agent>
      <dc:title>Matplotlib v3.5.1, https://matplotlib.org/</dc:title>
     </cc:Agent>
    </dc:creator>
   </cc:Work>
  </rdf:RDF>
 </metadata>
 <defs>
  <style type="text/css">*{stroke-linejoin: round; stroke-linecap: butt}</style>
 </defs>
 <g id="figure_1">
  <g id="patch_1">
   <path d="M 0 181.160312 
L 266.4 181.160312 
L 266.4 0 
L 0 0 
L 0 181.160312 
z
" style="fill: none"/>
  </g>
  <g id="axes_1">
   <g id="patch_2">
    <path d="M 7.2 127.215 
L 259.2 127.215 
L 259.2 19.215 
L 7.2 19.215 
L 7.2 127.215 
z
" style="fill: none"/>
   </g>
   <g id="matplotlib.axis_1">
    <g id="xtick_1">
     <g id="line2d_1">
      <defs>
       <path id="m9982b9d7ce" d="M 0 0 
L 0 6 
" style="stroke: #262626; stroke-width: 1.25"/>
      </defs>
      <g>
       <use xlink:href="#m9982b9d7ce" x="13.5" y="127.215" style="fill: #262626; stroke: #262626; stroke-width: 1.25"/>
      </g>
     </g>
     <g id="text_1">
      <text style="fill: #262626; font: 10px 'sans-serif'" transform="translate(16.085156 168.960312)rotate(-90)">AluYd8</text>
     </g>
    </g>
    <g id="xtick_2">
     <g id="line2d_2">
      <g>
       <use xlink:href="#m9982b9d7ce" x="26.1" y="127.215" style="fill: #262626; stroke: #262626; stroke-width: 1.25"/>
      </g>
     </g>
     <g id="text_2">
      <text style="fill: #262626; font: 10px 'sans-serif'" transform="translate(28.685156 168.222812)rotate(-90)">AluYa5</text>
     </g>
    </g>
    <g id="xtick_3">
     <g id="line2d_3">
      <g>
       <use xlink:href="#m9982b9d7ce" x="38.7" y="127.215" style="fill: #262626; stroke: #262626; stroke-width: 1.25"/>
      </g>
     </g>
     <g id="text_3">
      <text style="fill: #262626; font: 10px 'sans-serif'" transform="translate(41.285156 168.960312)rotate(-90)">AluYb9</text>
     </g>
    </g>
    <g id="xtick_4">
     <g id="line2d_4">
      <g>
       <use xlink:href="#m9982b9d7ce" x="51.3" y="127.215" style="fill: #262626; stroke: #262626; stroke-width: 1.25"/>
      </g>
     </g>
     <g id="text_4">
      <text style="fill: #262626; font: 10px 'sans-serif'" transform="translate(53.885156 168.960312)rotate(-90)">AluYb8</text>
     </g>
    </g>
    <g id="xtick_5">
     <g id="line2d_5">
      <g>
       <use xlink:href="#m9982b9d7ce" x="63.9" y="127.215" style="fill: #262626; stroke: #262626; stroke-width: 1.25"/>
      </g>
     </g>
     <g id="text_5">
      <text style="fill: #262626; font: 10px 'sans-serif'" transform="translate(66.485156 168.399375)rotate(-90)">AluSc5</text>
     </g>
    </g>
    <g id="xtick_6">
     <g id="line2d_6">
      <g>
       <use xlink:href="#m9982b9d7ce" x="76.5" y="127.215" style="fill: #262626; stroke: #262626; stroke-width: 1.25"/>
      </g>
     </g>
     <g id="text_6">
      <text style="fill: #262626; font: 10px 'sans-serif'" transform="translate(79.085156 168.399375)rotate(-90)">AluSc8</text>
     </g>
    </g>
    <g id="xtick_7">
     <g id="line2d_7">
      <g>
       <use xlink:href="#m9982b9d7ce" x="89.1" y="127.215" style="fill: #262626; stroke: #262626; stroke-width: 1.25"/>
      </g>
     </g>
     <g id="text_7">
      <text style="fill: #262626; font: 10px 'sans-serif'" transform="translate(91.685156 162.838437)rotate(-90)">AluSc</text>
     </g>
    </g>
    <g id="xtick_8">
     <g id="line2d_8">
      <g>
       <use xlink:href="#m9982b9d7ce" x="101.7" y="127.215" style="fill: #262626; stroke: #262626; stroke-width: 1.25"/>
      </g>
     </g>
     <g id="text_8">
      <text style="fill: #262626; font: 10px 'sans-serif'" transform="translate(104.346094 168.960312)rotate(-90)">AluSq4</text>
     </g>
    </g>
    <g id="xtick_9">
     <g id="line2d_9">
      <g>
       <use xlink:href="#m9982b9d7ce" x="114.3" y="127.215" style="fill: #262626; stroke: #262626; stroke-width: 1.25"/>
      </g>
     </g>
     <g id="text_9">
      <text style="fill: #262626; font: 10px 'sans-serif'" transform="translate(116.946094 163.399375)rotate(-90)">AluSp</text>
     </g>
    </g>
    <g id="xtick_10">
     <g id="line2d_10">
      <g>
       <use xlink:href="#m9982b9d7ce" x="126.9" y="127.215" style="fill: #262626; stroke: #262626; stroke-width: 1.25"/>
      </g>
     </g>
     <g id="text_10">
      <text style="fill: #262626; font: 10px 'sans-serif'" transform="translate(129.4875 168.960312)rotate(-90)">AluSg4</text>
     </g>
    </g>
    <g id="xtick_11">
     <g id="line2d_11">
      <g>
       <use xlink:href="#m9982b9d7ce" x="139.5" y="127.215" style="fill: #262626; stroke: #262626; stroke-width: 1.25"/>
      </g>
     </g>
     <g id="text_11">
      <text style="fill: #262626; font: 10px 'sans-serif'" transform="translate(142.0875 163.399375)rotate(-90)">AluSg</text>
     </g>
    </g>
    <g id="xtick_12">
     <g id="line2d_12">
      <g>
       <use xlink:href="#m9982b9d7ce" x="152.1" y="127.215" style="fill: #262626; stroke: #262626; stroke-width: 1.25"/>
      </g>
     </g>
     <g id="text_12">
      <text style="fill: #262626; font: 10px 'sans-serif'" transform="translate(154.685156 168.399375)rotate(-90)">AluSx4</text>
     </g>
    </g>
    <g id="xtick_13">
     <g id="line2d_13">
      <g>
       <use xlink:href="#m9982b9d7ce" x="164.7" y="127.215" style="fill: #262626; stroke: #262626; stroke-width: 1.25"/>
      </g>
     </g>
     <g id="text_13">
      <text style="fill: #262626; font: 10px 'sans-serif'" transform="translate(167.241406 168.960312)rotate(-90)">AluYg6</text>
     </g>
    </g>
    <g id="xtick_14">
     <g id="line2d_14">
      <g>
       <use xlink:href="#m9982b9d7ce" x="177.3" y="127.215" style="fill: #262626; stroke: #262626; stroke-width: 1.25"/>
      </g>
     </g>
     <g id="text_14">
      <text style="fill: #262626; font: 10px 'sans-serif'" transform="translate(179.885156 173.960312)rotate(-90)">AluYk12</text>
     </g>
    </g>
    <g id="xtick_15">
     <g id="line2d_15">
      <g>
       <use xlink:href="#m9982b9d7ce" x="189.9" y="127.215" style="fill: #262626; stroke: #262626; stroke-width: 1.25"/>
      </g>
     </g>
     <g id="text_15">
      <text style="fill: #262626; font: 10px 'sans-serif'" transform="translate(192.485156 168.399375)rotate(-90)">AluYk3</text>
     </g>
    </g>
    <g id="xtick_16">
     <g id="line2d_16">
      <g>
       <use xlink:href="#m9982b9d7ce" x="202.5" y="127.215" style="fill: #262626; stroke: #262626; stroke-width: 1.25"/>
      </g>
     </g>
     <g id="text_16">
      <text style="fill: #262626; font: 10px 'sans-serif'" transform="translate(205.085156 157.838437)rotate(-90)">AluY</text>
     </g>
    </g>
    <g id="xtick_17">
     <g id="line2d_17">
      <g>
       <use xlink:href="#m9982b9d7ce" x="215.1" y="127.215" style="fill: #262626; stroke: #262626; stroke-width: 1.25"/>
      </g>
     </g>
     <g id="text_17">
      <text style="fill: #262626; font: 10px 'sans-serif'" transform="translate(217.685156 166.1775)rotate(-90)">AluYf1</text>
     </g>
    </g>
    <g id="xtick_18">
     <g id="line2d_18">
      <g>
       <use xlink:href="#m9982b9d7ce" x="227.7" y="127.215" style="fill: #262626; stroke: #262626; stroke-width: 1.25"/>
      </g>
     </g>
     <g id="text_18">
      <text style="fill: #262626; font: 10px 'sans-serif'" transform="translate(230.285156 168.399375)rotate(-90)">AluYk4</text>
     </g>
    </g>
    <g id="xtick_19">
     <g id="line2d_19">
      <g>
       <use xlink:href="#m9982b9d7ce" x="240.3" y="127.215" style="fill: #262626; stroke: #262626; stroke-width: 1.25"/>
      </g>
     </g>
     <g id="text_19">
      <text style="fill: #262626; font: 10px 'sans-serif'" transform="translate(242.885156 168.047812)rotate(-90)">AluYe6</text>
     </g>
    </g>
    <g id="xtick_20">
     <g id="line2d_20">
      <g>
       <use xlink:href="#m9982b9d7ce" x="252.9" y="127.215" style="fill: #262626; stroke: #262626; stroke-width: 1.25"/>
      </g>
     </g>
     <g id="text_20">
      <text style="fill: #262626; font: 10px 'sans-serif'" transform="translate(255.485156 168.047812)rotate(-90)">AluYe5</text>
     </g>
    </g>
   </g>
   <g id="matplotlib.axis_2"/>
   <g id="QuadMesh_1">
    <path d="M 7.2 19.215 
L 19.8 19.215 
L 19.8 23.535 
L 7.2 23.535 
L 7.2 19.215 
" clip-path="url(#p08ddbb9c07)" style="fill: #0d0887"/>
    <path d="M 19.8 19.215 
L 32.4 19.215 
L 32.4 23.535 
L 19.8 23.535 
L 19.8 19.215 
" clip-path="url(#p08ddbb9c07)" style="fill: #0d0887"/>
    <path d="M 32.4 19.215 
L 45 19.215 
L 45 23.535 
L 32.4 23.535 
L 32.4 19.215 
" clip-path="url(#p08ddbb9c07)" style="fill: #0d0887"/>
    <path d="M 45 19.215 
L 57.6 19.215 
L 57.6 23.535 
L 45 23.535 
L 45 19.215 
" clip-path="url(#p08ddbb9c07)" style="fill: #0d0887"/>
    <path d="M 57.6 19.215 
L 70.2 19.215 
L 70.2 23.535 
L 57.6 23.535 
L 57.6 19.215 
" clip-path="url(#p08ddbb9c07)" style="fill: #0d0887"/>
    <path d="M 70.2 19.215 
L 82.8 19.215 
L 82.8 23.535 
L 70.2 23.535 
L 70.2 19.215 
" clip-path="url(#p08ddbb9c07)" style="fill: #0d0887"/>
    <path d="M 82.8 19.215 
L 95.4 19.215 
L 95.4 23.535 
L 82.8 23.535 
L 82.8 19.215 
" clip-path="url(#p08ddbb9c07)" style="fill: #0d0887"/>
    <path d="M 95.4 19.215 
L 108 19.215 
L 108 23.535 
L 95.4 23.535 
L 95.4 19.215 
" clip-path="url(#p08ddbb9c07)" style="fill: #0d0887"/>
    <path d="M 108 19.215 
L 120.6 19.215 
L 120.6 23.535 
L 108 23.535 
L 108 19.215 
" clip-path="url(#p08ddbb9c07)" style="fill: #0d0887"/>
    <path d="M 120.6 19.215 
L 133.2 19.215 
L 133.2 23.535 
L 120.6 23.535 
L 120.6 19.215 
" clip-path="url(#p08ddbb9c07)" style="fill: #0d0887"/>
    <path d="M 133.2 19.215 
L 145.8 19.215 
L 145.8 23.535 
L 133.2 23.535 
L 133.2 19.215 
" clip-path="url(#p08ddbb9c07)" style="fill: #0d0887"/>
    <path d="M 145.8 19.215 
L 158.4 19.215 
L 158.4 23.535 
L 145.8 23.535 
L 145.8 19.215 
" clip-path="url(#p08ddbb9c07)" style="fill: #0d0887"/>
    <path d="M 158.4 19.215 
L 171 19.215 
L 171 23.535 
L 158.4 23.535 
L 158.4 19.215 
" clip-path="url(#p08ddbb9c07)" style="fill: #0d0887"/>
    <path d="M 171 19.215 
L 183.6 19.215 
L 183.6 23.535 
L 171 23.535 
L 171 19.215 
" clip-path="url(#p08ddbb9c07)" style="fill: #0d0887"/>
    <path d="M 183.6 19.215 
L 196.2 19.215 
L 196.2 23.535 
L 183.6 23.535 
L 183.6 19.215 
" clip-path="url(#p08ddbb9c07)" style="fill: #0d0887"/>
    <path d="M 196.2 19.215 
L 208.8 19.215 
L 208.8 23.535 
L 196.2 23.535 
L 196.2 19.215 
" clip-path="url(#p08ddbb9c07)" style="fill: #0d0887"/>
    <path d="M 208.8 19.215 
L 221.4 19.215 
L 221.4 23.535 
L 208.8 23.535 
L 208.8 19.215 
" clip-path="url(#p08ddbb9c07)" style="fill: #0d0887"/>
    <path d="M 221.4 19.215 
L 234 19.215 
L 234 23.535 
L 221.4 23.535 
L 221.4 19.215 
" clip-path="url(#p08ddbb9c07)" style="fill: #0d0887"/>
    <path d="M 234 19.215 
L 246.6 19.215 
L 246.6 23.535 
L 234 23.535 
L 234 19.215 
" clip-path="url(#p08ddbb9c07)" style="fill: #0d0887"/>
    <path d="M 246.6 19.215 
L 259.2 19.215 
L 259.2 23.535 
L 246.6 23.535 
L 246.6 19.215 
" clip-path="url(#p08ddbb9c07)" style="fill: #0d0887"/>
    <path d="M 7.2 23.535 
L 19.8 23.535 
L 19.8 27.855 
L 7.2 27.855 
L 7.2 23.535 
" clip-path="url(#p08ddbb9c07)" style="fill: #0d0887"/>
    <path d="M 19.8 23.535 
L 32.4 23.535 
L 32.4 27.855 
L 19.8 27.855 
L 19.8 23.535 
" clip-path="url(#p08ddbb9c07)" style="fill: #0d0887"/>
    <path d="M 32.4 23.535 
L 45 23.535 
L 45 27.855 
L 32.4 27.855 
L 32.4 23.535 
" clip-path="url(#p08ddbb9c07)" style="fill: #0d0887"/>
    <path d="M 45 23.535 
L 57.6 23.535 
L 57.6 27.855 
L 45 27.855 
L 45 23.535 
" clip-path="url(#p08ddbb9c07)" style="fill: #0d0887"/>
    <path d="M 57.6 23.535 
L 70.2 23.535 
L 70.2 27.855 
L 57.6 27.855 
L 57.6 23.535 
" clip-path="url(#p08ddbb9c07)" style="fill: #0d0887"/>
    <path d="M 70.2 23.535 
L 82.8 23.535 
L 82.8 27.855 
L 70.2 27.855 
L 70.2 23.535 
" clip-path="url(#p08ddbb9c07)" style="fill: #0d0887"/>
    <path d="M 82.8 23.535 
L 95.4 23.535 
L 95.4 27.855 
L 82.8 27.855 
L 82.8 23.535 
" clip-path="url(#p08ddbb9c07)" style="fill: #0d0887"/>
    <path d="M 95.4 23.535 
L 108 23.535 
L 108 27.855 
L 95.4 27.855 
L 95.4 23.535 
" clip-path="url(#p08ddbb9c07)" style="fill: #0d0887"/>
    <path d="M 108 23.535 
L 120.6 23.535 
L 120.6 27.855 
L 108 27.855 
L 108 23.535 
" clip-path="url(#p08ddbb9c07)" style="fill: #0d0887"/>
    <path d="M 120.6 23.535 
L 133.2 23.535 
L 133.2 27.855 
L 120.6 27.855 
L 120.6 23.535 
" clip-path="url(#p08ddbb9c07)" style="fill: #0d0887"/>
    <path d="M 133.2 23.535 
L 145.8 23.535 
L 145.8 27.855 
L 133.2 27.855 
L 133.2 23.535 
" clip-path="url(#p08ddbb9c07)" style="fill: #0d0887"/>
    <path d="M 145.8 23.535 
L 158.4 23.535 
L 158.4 27.855 
L 145.8 27.855 
L 145.8 23.535 
" clip-path="url(#p08ddbb9c07)" style="fill: #0d0887"/>
    <path d="M 158.4 23.535 
L 171 23.535 
L 171 27.855 
L 158.4 27.855 
L 158.4 23.535 
" clip-path="url(#p08ddbb9c07)" style="fill: #0d0887"/>
    <path d="M 171 23.535 
L 183.6 23.535 
L 183.6 27.855 
L 171 27.855 
L 171 23.535 
" clip-path="url(#p08ddbb9c07)" style="fill: #0d0887"/>
    <path d="M 183.6 23.535 
L 196.2 23.535 
L 196.2 27.855 
L 183.6 27.855 
L 183.6 23.535 
" clip-path="url(#p08ddbb9c07)" style="fill: #0d0887"/>
    <path d="M 196.2 23.535 
L 208.8 23.535 
L 208.8 27.855 
L 196.2 27.855 
L 196.2 23.535 
" clip-path="url(#p08ddbb9c07)" style="fill: #0d0887"/>
    <path d="M 208.8 23.535 
L 221.4 23.535 
L 221.4 27.855 
L 208.8 27.855 
L 208.8 23.535 
" clip-path="url(#p08ddbb9c07)" style="fill: #0d0887"/>
    <path d="M 221.4 23.535 
L 234 23.535 
L 234 27.855 
L 221.4 27.855 
L 221.4 23.535 
" clip-path="url(#p08ddbb9c07)" style="fill: #0d0887"/>
    <path d="M 234 23.535 
L 246.6 23.535 
L 246.6 27.855 
L 234 27.855 
L 234 23.535 
" clip-path="url(#p08ddbb9c07)" style="fill: #0d0887"/>
    <path d="M 246.6 23.535 
L 259.2 23.535 
L 259.2 27.855 
L 246.6 27.855 
L 246.6 23.535 
" clip-path="url(#p08ddbb9c07)" style="fill: #0d0887"/>
    <path d="M 7.2 27.855 
L 19.8 27.855 
L 19.8 32.175 
L 7.2 32.175 
L 7.2 27.855 
" clip-path="url(#p08ddbb9c07)" style="fill: #0d0887"/>
    <path d="M 19.8 27.855 
L 32.4 27.855 
L 32.4 32.175 
L 19.8 32.175 
L 19.8 27.855 
" clip-path="url(#p08ddbb9c07)" style="fill: #0d0887"/>
    <path d="M 32.4 27.855 
L 45 27.855 
L 45 32.175 
L 32.4 32.175 
L 32.4 27.855 
" clip-path="url(#p08ddbb9c07)" style="fill: #0d0887"/>
    <path d="M 45 27.855 
L 57.6 27.855 
L 57.6 32.175 
L 45 32.175 
L 45 27.855 
" clip-path="url(#p08ddbb9c07)" style="fill: #0d0887"/>
    <path d="M 57.6 27.855 
L 70.2 27.855 
L 70.2 32.175 
L 57.6 32.175 
L 57.6 27.855 
" clip-path="url(#p08ddbb9c07)" style="fill: #0d0887"/>
    <path d="M 70.2 27.855 
L 82.8 27.855 
L 82.8 32.175 
L 70.2 32.175 
L 70.2 27.855 
" clip-path="url(#p08ddbb9c07)" style="fill: #0d0887"/>
    <path d="M 82.8 27.855 
L 95.4 27.855 
L 95.4 32.175 
L 82.8 32.175 
L 82.8 27.855 
" clip-path="url(#p08ddbb9c07)" style="fill: #0d0887"/>
    <path d="M 95.4 27.855 
L 108 27.855 
L 108 32.175 
L 95.4 32.175 
L 95.4 27.855 
" clip-path="url(#p08ddbb9c07)" style="fill: #0d0887"/>
    <path d="M 108 27.855 
L 120.6 27.855 
L 120.6 32.175 
L 108 32.175 
L 108 27.855 
" clip-path="url(#p08ddbb9c07)" style="fill: #0d0887"/>
    <path d="M 120.6 27.855 
L 133.2 27.855 
L 133.2 32.175 
L 120.6 32.175 
L 120.6 27.855 
" clip-path="url(#p08ddbb9c07)" style="fill: #0d0887"/>
    <path d="M 133.2 27.855 
L 145.8 27.855 
L 145.8 32.175 
L 133.2 32.175 
L 133.2 27.855 
" clip-path="url(#p08ddbb9c07)" style="fill: #0d0887"/>
    <path d="M 145.8 27.855 
L 158.4 27.855 
L 158.4 32.175 
L 145.8 32.175 
L 145.8 27.855 
" clip-path="url(#p08ddbb9c07)" style="fill: #0d0887"/>
    <path d="M 158.4 27.855 
L 171 27.855 
L 171 32.175 
L 158.4 32.175 
L 158.4 27.855 
" clip-path="url(#p08ddbb9c07)" style="fill: #0d0887"/>
    <path d="M 171 27.855 
L 183.6 27.855 
L 183.6 32.175 
L 171 32.175 
L 171 27.855 
" clip-path="url(#p08ddbb9c07)" style="fill: #0d0887"/>
    <path d="M 183.6 27.855 
L 196.2 27.855 
L 196.2 32.175 
L 183.6 32.175 
L 183.6 27.855 
" clip-path="url(#p08ddbb9c07)" style="fill: #0d0887"/>
    <path d="M 196.2 27.855 
L 208.8 27.855 
L 208.8 32.175 
L 196.2 32.175 
L 196.2 27.855 
" clip-path="url(#p08ddbb9c07)" style="fill: #0d0887"/>
    <path d="M 208.8 27.855 
L 221.4 27.855 
L 221.4 32.175 
L 208.8 32.175 
L 208.8 27.855 
" clip-path="url(#p08ddbb9c07)" style="fill: #0d0887"/>
    <path d="M 221.4 27.855 
L 234 27.855 
L 234 32.175 
L 221.4 32.175 
L 221.4 27.855 
" clip-path="url(#p08ddbb9c07)" style="fill: #0d0887"/>
    <path d="M 234 27.855 
L 246.6 27.855 
L 246.6 32.175 
L 234 32.175 
L 234 27.855 
" clip-path="url(#p08ddbb9c07)" style="fill: #0d0887"/>
    <path d="M 246.6 27.855 
L 259.2 27.855 
L 259.2 32.175 
L 246.6 32.175 
L 246.6 27.855 
" clip-path="url(#p08ddbb9c07)" style="fill: #0d0887"/>
    <path d="M 7.2 32.175 
L 19.8 32.175 
L 19.8 36.495 
L 7.2 36.495 
L 7.2 32.175 
" clip-path="url(#p08ddbb9c07)" style="fill: #0d0887"/>
    <path d="M 19.8 32.175 
L 32.4 32.175 
L 32.4 36.495 
L 19.8 36.495 
L 19.8 32.175 
" clip-path="url(#p08ddbb9c07)" style="fill: #0d0887"/>
    <path d="M 32.4 32.175 
L 45 32.175 
L 45 36.495 
L 32.4 36.495 
L 32.4 32.175 
" clip-path="url(#p08ddbb9c07)" style="fill: #0d0887"/>
    <path d="M 45 32.175 
L 57.6 32.175 
L 57.6 36.495 
L 45 36.495 
L 45 32.175 
" clip-path="url(#p08ddbb9c07)" style="fill: #0d0887"/>
    <path d="M 57.6 32.175 
L 70.2 32.175 
L 70.2 36.495 
L 57.6 36.495 
L 57.6 32.175 
" clip-path="url(#p08ddbb9c07)" style="fill: #0d0887"/>
    <path d="M 70.2 32.175 
L 82.8 32.175 
L 82.8 36.495 
L 70.2 36.495 
L 70.2 32.175 
" clip-path="url(#p08ddbb9c07)" style="fill: #0d0887"/>
    <path d="M 82.8 32.175 
L 95.4 32.175 
L 95.4 36.495 
L 82.8 36.495 
L 82.8 32.175 
" clip-path="url(#p08ddbb9c07)" style="fill: #0d0887"/>
    <path d="M 95.4 32.175 
L 108 32.175 
L 108 36.495 
L 95.4 36.495 
L 95.4 32.175 
" clip-path="url(#p08ddbb9c07)" style="fill: #0d0887"/>
    <path d="M 108 32.175 
L 120.6 32.175 
L 120.6 36.495 
L 108 36.495 
L 108 32.175 
" clip-path="url(#p08ddbb9c07)" style="fill: #0d0887"/>
    <path d="M 120.6 32.175 
L 133.2 32.175 
L 133.2 36.495 
L 120.6 36.495 
L 120.6 32.175 
" clip-path="url(#p08ddbb9c07)" style="fill: #0d0887"/>
    <path d="M 133.2 32.175 
L 145.8 32.175 
L 145.8 36.495 
L 133.2 36.495 
L 133.2 32.175 
" clip-path="url(#p08ddbb9c07)" style="fill: #0d0887"/>
    <path d="M 145.8 32.175 
L 158.4 32.175 
L 158.4 36.495 
L 145.8 36.495 
L 145.8 32.175 
" clip-path="url(#p08ddbb9c07)" style="fill: #0d0887"/>
    <path d="M 158.4 32.175 
L 171 32.175 
L 171 36.495 
L 158.4 36.495 
L 158.4 32.175 
" clip-path="url(#p08ddbb9c07)" style="fill: #0d0887"/>
    <path d="M 171 32.175 
L 183.6 32.175 
L 183.6 36.495 
L 171 36.495 
L 171 32.175 
" clip-path="url(#p08ddbb9c07)" style="fill: #0d0887"/>
    <path d="M 183.6 32.175 
L 196.2 32.175 
L 196.2 36.495 
L 183.6 36.495 
L 183.6 32.175 
" clip-path="url(#p08ddbb9c07)" style="fill: #0d0887"/>
    <path d="M 196.2 32.175 
L 208.8 32.175 
L 208.8 36.495 
L 196.2 36.495 
L 196.2 32.175 
" clip-path="url(#p08ddbb9c07)" style="fill: #0d0887"/>
    <path d="M 208.8 32.175 
L 221.4 32.175 
L 221.4 36.495 
L 208.8 36.495 
L 208.8 32.175 
" clip-path="url(#p08ddbb9c07)" style="fill: #0d0887"/>
    <path d="M 221.4 32.175 
L 234 32.175 
L 234 36.495 
L 221.4 36.495 
L 221.4 32.175 
" clip-path="url(#p08ddbb9c07)" style="fill: #0d0887"/>
    <path d="M 234 32.175 
L 246.6 32.175 
L 246.6 36.495 
L 234 36.495 
L 234 32.175 
" clip-path="url(#p08ddbb9c07)" style="fill: #0d0887"/>
    <path d="M 246.6 32.175 
L 259.2 32.175 
L 259.2 36.495 
L 246.6 36.495 
L 246.6 32.175 
" clip-path="url(#p08ddbb9c07)" style="fill: #0d0887"/>
    <path d="M 7.2 36.495 
L 19.8 36.495 
L 19.8 40.815 
L 7.2 40.815 
L 7.2 36.495 
" clip-path="url(#p08ddbb9c07)" style="fill: #0d0887"/>
    <path d="M 19.8 36.495 
L 32.4 36.495 
L 32.4 40.815 
L 19.8 40.815 
L 19.8 36.495 
" clip-path="url(#p08ddbb9c07)" style="fill: #0d0887"/>
    <path d="M 32.4 36.495 
L 45 36.495 
L 45 40.815 
L 32.4 40.815 
L 32.4 36.495 
" clip-path="url(#p08ddbb9c07)" style="fill: #0d0887"/>
    <path d="M 45 36.495 
L 57.6 36.495 
L 57.6 40.815 
L 45 40.815 
L 45 36.495 
" clip-path="url(#p08ddbb9c07)" style="fill: #0d0887"/>
    <path d="M 57.6 36.495 
L 70.2 36.495 
L 70.2 40.815 
L 57.6 40.815 
L 57.6 36.495 
" clip-path="url(#p08ddbb9c07)" style="fill: #0d0887"/>
    <path d="M 70.2 36.495 
L 82.8 36.495 
L 82.8 40.815 
L 70.2 40.815 
L 70.2 36.495 
" clip-path="url(#p08ddbb9c07)" style="fill: #0d0887"/>
    <path d="M 82.8 36.495 
L 95.4 36.495 
L 95.4 40.815 
L 82.8 40.815 
L 82.8 36.495 
" clip-path="url(#p08ddbb9c07)" style="fill: #0d0887"/>
    <path d="M 95.4 36.495 
L 108 36.495 
L 108 40.815 
L 95.4 40.815 
L 95.4 36.495 
" clip-path="url(#p08ddbb9c07)" style="fill: #0d0887"/>
    <path d="M 108 36.495 
L 120.6 36.495 
L 120.6 40.815 
L 108 40.815 
L 108 36.495 
" clip-path="url(#p08ddbb9c07)" style="fill: #0d0887"/>
    <path d="M 120.6 36.495 
L 133.2 36.495 
L 133.2 40.815 
L 120.6 40.815 
L 120.6 36.495 
" clip-path="url(#p08ddbb9c07)" style="fill: #0d0887"/>
    <path d="M 133.2 36.495 
L 145.8 36.495 
L 145.8 40.815 
L 133.2 40.815 
L 133.2 36.495 
" clip-path="url(#p08ddbb9c07)" style="fill: #0d0887"/>
    <path d="M 145.8 36.495 
L 158.4 36.495 
L 158.4 40.815 
L 145.8 40.815 
L 145.8 36.495 
" clip-path="url(#p08ddbb9c07)" style="fill: #0d0887"/>
    <path d="M 158.4 36.495 
L 171 36.495 
L 171 40.815 
L 158.4 40.815 
L 158.4 36.495 
" clip-path="url(#p08ddbb9c07)" style="fill: #0d0887"/>
    <path d="M 171 36.495 
L 183.6 36.495 
L 183.6 40.815 
L 171 40.815 
L 171 36.495 
" clip-path="url(#p08ddbb9c07)" style="fill: #0d0887"/>
    <path d="M 183.6 36.495 
L 196.2 36.495 
L 196.2 40.815 
L 183.6 40.815 
L 183.6 36.495 
" clip-path="url(#p08ddbb9c07)" style="fill: #0d0887"/>
    <path d="M 196.2 36.495 
L 208.8 36.495 
L 208.8 40.815 
L 196.2 40.815 
L 196.2 36.495 
" clip-path="url(#p08ddbb9c07)" style="fill: #0d0887"/>
    <path d="M 208.8 36.495 
L 221.4 36.495 
L 221.4 40.815 
L 208.8 40.815 
L 208.8 36.495 
" clip-path="url(#p08ddbb9c07)" style="fill: #0d0887"/>
    <path d="M 221.4 36.495 
L 234 36.495 
L 234 40.815 
L 221.4 40.815 
L 221.4 36.495 
" clip-path="url(#p08ddbb9c07)" style="fill: #0d0887"/>
    <path d="M 234 36.495 
L 246.6 36.495 
L 246.6 40.815 
L 234 40.815 
L 234 36.495 
" clip-path="url(#p08ddbb9c07)" style="fill: #0d0887"/>
    <path d="M 246.6 36.495 
L 259.2 36.495 
L 259.2 40.815 
L 246.6 40.815 
L 246.6 36.495 
" clip-path="url(#p08ddbb9c07)" style="fill: #0d0887"/>
    <path d="M 7.2 40.815 
L 19.8 40.815 
L 19.8 45.135 
L 7.2 45.135 
L 7.2 40.815 
" clip-path="url(#p08ddbb9c07)" style="fill: #0d0887"/>
    <path d="M 19.8 40.815 
L 32.4 40.815 
L 32.4 45.135 
L 19.8 45.135 
L 19.8 40.815 
" clip-path="url(#p08ddbb9c07)" style="fill: #0d0887"/>
    <path d="M 32.4 40.815 
L 45 40.815 
L 45 45.135 
L 32.4 45.135 
L 32.4 40.815 
" clip-path="url(#p08ddbb9c07)" style="fill: #0d0887"/>
    <path d="M 45 40.815 
L 57.6 40.815 
L 57.6 45.135 
L 45 45.135 
L 45 40.815 
" clip-path="url(#p08ddbb9c07)" style="fill: #0d0887"/>
    <path d="M 57.6 40.815 
L 70.2 40.815 
L 70.2 45.135 
L 57.6 45.135 
L 57.6 40.815 
" clip-path="url(#p08ddbb9c07)" style="fill: #0d0887"/>
    <path d="M 70.2 40.815 
L 82.8 40.815 
L 82.8 45.135 
L 70.2 45.135 
L 70.2 40.815 
" clip-path="url(#p08ddbb9c07)" style="fill: #0d0887"/>
    <path d="M 82.8 40.815 
L 95.4 40.815 
L 95.4 45.135 
L 82.8 45.135 
L 82.8 40.815 
" clip-path="url(#p08ddbb9c07)" style="fill: #0d0887"/>
    <path d="M 95.4 40.815 
L 108 40.815 
L 108 45.135 
L 95.4 45.135 
L 95.4 40.815 
" clip-path="url(#p08ddbb9c07)" style="fill: #0d0887"/>
    <path d="M 108 40.815 
L 120.6 40.815 
L 120.6 45.135 
L 108 45.135 
L 108 40.815 
" clip-path="url(#p08ddbb9c07)" style="fill: #0d0887"/>
    <path d="M 120.6 40.815 
L 133.2 40.815 
L 133.2 45.135 
L 120.6 45.135 
L 120.6 40.815 
" clip-path="url(#p08ddbb9c07)" style="fill: #0d0887"/>
    <path d="M 133.2 40.815 
L 145.8 40.815 
L 145.8 45.135 
L 133.2 45.135 
L 133.2 40.815 
" clip-path="url(#p08ddbb9c07)" style="fill: #0d0887"/>
    <path d="M 145.8 40.815 
L 158.4 40.815 
L 158.4 45.135 
L 145.8 45.135 
L 145.8 40.815 
" clip-path="url(#p08ddbb9c07)" style="fill: #0d0887"/>
    <path d="M 158.4 40.815 
L 171 40.815 
L 171 45.135 
L 158.4 45.135 
L 158.4 40.815 
" clip-path="url(#p08ddbb9c07)" style="fill: #0d0887"/>
    <path d="M 171 40.815 
L 183.6 40.815 
L 183.6 45.135 
L 171 45.135 
L 171 40.815 
" clip-path="url(#p08ddbb9c07)" style="fill: #0d0887"/>
    <path d="M 183.6 40.815 
L 196.2 40.815 
L 196.2 45.135 
L 183.6 45.135 
L 183.6 40.815 
" clip-path="url(#p08ddbb9c07)" style="fill: #0d0887"/>
    <path d="M 196.2 40.815 
L 208.8 40.815 
L 208.8 45.135 
L 196.2 45.135 
L 196.2 40.815 
" clip-path="url(#p08ddbb9c07)" style="fill: #0d0887"/>
    <path d="M 208.8 40.815 
L 221.4 40.815 
L 221.4 45.135 
L 208.8 45.135 
L 208.8 40.815 
" clip-path="url(#p08ddbb9c07)" style="fill: #0d0887"/>
    <path d="M 221.4 40.815 
L 234 40.815 
L 234 45.135 
L 221.4 45.135 
L 221.4 40.815 
" clip-path="url(#p08ddbb9c07)" style="fill: #0d0887"/>
    <path d="M 234 40.815 
L 246.6 40.815 
L 246.6 45.135 
L 234 45.135 
L 234 40.815 
" clip-path="url(#p08ddbb9c07)" style="fill: #0d0887"/>
    <path d="M 246.6 40.815 
L 259.2 40.815 
L 259.2 45.135 
L 246.6 45.135 
L 246.6 40.815 
" clip-path="url(#p08ddbb9c07)" style="fill: #0d0887"/>
    <path d="M 7.2 45.135 
L 19.8 45.135 
L 19.8 49.455 
L 7.2 49.455 
L 7.2 45.135 
" clip-path="url(#p08ddbb9c07)" style="fill: #0d0887"/>
    <path d="M 19.8 45.135 
L 32.4 45.135 
L 32.4 49.455 
L 19.8 49.455 
L 19.8 45.135 
" clip-path="url(#p08ddbb9c07)" style="fill: #f0f921"/>
    <path d="M 32.4 45.135 
L 45 45.135 
L 45 49.455 
L 32.4 49.455 
L 32.4 45.135 
" clip-path="url(#p08ddbb9c07)" style="fill: #0d0887"/>
    <path d="M 45 45.135 
L 57.6 45.135 
L 57.6 49.455 
L 45 49.455 
L 45 45.135 
" clip-path="url(#p08ddbb9c07)" style="fill: #f0f921"/>
    <path d="M 57.6 45.135 
L 70.2 45.135 
L 70.2 49.455 
L 57.6 49.455 
L 57.6 45.135 
" clip-path="url(#p08ddbb9c07)" style="fill: #f0f921"/>
    <path d="M 70.2 45.135 
L 82.8 45.135 
L 82.8 49.455 
L 70.2 49.455 
L 70.2 45.135 
" clip-path="url(#p08ddbb9c07)" style="fill: #f0f921"/>
    <path d="M 82.8 45.135 
L 95.4 45.135 
L 95.4 49.455 
L 82.8 49.455 
L 82.8 45.135 
" clip-path="url(#p08ddbb9c07)" style="fill: #f0f921"/>
    <path d="M 95.4 45.135 
L 108 45.135 
L 108 49.455 
L 95.4 49.455 
L 95.4 45.135 
" clip-path="url(#p08ddbb9c07)" style="fill: #f0f921"/>
    <path d="M 108 45.135 
L 120.6 45.135 
L 120.6 49.455 
L 108 49.455 
L 108 45.135 
" clip-path="url(#p08ddbb9c07)" style="fill: #f0f921"/>
    <path d="M 120.6 45.135 
L 133.2 45.135 
L 133.2 49.455 
L 120.6 49.455 
L 120.6 45.135 
" clip-path="url(#p08ddbb9c07)" style="fill: #f0f921"/>
    <path d="M 133.2 45.135 
L 145.8 45.135 
L 145.8 49.455 
L 133.2 49.455 
L 133.2 45.135 
" clip-path="url(#p08ddbb9c07)" style="fill: #f0f921"/>
    <path d="M 145.8 45.135 
L 158.4 45.135 
L 158.4 49.455 
L 145.8 49.455 
L 145.8 45.135 
" clip-path="url(#p08ddbb9c07)" style="fill: #f0f921"/>
    <path d="M 158.4 45.135 
L 171 45.135 
L 171 49.455 
L 158.4 49.455 
L 158.4 45.135 
" clip-path="url(#p08ddbb9c07)" style="fill: #f0f921"/>
    <path d="M 171 45.135 
L 183.6 45.135 
L 183.6 49.455 
L 171 49.455 
L 171 45.135 
" clip-path="url(#p08ddbb9c07)" style="fill: #f0f921"/>
    <path d="M 183.6 45.135 
L 196.2 45.135 
L 196.2 49.455 
L 183.6 49.455 
L 183.6 45.135 
" clip-path="url(#p08ddbb9c07)" style="fill: #f0f921"/>
    <path d="M 196.2 45.135 
L 208.8 45.135 
L 208.8 49.455 
L 196.2 49.455 
L 196.2 45.135 
" clip-path="url(#p08ddbb9c07)" style="fill: #f0f921"/>
    <path d="M 208.8 45.135 
L 221.4 45.135 
L 221.4 49.455 
L 208.8 49.455 
L 208.8 45.135 
" clip-path="url(#p08ddbb9c07)" style="fill: #f0f921"/>
    <path d="M 221.4 45.135 
L 234 45.135 
L 234 49.455 
L 221.4 49.455 
L 221.4 45.135 
" clip-path="url(#p08ddbb9c07)" style="fill: #f0f921"/>
    <path d="M 234 45.135 
L 246.6 45.135 
L 246.6 49.455 
L 234 49.455 
L 234 45.135 
" clip-path="url(#p08ddbb9c07)" style="fill: #f0f921"/>
    <path d="M 246.6 45.135 
L 259.2 45.135 
L 259.2 49.455 
L 246.6 49.455 
L 246.6 45.135 
" clip-path="url(#p08ddbb9c07)" style="fill: #f0f921"/>
    <path d="M 7.2 49.455 
L 19.8 49.455 
L 19.8 53.775 
L 7.2 53.775 
L 7.2 49.455 
" clip-path="url(#p08ddbb9c07)" style="fill: #0d0887"/>
    <path d="M 19.8 49.455 
L 32.4 49.455 
L 32.4 53.775 
L 19.8 53.775 
L 19.8 49.455 
" clip-path="url(#p08ddbb9c07)" style="fill: #f0f921"/>
    <path d="M 32.4 49.455 
L 45 49.455 
L 45 53.775 
L 32.4 53.775 
L 32.4 49.455 
" clip-path="url(#p08ddbb9c07)" style="fill: #f0f921"/>
    <path d="M 45 49.455 
L 57.6 49.455 
L 57.6 53.775 
L 45 53.775 
L 45 49.455 
" clip-path="url(#p08ddbb9c07)" style="fill: #f0f921"/>
    <path d="M 57.6 49.455 
L 70.2 49.455 
L 70.2 53.775 
L 57.6 53.775 
L 57.6 49.455 
" clip-path="url(#p08ddbb9c07)" style="fill: #f0f921"/>
    <path d="M 70.2 49.455 
L 82.8 49.455 
L 82.8 53.775 
L 70.2 53.775 
L 70.2 49.455 
" clip-path="url(#p08ddbb9c07)" style="fill: #3a049a"/>
    <path d="M 82.8 49.455 
L 95.4 49.455 
L 95.4 53.775 
L 82.8 53.775 
L 82.8 49.455 
" clip-path="url(#p08ddbb9c07)" style="fill: #7a02a8"/>
    <path d="M 95.4 49.455 
L 108 49.455 
L 108 53.775 
L 95.4 53.775 
L 95.4 49.455 
" clip-path="url(#p08ddbb9c07)" style="fill: #f0f921"/>
    <path d="M 108 49.455 
L 120.6 49.455 
L 120.6 53.775 
L 108 53.775 
L 108 49.455 
" clip-path="url(#p08ddbb9c07)" style="fill: #f0f921"/>
    <path d="M 120.6 49.455 
L 133.2 49.455 
L 133.2 53.775 
L 120.6 53.775 
L 120.6 49.455 
" clip-path="url(#p08ddbb9c07)" style="fill: #f0f921"/>
    <path d="M 133.2 49.455 
L 145.8 49.455 
L 145.8 53.775 
L 133.2 53.775 
L 133.2 49.455 
" clip-path="url(#p08ddbb9c07)" style="fill: #f0f921"/>
    <path d="M 145.8 49.455 
L 158.4 49.455 
L 158.4 53.775 
L 145.8 53.775 
L 145.8 49.455 
" clip-path="url(#p08ddbb9c07)" style="fill: #f0f921"/>
    <path d="M 158.4 49.455 
L 171 49.455 
L 171 53.775 
L 158.4 53.775 
L 158.4 49.455 
" clip-path="url(#p08ddbb9c07)" style="fill: #f0f921"/>
    <path d="M 171 49.455 
L 183.6 49.455 
L 183.6 53.775 
L 171 53.775 
L 171 49.455 
" clip-path="url(#p08ddbb9c07)" style="fill: #0d0887"/>
    <path d="M 183.6 49.455 
L 196.2 49.455 
L 196.2 53.775 
L 183.6 53.775 
L 183.6 49.455 
" clip-path="url(#p08ddbb9c07)" style="fill: #f0f921"/>
    <path d="M 196.2 49.455 
L 208.8 49.455 
L 208.8 53.775 
L 196.2 53.775 
L 196.2 49.455 
" clip-path="url(#p08ddbb9c07)" style="fill: #f0f921"/>
    <path d="M 208.8 49.455 
L 221.4 49.455 
L 221.4 53.775 
L 208.8 53.775 
L 208.8 49.455 
" clip-path="url(#p08ddbb9c07)" style="fill: #0d0887"/>
    <path d="M 221.4 49.455 
L 234 49.455 
L 234 53.775 
L 221.4 53.775 
L 221.4 49.455 
" clip-path="url(#p08ddbb9c07)" style="fill: #fbd724"/>
    <path d="M 234 49.455 
L 246.6 49.455 
L 246.6 53.775 
L 234 53.775 
L 234 49.455 
" clip-path="url(#p08ddbb9c07)" style="fill: #0d0887"/>
    <path d="M 246.6 49.455 
L 259.2 49.455 
L 259.2 53.775 
L 246.6 53.775 
L 246.6 49.455 
" clip-path="url(#p08ddbb9c07)" style="fill: #f0f921"/>
    <path d="M 7.2 53.775 
L 19.8 53.775 
L 19.8 58.095 
L 7.2 58.095 
L 7.2 53.775 
" clip-path="url(#p08ddbb9c07)" style="fill: #0d0887"/>
    <path d="M 19.8 53.775 
L 32.4 53.775 
L 32.4 58.095 
L 19.8 58.095 
L 19.8 53.775 
" clip-path="url(#p08ddbb9c07)" style="fill: #f0f921"/>
    <path d="M 32.4 53.775 
L 45 53.775 
L 45 58.095 
L 32.4 58.095 
L 32.4 53.775 
" clip-path="url(#p08ddbb9c07)" style="fill: #f0f921"/>
    <path d="M 45 53.775 
L 57.6 53.775 
L 57.6 58.095 
L 45 58.095 
L 45 53.775 
" clip-path="url(#p08ddbb9c07)" style="fill: #f0f921"/>
    <path d="M 57.6 53.775 
L 70.2 53.775 
L 70.2 58.095 
L 57.6 58.095 
L 57.6 53.775 
" clip-path="url(#p08ddbb9c07)" style="fill: #f0f921"/>
    <path d="M 70.2 53.775 
L 82.8 53.775 
L 82.8 58.095 
L 70.2 58.095 
L 70.2 53.775 
" clip-path="url(#p08ddbb9c07)" style="fill: #3a049a"/>
    <path d="M 82.8 53.775 
L 95.4 53.775 
L 95.4 58.095 
L 82.8 58.095 
L 82.8 53.775 
" clip-path="url(#p08ddbb9c07)" style="fill: #7a02a8"/>
    <path d="M 95.4 53.775 
L 108 53.775 
L 108 58.095 
L 95.4 58.095 
L 95.4 53.775 
" clip-path="url(#p08ddbb9c07)" style="fill: #f0f921"/>
    <path d="M 108 53.775 
L 120.6 53.775 
L 120.6 58.095 
L 108 58.095 
L 108 53.775 
" clip-path="url(#p08ddbb9c07)" style="fill: #f0f921"/>
    <path d="M 120.6 53.775 
L 133.2 53.775 
L 133.2 58.095 
L 120.6 58.095 
L 120.6 53.775 
" clip-path="url(#p08ddbb9c07)" style="fill: #f0f921"/>
    <path d="M 133.2 53.775 
L 145.8 53.775 
L 145.8 58.095 
L 133.2 58.095 
L 133.2 53.775 
" clip-path="url(#p08ddbb9c07)" style="fill: #f0f921"/>
    <path d="M 145.8 53.775 
L 158.4 53.775 
L 158.4 58.095 
L 145.8 58.095 
L 145.8 53.775 
" clip-path="url(#p08ddbb9c07)" style="fill: #f0f921"/>
    <path d="M 158.4 53.775 
L 171 53.775 
L 171 58.095 
L 158.4 58.095 
L 158.4 53.775 
" clip-path="url(#p08ddbb9c07)" style="fill: #f0f921"/>
    <path d="M 171 53.775 
L 183.6 53.775 
L 183.6 58.095 
L 171 58.095 
L 171 53.775 
" clip-path="url(#p08ddbb9c07)" style="fill: #0d0887"/>
    <path d="M 183.6 53.775 
L 196.2 53.775 
L 196.2 58.095 
L 183.6 58.095 
L 183.6 53.775 
" clip-path="url(#p08ddbb9c07)" style="fill: #f0f921"/>
    <path d="M 196.2 53.775 
L 208.8 53.775 
L 208.8 58.095 
L 196.2 58.095 
L 196.2 53.775 
" clip-path="url(#p08ddbb9c07)" style="fill: #f0f921"/>
    <path d="M 208.8 53.775 
L 221.4 53.775 
L 221.4 58.095 
L 208.8 58.095 
L 208.8 53.775 
" clip-path="url(#p08ddbb9c07)" style="fill: #0d0887"/>
    <path d="M 221.4 53.775 
L 234 53.775 
L 234 58.095 
L 221.4 58.095 
L 221.4 53.775 
" clip-path="url(#p08ddbb9c07)" style="fill: #fbd724"/>
    <path d="M 234 53.775 
L 246.6 53.775 
L 246.6 58.095 
L 234 58.095 
L 234 53.775 
" clip-path="url(#p08ddbb9c07)" style="fill: #0d0887"/>
    <path d="M 246.6 53.775 
L 259.2 53.775 
L 259.2 58.095 
L 246.6 58.095 
L 246.6 53.775 
" clip-path="url(#p08ddbb9c07)" style="fill: #f0f921"/>
    <path d="M 7.2 58.095 
L 19.8 58.095 
L 19.8 62.415 
L 7.2 62.415 
L 7.2 58.095 
" clip-path="url(#p08ddbb9c07)" style="fill: #0d0887"/>
    <path d="M 19.8 58.095 
L 32.4 58.095 
L 32.4 62.415 
L 19.8 62.415 
L 19.8 58.095 
" clip-path="url(#p08ddbb9c07)" style="fill: #0d0887"/>
    <path d="M 32.4 58.095 
L 45 58.095 
L 45 62.415 
L 32.4 62.415 
L 32.4 58.095 
" clip-path="url(#p08ddbb9c07)" style="fill: #f0f921"/>
    <path d="M 45 58.095 
L 57.6 58.095 
L 57.6 62.415 
L 45 62.415 
L 45 58.095 
" clip-path="url(#p08ddbb9c07)" style="fill: #9a169f"/>
    <path d="M 57.6 58.095 
L 70.2 58.095 
L 70.2 62.415 
L 57.6 62.415 
L 57.6 58.095 
" clip-path="url(#p08ddbb9c07)" style="fill: #f0f921"/>
    <path d="M 70.2 58.095 
L 82.8 58.095 
L 82.8 62.415 
L 70.2 62.415 
L 70.2 58.095 
" clip-path="url(#p08ddbb9c07)" style="fill: #f0f921"/>
    <path d="M 82.8 58.095 
L 95.4 58.095 
L 95.4 62.415 
L 82.8 62.415 
L 82.8 58.095 
" clip-path="url(#p08ddbb9c07)" style="fill: #f0f921"/>
    <path d="M 95.4 58.095 
L 108 58.095 
L 108 62.415 
L 95.4 62.415 
L 95.4 58.095 
" clip-path="url(#p08ddbb9c07)" style="fill: #f0f921"/>
    <path d="M 108 58.095 
L 120.6 58.095 
L 120.6 62.415 
L 108 62.415 
L 108 58.095 
" clip-path="url(#p08ddbb9c07)" style="fill: #f0f921"/>
    <path d="M 120.6 58.095 
L 133.2 58.095 
L 133.2 62.415 
L 120.6 62.415 
L 120.6 58.095 
" clip-path="url(#p08ddbb9c07)" style="fill: #f0f921"/>
    <path d="M 133.2 58.095 
L 145.8 58.095 
L 145.8 62.415 
L 133.2 62.415 
L 133.2 58.095 
" clip-path="url(#p08ddbb9c07)" style="fill: #f0f921"/>
    <path d="M 145.8 58.095 
L 158.4 58.095 
L 158.4 62.415 
L 145.8 62.415 
L 145.8 58.095 
" clip-path="url(#p08ddbb9c07)" style="fill: #f0f921"/>
    <path d="M 158.4 58.095 
L 171 58.095 
L 171 62.415 
L 158.4 62.415 
L 158.4 58.095 
" clip-path="url(#p08ddbb9c07)" style="fill: #0d0887"/>
    <path d="M 171 58.095 
L 183.6 58.095 
L 183.6 62.415 
L 171 62.415 
L 171 58.095 
" clip-path="url(#p08ddbb9c07)" style="fill: #0d0887"/>
    <path d="M 183.6 58.095 
L 196.2 58.095 
L 196.2 62.415 
L 183.6 62.415 
L 183.6 58.095 
" clip-path="url(#p08ddbb9c07)" style="fill: #f0f921"/>
    <path d="M 196.2 58.095 
L 208.8 58.095 
L 208.8 62.415 
L 196.2 62.415 
L 196.2 58.095 
" clip-path="url(#p08ddbb9c07)" style="fill: #f0f921"/>
    <path d="M 208.8 58.095 
L 221.4 58.095 
L 221.4 62.415 
L 208.8 62.415 
L 208.8 58.095 
" clip-path="url(#p08ddbb9c07)" style="fill: #f0f921"/>
    <path d="M 221.4 58.095 
L 234 58.095 
L 234 62.415 
L 221.4 62.415 
L 221.4 58.095 
" clip-path="url(#p08ddbb9c07)" style="fill: #f0f921"/>
    <path d="M 234 58.095 
L 246.6 58.095 
L 246.6 62.415 
L 234 62.415 
L 234 58.095 
" clip-path="url(#p08ddbb9c07)" style="fill: #0d0887"/>
    <path d="M 246.6 58.095 
L 259.2 58.095 
L 259.2 62.415 
L 246.6 62.415 
L 246.6 58.095 
" clip-path="url(#p08ddbb9c07)" style="fill: #f0f921"/>
    <path d="M 7.2 62.415 
L 19.8 62.415 
L 19.8 66.735 
L 7.2 66.735 
L 7.2 62.415 
" clip-path="url(#p08ddbb9c07)" style="fill: #0d0887"/>
    <path d="M 19.8 62.415 
L 32.4 62.415 
L 32.4 66.735 
L 19.8 66.735 
L 19.8 62.415 
" clip-path="url(#p08ddbb9c07)" style="fill: #0d0887"/>
    <path d="M 32.4 62.415 
L 45 62.415 
L 45 66.735 
L 32.4 66.735 
L 32.4 62.415 
" clip-path="url(#p08ddbb9c07)" style="fill: #f0f921"/>
    <path d="M 45 62.415 
L 57.6 62.415 
L 57.6 66.735 
L 45 66.735 
L 45 62.415 
" clip-path="url(#p08ddbb9c07)" style="fill: #9a169f"/>
    <path d="M 57.6 62.415 
L 70.2 62.415 
L 70.2 66.735 
L 57.6 66.735 
L 57.6 62.415 
" clip-path="url(#p08ddbb9c07)" style="fill: #f0f921"/>
    <path d="M 70.2 62.415 
L 82.8 62.415 
L 82.8 66.735 
L 70.2 66.735 
L 70.2 62.415 
" clip-path="url(#p08ddbb9c07)" style="fill: #f0f921"/>
    <path d="M 82.8 62.415 
L 95.4 62.415 
L 95.4 66.735 
L 82.8 66.735 
L 82.8 62.415 
" clip-path="url(#p08ddbb9c07)" style="fill: #f0f921"/>
    <path d="M 95.4 62.415 
L 108 62.415 
L 108 66.735 
L 95.4 66.735 
L 95.4 62.415 
" clip-path="url(#p08ddbb9c07)" style="fill: #f0f921"/>
    <path d="M 108 62.415 
L 120.6 62.415 
L 120.6 66.735 
L 108 66.735 
L 108 62.415 
" clip-path="url(#p08ddbb9c07)" style="fill: #f0f921"/>
    <path d="M 120.6 62.415 
L 133.2 62.415 
L 133.2 66.735 
L 120.6 66.735 
L 120.6 62.415 
" clip-path="url(#p08ddbb9c07)" style="fill: #f0f921"/>
    <path d="M 133.2 62.415 
L 145.8 62.415 
L 145.8 66.735 
L 133.2 66.735 
L 133.2 62.415 
" clip-path="url(#p08ddbb9c07)" style="fill: #f0f921"/>
    <path d="M 145.8 62.415 
L 158.4 62.415 
L 158.4 66.735 
L 145.8 66.735 
L 145.8 62.415 
" clip-path="url(#p08ddbb9c07)" style="fill: #f0f921"/>
    <path d="M 158.4 62.415 
L 171 62.415 
L 171 66.735 
L 158.4 66.735 
L 158.4 62.415 
" clip-path="url(#p08ddbb9c07)" style="fill: #0d0887"/>
    <path d="M 171 62.415 
L 183.6 62.415 
L 183.6 66.735 
L 171 66.735 
L 171 62.415 
" clip-path="url(#p08ddbb9c07)" style="fill: #0d0887"/>
    <path d="M 183.6 62.415 
L 196.2 62.415 
L 196.2 66.735 
L 183.6 66.735 
L 183.6 62.415 
" clip-path="url(#p08ddbb9c07)" style="fill: #f0f921"/>
    <path d="M 196.2 62.415 
L 208.8 62.415 
L 208.8 66.735 
L 196.2 66.735 
L 196.2 62.415 
" clip-path="url(#p08ddbb9c07)" style="fill: #f0f921"/>
    <path d="M 208.8 62.415 
L 221.4 62.415 
L 221.4 66.735 
L 208.8 66.735 
L 208.8 62.415 
" clip-path="url(#p08ddbb9c07)" style="fill: #f0f921"/>
    <path d="M 221.4 62.415 
L 234 62.415 
L 234 66.735 
L 221.4 66.735 
L 221.4 62.415 
" clip-path="url(#p08ddbb9c07)" style="fill: #f0f921"/>
    <path d="M 234 62.415 
L 246.6 62.415 
L 246.6 66.735 
L 234 66.735 
L 234 62.415 
" clip-path="url(#p08ddbb9c07)" style="fill: #0d0887"/>
    <path d="M 246.6 62.415 
L 259.2 62.415 
L 259.2 66.735 
L 246.6 66.735 
L 246.6 62.415 
" clip-path="url(#p08ddbb9c07)" style="fill: #f0f921"/>
    <path d="M 7.2 66.735 
L 19.8 66.735 
L 19.8 71.055 
L 7.2 71.055 
L 7.2 66.735 
" clip-path="url(#p08ddbb9c07)" style="fill: #0d0887"/>
    <path d="M 19.8 66.735 
L 32.4 66.735 
L 32.4 71.055 
L 19.8 71.055 
L 19.8 66.735 
" clip-path="url(#p08ddbb9c07)" style="fill: #0d0887"/>
    <path d="M 32.4 66.735 
L 45 66.735 
L 45 71.055 
L 32.4 71.055 
L 32.4 66.735 
" clip-path="url(#p08ddbb9c07)" style="fill: #f0f921"/>
    <path d="M 45 66.735 
L 57.6 66.735 
L 57.6 71.055 
L 45 71.055 
L 45 66.735 
" clip-path="url(#p08ddbb9c07)" style="fill: #9a169f"/>
    <path d="M 57.6 66.735 
L 70.2 66.735 
L 70.2 71.055 
L 57.6 71.055 
L 57.6 66.735 
" clip-path="url(#p08ddbb9c07)" style="fill: #f0f921"/>
    <path d="M 70.2 66.735 
L 82.8 66.735 
L 82.8 71.055 
L 70.2 71.055 
L 70.2 66.735 
" clip-path="url(#p08ddbb9c07)" style="fill: #f0f921"/>
    <path d="M 82.8 66.735 
L 95.4 66.735 
L 95.4 71.055 
L 82.8 71.055 
L 82.8 66.735 
" clip-path="url(#p08ddbb9c07)" style="fill: #f0f921"/>
    <path d="M 95.4 66.735 
L 108 66.735 
L 108 71.055 
L 95.4 71.055 
L 95.4 66.735 
" clip-path="url(#p08ddbb9c07)" style="fill: #f0f921"/>
    <path d="M 108 66.735 
L 120.6 66.735 
L 120.6 71.055 
L 108 71.055 
L 108 66.735 
" clip-path="url(#p08ddbb9c07)" style="fill: #f0f921"/>
    <path d="M 120.6 66.735 
L 133.2 66.735 
L 133.2 71.055 
L 120.6 71.055 
L 120.6 66.735 
" clip-path="url(#p08ddbb9c07)" style="fill: #f0f921"/>
    <path d="M 133.2 66.735 
L 145.8 66.735 
L 145.8 71.055 
L 133.2 71.055 
L 133.2 66.735 
" clip-path="url(#p08ddbb9c07)" style="fill: #f0f921"/>
    <path d="M 145.8 66.735 
L 158.4 66.735 
L 158.4 71.055 
L 145.8 71.055 
L 145.8 66.735 
" clip-path="url(#p08ddbb9c07)" style="fill: #f0f921"/>
    <path d="M 158.4 66.735 
L 171 66.735 
L 171 71.055 
L 158.4 71.055 
L 158.4 66.735 
" clip-path="url(#p08ddbb9c07)" style="fill: #0d0887"/>
    <path d="M 171 66.735 
L 183.6 66.735 
L 183.6 71.055 
L 171 71.055 
L 171 66.735 
" clip-path="url(#p08ddbb9c07)" style="fill: #0d0887"/>
    <path d="M 183.6 66.735 
L 196.2 66.735 
L 196.2 71.055 
L 183.6 71.055 
L 183.6 66.735 
" clip-path="url(#p08ddbb9c07)" style="fill: #f0f921"/>
    <path d="M 196.2 66.735 
L 208.8 66.735 
L 208.8 71.055 
L 196.2 71.055 
L 196.2 66.735 
" clip-path="url(#p08ddbb9c07)" style="fill: #f0f921"/>
    <path d="M 208.8 66.735 
L 221.4 66.735 
L 221.4 71.055 
L 208.8 71.055 
L 208.8 66.735 
" clip-path="url(#p08ddbb9c07)" style="fill: #f0f921"/>
    <path d="M 221.4 66.735 
L 234 66.735 
L 234 71.055 
L 221.4 71.055 
L 221.4 66.735 
" clip-path="url(#p08ddbb9c07)" style="fill: #f0f921"/>
    <path d="M 234 66.735 
L 246.6 66.735 
L 246.6 71.055 
L 234 71.055 
L 234 66.735 
" clip-path="url(#p08ddbb9c07)" style="fill: #0d0887"/>
    <path d="M 246.6 66.735 
L 259.2 66.735 
L 259.2 71.055 
L 246.6 71.055 
L 246.6 66.735 
" clip-path="url(#p08ddbb9c07)" style="fill: #f0f921"/>
    <path d="M 7.2 71.055 
L 19.8 71.055 
L 19.8 75.375 
L 7.2 75.375 
L 7.2 71.055 
" clip-path="url(#p08ddbb9c07)" style="fill: #0d0887"/>
    <path d="M 19.8 71.055 
L 32.4 71.055 
L 32.4 75.375 
L 19.8 75.375 
L 19.8 71.055 
" clip-path="url(#p08ddbb9c07)" style="fill: #0d0887"/>
    <path d="M 32.4 71.055 
L 45 71.055 
L 45 75.375 
L 32.4 75.375 
L 32.4 71.055 
" clip-path="url(#p08ddbb9c07)" style="fill: #f0f921"/>
    <path d="M 45 71.055 
L 57.6 71.055 
L 57.6 75.375 
L 45 75.375 
L 45 71.055 
" clip-path="url(#p08ddbb9c07)" style="fill: #9a169f"/>
    <path d="M 57.6 71.055 
L 70.2 71.055 
L 70.2 75.375 
L 57.6 75.375 
L 57.6 71.055 
" clip-path="url(#p08ddbb9c07)" style="fill: #f0f921"/>
    <path d="M 70.2 71.055 
L 82.8 71.055 
L 82.8 75.375 
L 70.2 75.375 
L 70.2 71.055 
" clip-path="url(#p08ddbb9c07)" style="fill: #f0f921"/>
    <path d="M 82.8 71.055 
L 95.4 71.055 
L 95.4 75.375 
L 82.8 75.375 
L 82.8 71.055 
" clip-path="url(#p08ddbb9c07)" style="fill: #f0f921"/>
    <path d="M 95.4 71.055 
L 108 71.055 
L 108 75.375 
L 95.4 75.375 
L 95.4 71.055 
" clip-path="url(#p08ddbb9c07)" style="fill: #f0f921"/>
    <path d="M 108 71.055 
L 120.6 71.055 
L 120.6 75.375 
L 108 75.375 
L 108 71.055 
" clip-path="url(#p08ddbb9c07)" style="fill: #f0f921"/>
    <path d="M 120.6 71.055 
L 133.2 71.055 
L 133.2 75.375 
L 120.6 75.375 
L 120.6 71.055 
" clip-path="url(#p08ddbb9c07)" style="fill: #f0f921"/>
    <path d="M 133.2 71.055 
L 145.8 71.055 
L 145.8 75.375 
L 133.2 75.375 
L 133.2 71.055 
" clip-path="url(#p08ddbb9c07)" style="fill: #f0f921"/>
    <path d="M 145.8 71.055 
L 158.4 71.055 
L 158.4 75.375 
L 145.8 75.375 
L 145.8 71.055 
" clip-path="url(#p08ddbb9c07)" style="fill: #f0f921"/>
    <path d="M 158.4 71.055 
L 171 71.055 
L 171 75.375 
L 158.4 75.375 
L 158.4 71.055 
" clip-path="url(#p08ddbb9c07)" style="fill: #0d0887"/>
    <path d="M 171 71.055 
L 183.6 71.055 
L 183.6 75.375 
L 171 75.375 
L 171 71.055 
" clip-path="url(#p08ddbb9c07)" style="fill: #0d0887"/>
    <path d="M 183.6 71.055 
L 196.2 71.055 
L 196.2 75.375 
L 183.6 75.375 
L 183.6 71.055 
" clip-path="url(#p08ddbb9c07)" style="fill: #f0f921"/>
    <path d="M 196.2 71.055 
L 208.8 71.055 
L 208.8 75.375 
L 196.2 75.375 
L 196.2 71.055 
" clip-path="url(#p08ddbb9c07)" style="fill: #f0f921"/>
    <path d="M 208.8 71.055 
L 221.4 71.055 
L 221.4 75.375 
L 208.8 75.375 
L 208.8 71.055 
" clip-path="url(#p08ddbb9c07)" style="fill: #f0f921"/>
    <path d="M 221.4 71.055 
L 234 71.055 
L 234 75.375 
L 221.4 75.375 
L 221.4 71.055 
" clip-path="url(#p08ddbb9c07)" style="fill: #f0f921"/>
    <path d="M 234 71.055 
L 246.6 71.055 
L 246.6 75.375 
L 234 75.375 
L 234 71.055 
" clip-path="url(#p08ddbb9c07)" style="fill: #0d0887"/>
    <path d="M 246.6 71.055 
L 259.2 71.055 
L 259.2 75.375 
L 246.6 75.375 
L 246.6 71.055 
" clip-path="url(#p08ddbb9c07)" style="fill: #f0f921"/>
    <path d="M 7.2 75.375 
L 19.8 75.375 
L 19.8 79.695 
L 7.2 79.695 
L 7.2 75.375 
" clip-path="url(#p08ddbb9c07)" style="fill: #f0f921"/>
    <path d="M 19.8 75.375 
L 32.4 75.375 
L 32.4 79.695 
L 19.8 79.695 
L 19.8 75.375 
" clip-path="url(#p08ddbb9c07)" style="fill: #f0f921"/>
    <path d="M 32.4 75.375 
L 45 75.375 
L 45 79.695 
L 32.4 79.695 
L 32.4 75.375 
" clip-path="url(#p08ddbb9c07)" style="fill: #f0f921"/>
    <path d="M 45 75.375 
L 57.6 75.375 
L 57.6 79.695 
L 45 79.695 
L 45 75.375 
" clip-path="url(#p08ddbb9c07)" style="fill: #f0f921"/>
    <path d="M 57.6 75.375 
L 70.2 75.375 
L 70.2 79.695 
L 57.6 79.695 
L 57.6 75.375 
" clip-path="url(#p08ddbb9c07)" style="fill: #f0f921"/>
    <path d="M 70.2 75.375 
L 82.8 75.375 
L 82.8 79.695 
L 70.2 79.695 
L 70.2 75.375 
" clip-path="url(#p08ddbb9c07)" style="fill: #f0f921"/>
    <path d="M 82.8 75.375 
L 95.4 75.375 
L 95.4 79.695 
L 82.8 79.695 
L 82.8 75.375 
" clip-path="url(#p08ddbb9c07)" style="fill: #f0f921"/>
    <path d="M 95.4 75.375 
L 108 75.375 
L 108 79.695 
L 95.4 79.695 
L 95.4 75.375 
" clip-path="url(#p08ddbb9c07)" style="fill: #f0f921"/>
    <path d="M 108 75.375 
L 120.6 75.375 
L 120.6 79.695 
L 108 79.695 
L 108 75.375 
" clip-path="url(#p08ddbb9c07)" style="fill: #f0f921"/>
    <path d="M 120.6 75.375 
L 133.2 75.375 
L 133.2 79.695 
L 120.6 79.695 
L 120.6 75.375 
" clip-path="url(#p08ddbb9c07)" style="fill: #f0f921"/>
    <path d="M 133.2 75.375 
L 145.8 75.375 
L 145.8 79.695 
L 133.2 79.695 
L 133.2 75.375 
" clip-path="url(#p08ddbb9c07)" style="fill: #f0f921"/>
    <path d="M 145.8 75.375 
L 158.4 75.375 
L 158.4 79.695 
L 145.8 79.695 
L 145.8 75.375 
" clip-path="url(#p08ddbb9c07)" style="fill: #f0f921"/>
    <path d="M 158.4 75.375 
L 171 75.375 
L 171 79.695 
L 158.4 79.695 
L 158.4 75.375 
" clip-path="url(#p08ddbb9c07)" style="fill: #f0f921"/>
    <path d="M 171 75.375 
L 183.6 75.375 
L 183.6 79.695 
L 171 79.695 
L 171 75.375 
" clip-path="url(#p08ddbb9c07)" style="fill: #0d0887"/>
    <path d="M 183.6 75.375 
L 196.2 75.375 
L 196.2 79.695 
L 183.6 79.695 
L 183.6 75.375 
" clip-path="url(#p08ddbb9c07)" style="fill: #f0f921"/>
    <path d="M 196.2 75.375 
L 208.8 75.375 
L 208.8 79.695 
L 196.2 79.695 
L 196.2 75.375 
" clip-path="url(#p08ddbb9c07)" style="fill: #f0f921"/>
    <path d="M 208.8 75.375 
L 221.4 75.375 
L 221.4 79.695 
L 208.8 79.695 
L 208.8 75.375 
" clip-path="url(#p08ddbb9c07)" style="fill: #f0f921"/>
    <path d="M 221.4 75.375 
L 234 75.375 
L 234 79.695 
L 221.4 79.695 
L 221.4 75.375 
" clip-path="url(#p08ddbb9c07)" style="fill: #f0f921"/>
    <path d="M 234 75.375 
L 246.6 75.375 
L 246.6 79.695 
L 234 79.695 
L 234 75.375 
" clip-path="url(#p08ddbb9c07)" style="fill: #f0f921"/>
    <path d="M 246.6 75.375 
L 259.2 75.375 
L 259.2 79.695 
L 246.6 79.695 
L 246.6 75.375 
" clip-path="url(#p08ddbb9c07)" style="fill: #f0f921"/>
    <path d="M 7.2 79.695 
L 19.8 79.695 
L 19.8 84.015 
L 7.2 84.015 
L 7.2 79.695 
" clip-path="url(#p08ddbb9c07)" style="fill: #f0f921"/>
    <path d="M 19.8 79.695 
L 32.4 79.695 
L 32.4 84.015 
L 19.8 84.015 
L 19.8 79.695 
" clip-path="url(#p08ddbb9c07)" style="fill: #f0f921"/>
    <path d="M 32.4 79.695 
L 45 79.695 
L 45 84.015 
L 32.4 84.015 
L 32.4 79.695 
" clip-path="url(#p08ddbb9c07)" style="fill: #f0f921"/>
    <path d="M 45 79.695 
L 57.6 79.695 
L 57.6 84.015 
L 45 84.015 
L 45 79.695 
" clip-path="url(#p08ddbb9c07)" style="fill: #f0f921"/>
    <path d="M 57.6 79.695 
L 70.2 79.695 
L 70.2 84.015 
L 57.6 84.015 
L 57.6 79.695 
" clip-path="url(#p08ddbb9c07)" style="fill: #f0f921"/>
    <path d="M 70.2 79.695 
L 82.8 79.695 
L 82.8 84.015 
L 70.2 84.015 
L 70.2 79.695 
" clip-path="url(#p08ddbb9c07)" style="fill: #f0f921"/>
    <path d="M 82.8 79.695 
L 95.4 79.695 
L 95.4 84.015 
L 82.8 84.015 
L 82.8 79.695 
" clip-path="url(#p08ddbb9c07)" style="fill: #f0f921"/>
    <path d="M 95.4 79.695 
L 108 79.695 
L 108 84.015 
L 95.4 84.015 
L 95.4 79.695 
" clip-path="url(#p08ddbb9c07)" style="fill: #f0f921"/>
    <path d="M 108 79.695 
L 120.6 79.695 
L 120.6 84.015 
L 108 84.015 
L 108 79.695 
" clip-path="url(#p08ddbb9c07)" style="fill: #f0f921"/>
    <path d="M 120.6 79.695 
L 133.2 79.695 
L 133.2 84.015 
L 120.6 84.015 
L 120.6 79.695 
" clip-path="url(#p08ddbb9c07)" style="fill: #f0f921"/>
    <path d="M 133.2 79.695 
L 145.8 79.695 
L 145.8 84.015 
L 133.2 84.015 
L 133.2 79.695 
" clip-path="url(#p08ddbb9c07)" style="fill: #f0f921"/>
    <path d="M 145.8 79.695 
L 158.4 79.695 
L 158.4 84.015 
L 145.8 84.015 
L 145.8 79.695 
" clip-path="url(#p08ddbb9c07)" style="fill: #f0f921"/>
    <path d="M 158.4 79.695 
L 171 79.695 
L 171 84.015 
L 158.4 84.015 
L 158.4 79.695 
" clip-path="url(#p08ddbb9c07)" style="fill: #f0f921"/>
    <path d="M 171 79.695 
L 183.6 79.695 
L 183.6 84.015 
L 171 84.015 
L 171 79.695 
" clip-path="url(#p08ddbb9c07)" style="fill: #0d0887"/>
    <path d="M 183.6 79.695 
L 196.2 79.695 
L 196.2 84.015 
L 183.6 84.015 
L 183.6 79.695 
" clip-path="url(#p08ddbb9c07)" style="fill: #f0f921"/>
    <path d="M 196.2 79.695 
L 208.8 79.695 
L 208.8 84.015 
L 196.2 84.015 
L 196.2 79.695 
" clip-path="url(#p08ddbb9c07)" style="fill: #f0f921"/>
    <path d="M 208.8 79.695 
L 221.4 79.695 
L 221.4 84.015 
L 208.8 84.015 
L 208.8 79.695 
" clip-path="url(#p08ddbb9c07)" style="fill: #f0f921"/>
    <path d="M 221.4 79.695 
L 234 79.695 
L 234 84.015 
L 221.4 84.015 
L 221.4 79.695 
" clip-path="url(#p08ddbb9c07)" style="fill: #f0f921"/>
    <path d="M 234 79.695 
L 246.6 79.695 
L 246.6 84.015 
L 234 84.015 
L 234 79.695 
" clip-path="url(#p08ddbb9c07)" style="fill: #f0f921"/>
    <path d="M 246.6 79.695 
L 259.2 79.695 
L 259.2 84.015 
L 246.6 84.015 
L 246.6 79.695 
" clip-path="url(#p08ddbb9c07)" style="fill: #f0f921"/>
    <path d="M 7.2 84.015 
L 19.8 84.015 
L 19.8 88.335 
L 7.2 88.335 
L 7.2 84.015 
" clip-path="url(#p08ddbb9c07)" style="fill: #f0f921"/>
    <path d="M 19.8 84.015 
L 32.4 84.015 
L 32.4 88.335 
L 19.8 88.335 
L 19.8 84.015 
" clip-path="url(#p08ddbb9c07)" style="fill: #f0f921"/>
    <path d="M 32.4 84.015 
L 45 84.015 
L 45 88.335 
L 32.4 88.335 
L 32.4 84.015 
" clip-path="url(#p08ddbb9c07)" style="fill: #f0f921"/>
    <path d="M 45 84.015 
L 57.6 84.015 
L 57.6 88.335 
L 45 88.335 
L 45 84.015 
" clip-path="url(#p08ddbb9c07)" style="fill: #f0f921"/>
    <path d="M 57.6 84.015 
L 70.2 84.015 
L 70.2 88.335 
L 57.6 88.335 
L 57.6 84.015 
" clip-path="url(#p08ddbb9c07)" style="fill: #f0f921"/>
    <path d="M 70.2 84.015 
L 82.8 84.015 
L 82.8 88.335 
L 70.2 88.335 
L 70.2 84.015 
" clip-path="url(#p08ddbb9c07)" style="fill: #f0f921"/>
    <path d="M 82.8 84.015 
L 95.4 84.015 
L 95.4 88.335 
L 82.8 88.335 
L 82.8 84.015 
" clip-path="url(#p08ddbb9c07)" style="fill: #f0f921"/>
    <path d="M 95.4 84.015 
L 108 84.015 
L 108 88.335 
L 95.4 88.335 
L 95.4 84.015 
" clip-path="url(#p08ddbb9c07)" style="fill: #f0f921"/>
    <path d="M 108 84.015 
L 120.6 84.015 
L 120.6 88.335 
L 108 88.335 
L 108 84.015 
" clip-path="url(#p08ddbb9c07)" style="fill: #f0f921"/>
    <path d="M 120.6 84.015 
L 133.2 84.015 
L 133.2 88.335 
L 120.6 88.335 
L 120.6 84.015 
" clip-path="url(#p08ddbb9c07)" style="fill: #f0f921"/>
    <path d="M 133.2 84.015 
L 145.8 84.015 
L 145.8 88.335 
L 133.2 88.335 
L 133.2 84.015 
" clip-path="url(#p08ddbb9c07)" style="fill: #f0f921"/>
    <path d="M 145.8 84.015 
L 158.4 84.015 
L 158.4 88.335 
L 145.8 88.335 
L 145.8 84.015 
" clip-path="url(#p08ddbb9c07)" style="fill: #f0f921"/>
    <path d="M 158.4 84.015 
L 171 84.015 
L 171 88.335 
L 158.4 88.335 
L 158.4 84.015 
" clip-path="url(#p08ddbb9c07)" style="fill: #f0f921"/>
    <path d="M 171 84.015 
L 183.6 84.015 
L 183.6 88.335 
L 171 88.335 
L 171 84.015 
" clip-path="url(#p08ddbb9c07)" style="fill: #f0f921"/>
    <path d="M 183.6 84.015 
L 196.2 84.015 
L 196.2 88.335 
L 183.6 88.335 
L 183.6 84.015 
" clip-path="url(#p08ddbb9c07)" style="fill: #f0f921"/>
    <path d="M 196.2 84.015 
L 208.8 84.015 
L 208.8 88.335 
L 196.2 88.335 
L 196.2 84.015 
" clip-path="url(#p08ddbb9c07)" style="fill: #f0f921"/>
    <path d="M 208.8 84.015 
L 221.4 84.015 
L 221.4 88.335 
L 208.8 88.335 
L 208.8 84.015 
" clip-path="url(#p08ddbb9c07)" style="fill: #f0f921"/>
    <path d="M 221.4 84.015 
L 234 84.015 
L 234 88.335 
L 221.4 88.335 
L 221.4 84.015 
" clip-path="url(#p08ddbb9c07)" style="fill: #f0f921"/>
    <path d="M 234 84.015 
L 246.6 84.015 
L 246.6 88.335 
L 234 88.335 
L 234 84.015 
" clip-path="url(#p08ddbb9c07)" style="fill: #f0f921"/>
    <path d="M 246.6 84.015 
L 259.2 84.015 
L 259.2 88.335 
L 246.6 88.335 
L 246.6 84.015 
" clip-path="url(#p08ddbb9c07)" style="fill: #f0f921"/>
    <path d="M 7.2 88.335 
L 19.8 88.335 
L 19.8 92.655 
L 7.2 92.655 
L 7.2 88.335 
" clip-path="url(#p08ddbb9c07)" style="fill: #f0f921"/>
    <path d="M 19.8 88.335 
L 32.4 88.335 
L 32.4 92.655 
L 19.8 92.655 
L 19.8 88.335 
" clip-path="url(#p08ddbb9c07)" style="fill: #f0f921"/>
    <path d="M 32.4 88.335 
L 45 88.335 
L 45 92.655 
L 32.4 92.655 
L 32.4 88.335 
" clip-path="url(#p08ddbb9c07)" style="fill: #f0f921"/>
    <path d="M 45 88.335 
L 57.6 88.335 
L 57.6 92.655 
L 45 92.655 
L 45 88.335 
" clip-path="url(#p08ddbb9c07)" style="fill: #f0f921"/>
    <path d="M 57.6 88.335 
L 70.2 88.335 
L 70.2 92.655 
L 57.6 92.655 
L 57.6 88.335 
" clip-path="url(#p08ddbb9c07)" style="fill: #f0f921"/>
    <path d="M 70.2 88.335 
L 82.8 88.335 
L 82.8 92.655 
L 70.2 92.655 
L 70.2 88.335 
" clip-path="url(#p08ddbb9c07)" style="fill: #f0f921"/>
    <path d="M 82.8 88.335 
L 95.4 88.335 
L 95.4 92.655 
L 82.8 92.655 
L 82.8 88.335 
" clip-path="url(#p08ddbb9c07)" style="fill: #f0f921"/>
    <path d="M 95.4 88.335 
L 108 88.335 
L 108 92.655 
L 95.4 92.655 
L 95.4 88.335 
" clip-path="url(#p08ddbb9c07)" style="fill: #f0f921"/>
    <path d="M 108 88.335 
L 120.6 88.335 
L 120.6 92.655 
L 108 92.655 
L 108 88.335 
" clip-path="url(#p08ddbb9c07)" style="fill: #f0f921"/>
    <path d="M 120.6 88.335 
L 133.2 88.335 
L 133.2 92.655 
L 120.6 92.655 
L 120.6 88.335 
" clip-path="url(#p08ddbb9c07)" style="fill: #f0f921"/>
    <path d="M 133.2 88.335 
L 145.8 88.335 
L 145.8 92.655 
L 133.2 92.655 
L 133.2 88.335 
" clip-path="url(#p08ddbb9c07)" style="fill: #f0f921"/>
    <path d="M 145.8 88.335 
L 158.4 88.335 
L 158.4 92.655 
L 145.8 92.655 
L 145.8 88.335 
" clip-path="url(#p08ddbb9c07)" style="fill: #f0f921"/>
    <path d="M 158.4 88.335 
L 171 88.335 
L 171 92.655 
L 158.4 92.655 
L 158.4 88.335 
" clip-path="url(#p08ddbb9c07)" style="fill: #f0f921"/>
    <path d="M 171 88.335 
L 183.6 88.335 
L 183.6 92.655 
L 171 92.655 
L 171 88.335 
" clip-path="url(#p08ddbb9c07)" style="fill: #f0f921"/>
    <path d="M 183.6 88.335 
L 196.2 88.335 
L 196.2 92.655 
L 183.6 92.655 
L 183.6 88.335 
" clip-path="url(#p08ddbb9c07)" style="fill: #f0f921"/>
    <path d="M 196.2 88.335 
L 208.8 88.335 
L 208.8 92.655 
L 196.2 92.655 
L 196.2 88.335 
" clip-path="url(#p08ddbb9c07)" style="fill: #f0f921"/>
    <path d="M 208.8 88.335 
L 221.4 88.335 
L 221.4 92.655 
L 208.8 92.655 
L 208.8 88.335 
" clip-path="url(#p08ddbb9c07)" style="fill: #f0f921"/>
    <path d="M 221.4 88.335 
L 234 88.335 
L 234 92.655 
L 221.4 92.655 
L 221.4 88.335 
" clip-path="url(#p08ddbb9c07)" style="fill: #f0f921"/>
    <path d="M 234 88.335 
L 246.6 88.335 
L 246.6 92.655 
L 234 92.655 
L 234 88.335 
" clip-path="url(#p08ddbb9c07)" style="fill: #f0f921"/>
    <path d="M 246.6 88.335 
L 259.2 88.335 
L 259.2 92.655 
L 246.6 92.655 
L 246.6 88.335 
" clip-path="url(#p08ddbb9c07)" style="fill: #f0f921"/>
    <path d="M 7.2 92.655 
L 19.8 92.655 
L 19.8 96.975 
L 7.2 96.975 
L 7.2 92.655 
" clip-path="url(#p08ddbb9c07)" style="fill: #f0f921"/>
    <path d="M 19.8 92.655 
L 32.4 92.655 
L 32.4 96.975 
L 19.8 96.975 
L 19.8 92.655 
" clip-path="url(#p08ddbb9c07)" style="fill: #f0f921"/>
    <path d="M 32.4 92.655 
L 45 92.655 
L 45 96.975 
L 32.4 96.975 
L 32.4 92.655 
" clip-path="url(#p08ddbb9c07)" style="fill: #f0f921"/>
    <path d="M 45 92.655 
L 57.6 92.655 
L 57.6 96.975 
L 45 96.975 
L 45 92.655 
" clip-path="url(#p08ddbb9c07)" style="fill: #f0f921"/>
    <path d="M 57.6 92.655 
L 70.2 92.655 
L 70.2 96.975 
L 57.6 96.975 
L 57.6 92.655 
" clip-path="url(#p08ddbb9c07)" style="fill: #f0f921"/>
    <path d="M 70.2 92.655 
L 82.8 92.655 
L 82.8 96.975 
L 70.2 96.975 
L 70.2 92.655 
" clip-path="url(#p08ddbb9c07)" style="fill: #f0f921"/>
    <path d="M 82.8 92.655 
L 95.4 92.655 
L 95.4 96.975 
L 82.8 96.975 
L 82.8 92.655 
" clip-path="url(#p08ddbb9c07)" style="fill: #f0f921"/>
    <path d="M 95.4 92.655 
L 108 92.655 
L 108 96.975 
L 95.4 96.975 
L 95.4 92.655 
" clip-path="url(#p08ddbb9c07)" style="fill: #f0f921"/>
    <path d="M 108 92.655 
L 120.6 92.655 
L 120.6 96.975 
L 108 96.975 
L 108 92.655 
" clip-path="url(#p08ddbb9c07)" style="fill: #f0f921"/>
    <path d="M 120.6 92.655 
L 133.2 92.655 
L 133.2 96.975 
L 120.6 96.975 
L 120.6 92.655 
" clip-path="url(#p08ddbb9c07)" style="fill: #f0f921"/>
    <path d="M 133.2 92.655 
L 145.8 92.655 
L 145.8 96.975 
L 133.2 96.975 
L 133.2 92.655 
" clip-path="url(#p08ddbb9c07)" style="fill: #f0f921"/>
    <path d="M 145.8 92.655 
L 158.4 92.655 
L 158.4 96.975 
L 145.8 96.975 
L 145.8 92.655 
" clip-path="url(#p08ddbb9c07)" style="fill: #f0f921"/>
    <path d="M 158.4 92.655 
L 171 92.655 
L 171 96.975 
L 158.4 96.975 
L 158.4 92.655 
" clip-path="url(#p08ddbb9c07)" style="fill: #f0f921"/>
    <path d="M 171 92.655 
L 183.6 92.655 
L 183.6 96.975 
L 171 96.975 
L 171 92.655 
" clip-path="url(#p08ddbb9c07)" style="fill: #f0f921"/>
    <path d="M 183.6 92.655 
L 196.2 92.655 
L 196.2 96.975 
L 183.6 96.975 
L 183.6 92.655 
" clip-path="url(#p08ddbb9c07)" style="fill: #f0f921"/>
    <path d="M 196.2 92.655 
L 208.8 92.655 
L 208.8 96.975 
L 196.2 96.975 
L 196.2 92.655 
" clip-path="url(#p08ddbb9c07)" style="fill: #f0f921"/>
    <path d="M 208.8 92.655 
L 221.4 92.655 
L 221.4 96.975 
L 208.8 96.975 
L 208.8 92.655 
" clip-path="url(#p08ddbb9c07)" style="fill: #f0f921"/>
    <path d="M 221.4 92.655 
L 234 92.655 
L 234 96.975 
L 221.4 96.975 
L 221.4 92.655 
" clip-path="url(#p08ddbb9c07)" style="fill: #f0f921"/>
    <path d="M 234 92.655 
L 246.6 92.655 
L 246.6 96.975 
L 234 96.975 
L 234 92.655 
" clip-path="url(#p08ddbb9c07)" style="fill: #f0f921"/>
    <path d="M 246.6 92.655 
L 259.2 92.655 
L 259.2 96.975 
L 246.6 96.975 
L 246.6 92.655 
" clip-path="url(#p08ddbb9c07)" style="fill: #f0f921"/>
    <path d="M 7.2 96.975 
L 19.8 96.975 
L 19.8 101.295 
L 7.2 101.295 
L 7.2 96.975 
" clip-path="url(#p08ddbb9c07)" style="fill: #f0f921"/>
    <path d="M 19.8 96.975 
L 32.4 96.975 
L 32.4 101.295 
L 19.8 101.295 
L 19.8 96.975 
" clip-path="url(#p08ddbb9c07)" style="fill: #f0f921"/>
    <path d="M 32.4 96.975 
L 45 96.975 
L 45 101.295 
L 32.4 101.295 
L 32.4 96.975 
" clip-path="url(#p08ddbb9c07)" style="fill: #f0f921"/>
    <path d="M 45 96.975 
L 57.6 96.975 
L 57.6 101.295 
L 45 101.295 
L 45 96.975 
" clip-path="url(#p08ddbb9c07)" style="fill: #f0f921"/>
    <path d="M 57.6 96.975 
L 70.2 96.975 
L 70.2 101.295 
L 57.6 101.295 
L 57.6 96.975 
" clip-path="url(#p08ddbb9c07)" style="fill: #f0f921"/>
    <path d="M 70.2 96.975 
L 82.8 96.975 
L 82.8 101.295 
L 70.2 101.295 
L 70.2 96.975 
" clip-path="url(#p08ddbb9c07)" style="fill: #f0f921"/>
    <path d="M 82.8 96.975 
L 95.4 96.975 
L 95.4 101.295 
L 82.8 101.295 
L 82.8 96.975 
" clip-path="url(#p08ddbb9c07)" style="fill: #f0f921"/>
    <path d="M 95.4 96.975 
L 108 96.975 
L 108 101.295 
L 95.4 101.295 
L 95.4 96.975 
" clip-path="url(#p08ddbb9c07)" style="fill: #f0f921"/>
    <path d="M 108 96.975 
L 120.6 96.975 
L 120.6 101.295 
L 108 101.295 
L 108 96.975 
" clip-path="url(#p08ddbb9c07)" style="fill: #f0f921"/>
    <path d="M 120.6 96.975 
L 133.2 96.975 
L 133.2 101.295 
L 120.6 101.295 
L 120.6 96.975 
" clip-path="url(#p08ddbb9c07)" style="fill: #f0f921"/>
    <path d="M 133.2 96.975 
L 145.8 96.975 
L 145.8 101.295 
L 133.2 101.295 
L 133.2 96.975 
" clip-path="url(#p08ddbb9c07)" style="fill: #f0f921"/>
    <path d="M 145.8 96.975 
L 158.4 96.975 
L 158.4 101.295 
L 145.8 101.295 
L 145.8 96.975 
" clip-path="url(#p08ddbb9c07)" style="fill: #f0f921"/>
    <path d="M 158.4 96.975 
L 171 96.975 
L 171 101.295 
L 158.4 101.295 
L 158.4 96.975 
" clip-path="url(#p08ddbb9c07)" style="fill: #f0f921"/>
    <path d="M 171 96.975 
L 183.6 96.975 
L 183.6 101.295 
L 171 101.295 
L 171 96.975 
" clip-path="url(#p08ddbb9c07)" style="fill: #f0f921"/>
    <path d="M 183.6 96.975 
L 196.2 96.975 
L 196.2 101.295 
L 183.6 101.295 
L 183.6 96.975 
" clip-path="url(#p08ddbb9c07)" style="fill: #f0f921"/>
    <path d="M 196.2 96.975 
L 208.8 96.975 
L 208.8 101.295 
L 196.2 101.295 
L 196.2 96.975 
" clip-path="url(#p08ddbb9c07)" style="fill: #f0f921"/>
    <path d="M 208.8 96.975 
L 221.4 96.975 
L 221.4 101.295 
L 208.8 101.295 
L 208.8 96.975 
" clip-path="url(#p08ddbb9c07)" style="fill: #f0f921"/>
    <path d="M 221.4 96.975 
L 234 96.975 
L 234 101.295 
L 221.4 101.295 
L 221.4 96.975 
" clip-path="url(#p08ddbb9c07)" style="fill: #f0f921"/>
    <path d="M 234 96.975 
L 246.6 96.975 
L 246.6 101.295 
L 234 101.295 
L 234 96.975 
" clip-path="url(#p08ddbb9c07)" style="fill: #f0f921"/>
    <path d="M 246.6 96.975 
L 259.2 96.975 
L 259.2 101.295 
L 246.6 101.295 
L 246.6 96.975 
" clip-path="url(#p08ddbb9c07)" style="fill: #f0f921"/>
    <path d="M 7.2 101.295 
L 19.8 101.295 
L 19.8 105.615 
L 7.2 105.615 
L 7.2 101.295 
" clip-path="url(#p08ddbb9c07)" style="fill: #f0f921"/>
    <path d="M 19.8 101.295 
L 32.4 101.295 
L 32.4 105.615 
L 19.8 105.615 
L 19.8 101.295 
" clip-path="url(#p08ddbb9c07)" style="fill: #f0f921"/>
    <path d="M 32.4 101.295 
L 45 101.295 
L 45 105.615 
L 32.4 105.615 
L 32.4 101.295 
" clip-path="url(#p08ddbb9c07)" style="fill: #f0f921"/>
    <path d="M 45 101.295 
L 57.6 101.295 
L 57.6 105.615 
L 45 105.615 
L 45 101.295 
" clip-path="url(#p08ddbb9c07)" style="fill: #f0f921"/>
    <path d="M 57.6 101.295 
L 70.2 101.295 
L 70.2 105.615 
L 57.6 105.615 
L 57.6 101.295 
" clip-path="url(#p08ddbb9c07)" style="fill: #f0f921"/>
    <path d="M 70.2 101.295 
L 82.8 101.295 
L 82.8 105.615 
L 70.2 105.615 
L 70.2 101.295 
" clip-path="url(#p08ddbb9c07)" style="fill: #f0f921"/>
    <path d="M 82.8 101.295 
L 95.4 101.295 
L 95.4 105.615 
L 82.8 105.615 
L 82.8 101.295 
" clip-path="url(#p08ddbb9c07)" style="fill: #f0f921"/>
    <path d="M 95.4 101.295 
L 108 101.295 
L 108 105.615 
L 95.4 105.615 
L 95.4 101.295 
" clip-path="url(#p08ddbb9c07)" style="fill: #f0f921"/>
    <path d="M 108 101.295 
L 120.6 101.295 
L 120.6 105.615 
L 108 105.615 
L 108 101.295 
" clip-path="url(#p08ddbb9c07)" style="fill: #f0f921"/>
    <path d="M 120.6 101.295 
L 133.2 101.295 
L 133.2 105.615 
L 120.6 105.615 
L 120.6 101.295 
" clip-path="url(#p08ddbb9c07)" style="fill: #f0f921"/>
    <path d="M 133.2 101.295 
L 145.8 101.295 
L 145.8 105.615 
L 133.2 105.615 
L 133.2 101.295 
" clip-path="url(#p08ddbb9c07)" style="fill: #f0f921"/>
    <path d="M 145.8 101.295 
L 158.4 101.295 
L 158.4 105.615 
L 145.8 105.615 
L 145.8 101.295 
" clip-path="url(#p08ddbb9c07)" style="fill: #f0f921"/>
    <path d="M 158.4 101.295 
L 171 101.295 
L 171 105.615 
L 158.4 105.615 
L 158.4 101.295 
" clip-path="url(#p08ddbb9c07)" style="fill: #f0f921"/>
    <path d="M 171 101.295 
L 183.6 101.295 
L 183.6 105.615 
L 171 105.615 
L 171 101.295 
" clip-path="url(#p08ddbb9c07)" style="fill: #f0f921"/>
    <path d="M 183.6 101.295 
L 196.2 101.295 
L 196.2 105.615 
L 183.6 105.615 
L 183.6 101.295 
" clip-path="url(#p08ddbb9c07)" style="fill: #f0f921"/>
    <path d="M 196.2 101.295 
L 208.8 101.295 
L 208.8 105.615 
L 196.2 105.615 
L 196.2 101.295 
" clip-path="url(#p08ddbb9c07)" style="fill: #f0f921"/>
    <path d="M 208.8 101.295 
L 221.4 101.295 
L 221.4 105.615 
L 208.8 105.615 
L 208.8 101.295 
" clip-path="url(#p08ddbb9c07)" style="fill: #f0f921"/>
    <path d="M 221.4 101.295 
L 234 101.295 
L 234 105.615 
L 221.4 105.615 
L 221.4 101.295 
" clip-path="url(#p08ddbb9c07)" style="fill: #f0f921"/>
    <path d="M 234 101.295 
L 246.6 101.295 
L 246.6 105.615 
L 234 105.615 
L 234 101.295 
" clip-path="url(#p08ddbb9c07)" style="fill: #f0f921"/>
    <path d="M 246.6 101.295 
L 259.2 101.295 
L 259.2 105.615 
L 246.6 105.615 
L 246.6 101.295 
" clip-path="url(#p08ddbb9c07)" style="fill: #f0f921"/>
    <path d="M 7.2 105.615 
L 19.8 105.615 
L 19.8 109.935 
L 7.2 109.935 
L 7.2 105.615 
" clip-path="url(#p08ddbb9c07)" style="fill: #f0f921"/>
    <path d="M 19.8 105.615 
L 32.4 105.615 
L 32.4 109.935 
L 19.8 109.935 
L 19.8 105.615 
" clip-path="url(#p08ddbb9c07)" style="fill: #f0f921"/>
    <path d="M 32.4 105.615 
L 45 105.615 
L 45 109.935 
L 32.4 109.935 
L 32.4 105.615 
" clip-path="url(#p08ddbb9c07)" style="fill: #f0f921"/>
    <path d="M 45 105.615 
L 57.6 105.615 
L 57.6 109.935 
L 45 109.935 
L 45 105.615 
" clip-path="url(#p08ddbb9c07)" style="fill: #f0f921"/>
    <path d="M 57.6 105.615 
L 70.2 105.615 
L 70.2 109.935 
L 57.6 109.935 
L 57.6 105.615 
" clip-path="url(#p08ddbb9c07)" style="fill: #f0f921"/>
    <path d="M 70.2 105.615 
L 82.8 105.615 
L 82.8 109.935 
L 70.2 109.935 
L 70.2 105.615 
" clip-path="url(#p08ddbb9c07)" style="fill: #f0f921"/>
    <path d="M 82.8 105.615 
L 95.4 105.615 
L 95.4 109.935 
L 82.8 109.935 
L 82.8 105.615 
" clip-path="url(#p08ddbb9c07)" style="fill: #f0f921"/>
    <path d="M 95.4 105.615 
L 108 105.615 
L 108 109.935 
L 95.4 109.935 
L 95.4 105.615 
" clip-path="url(#p08ddbb9c07)" style="fill: #f0f921"/>
    <path d="M 108 105.615 
L 120.6 105.615 
L 120.6 109.935 
L 108 109.935 
L 108 105.615 
" clip-path="url(#p08ddbb9c07)" style="fill: #f0f921"/>
    <path d="M 120.6 105.615 
L 133.2 105.615 
L 133.2 109.935 
L 120.6 109.935 
L 120.6 105.615 
" clip-path="url(#p08ddbb9c07)" style="fill: #f0f921"/>
    <path d="M 133.2 105.615 
L 145.8 105.615 
L 145.8 109.935 
L 133.2 109.935 
L 133.2 105.615 
" clip-path="url(#p08ddbb9c07)" style="fill: #f0f921"/>
    <path d="M 145.8 105.615 
L 158.4 105.615 
L 158.4 109.935 
L 145.8 109.935 
L 145.8 105.615 
" clip-path="url(#p08ddbb9c07)" style="fill: #f0f921"/>
    <path d="M 158.4 105.615 
L 171 105.615 
L 171 109.935 
L 158.4 109.935 
L 158.4 105.615 
" clip-path="url(#p08ddbb9c07)" style="fill: #f0f921"/>
    <path d="M 171 105.615 
L 183.6 105.615 
L 183.6 109.935 
L 171 109.935 
L 171 105.615 
" clip-path="url(#p08ddbb9c07)" style="fill: #f0f921"/>
    <path d="M 183.6 105.615 
L 196.2 105.615 
L 196.2 109.935 
L 183.6 109.935 
L 183.6 105.615 
" clip-path="url(#p08ddbb9c07)" style="fill: #f0f921"/>
    <path d="M 196.2 105.615 
L 208.8 105.615 
L 208.8 109.935 
L 196.2 109.935 
L 196.2 105.615 
" clip-path="url(#p08ddbb9c07)" style="fill: #f0f921"/>
    <path d="M 208.8 105.615 
L 221.4 105.615 
L 221.4 109.935 
L 208.8 109.935 
L 208.8 105.615 
" clip-path="url(#p08ddbb9c07)" style="fill: #f0f921"/>
    <path d="M 221.4 105.615 
L 234 105.615 
L 234 109.935 
L 221.4 109.935 
L 221.4 105.615 
" clip-path="url(#p08ddbb9c07)" style="fill: #f0f921"/>
    <path d="M 234 105.615 
L 246.6 105.615 
L 246.6 109.935 
L 234 109.935 
L 234 105.615 
" clip-path="url(#p08ddbb9c07)" style="fill: #f0f921"/>
    <path d="M 246.6 105.615 
L 259.2 105.615 
L 259.2 109.935 
L 246.6 109.935 
L 246.6 105.615 
" clip-path="url(#p08ddbb9c07)" style="fill: #f0f921"/>
    <path d="M 7.2 109.935 
L 19.8 109.935 
L 19.8 114.255 
L 7.2 114.255 
L 7.2 109.935 
" clip-path="url(#p08ddbb9c07)" style="fill: #f0f921"/>
    <path d="M 19.8 109.935 
L 32.4 109.935 
L 32.4 114.255 
L 19.8 114.255 
L 19.8 109.935 
" clip-path="url(#p08ddbb9c07)" style="fill: #f0f921"/>
    <path d="M 32.4 109.935 
L 45 109.935 
L 45 114.255 
L 32.4 114.255 
L 32.4 109.935 
" clip-path="url(#p08ddbb9c07)" style="fill: #f0f921"/>
    <path d="M 45 109.935 
L 57.6 109.935 
L 57.6 114.255 
L 45 114.255 
L 45 109.935 
" clip-path="url(#p08ddbb9c07)" style="fill: #f0f921"/>
    <path d="M 57.6 109.935 
L 70.2 109.935 
L 70.2 114.255 
L 57.6 114.255 
L 57.6 109.935 
" clip-path="url(#p08ddbb9c07)" style="fill: #f0f921"/>
    <path d="M 70.2 109.935 
L 82.8 109.935 
L 82.8 114.255 
L 70.2 114.255 
L 70.2 109.935 
" clip-path="url(#p08ddbb9c07)" style="fill: #f0f921"/>
    <path d="M 82.8 109.935 
L 95.4 109.935 
L 95.4 114.255 
L 82.8 114.255 
L 82.8 109.935 
" clip-path="url(#p08ddbb9c07)" style="fill: #f0f921"/>
    <path d="M 95.4 109.935 
L 108 109.935 
L 108 114.255 
L 95.4 114.255 
L 95.4 109.935 
" clip-path="url(#p08ddbb9c07)" style="fill: #f0f921"/>
    <path d="M 108 109.935 
L 120.6 109.935 
L 120.6 114.255 
L 108 114.255 
L 108 109.935 
" clip-path="url(#p08ddbb9c07)" style="fill: #f0f921"/>
    <path d="M 120.6 109.935 
L 133.2 109.935 
L 133.2 114.255 
L 120.6 114.255 
L 120.6 109.935 
" clip-path="url(#p08ddbb9c07)" style="fill: #f0f921"/>
    <path d="M 133.2 109.935 
L 145.8 109.935 
L 145.8 114.255 
L 133.2 114.255 
L 133.2 109.935 
" clip-path="url(#p08ddbb9c07)" style="fill: #f0f921"/>
    <path d="M 145.8 109.935 
L 158.4 109.935 
L 158.4 114.255 
L 145.8 114.255 
L 145.8 109.935 
" clip-path="url(#p08ddbb9c07)" style="fill: #f0f921"/>
    <path d="M 158.4 109.935 
L 171 109.935 
L 171 114.255 
L 158.4 114.255 
L 158.4 109.935 
" clip-path="url(#p08ddbb9c07)" style="fill: #f0f921"/>
    <path d="M 171 109.935 
L 183.6 109.935 
L 183.6 114.255 
L 171 114.255 
L 171 109.935 
" clip-path="url(#p08ddbb9c07)" style="fill: #f0f921"/>
    <path d="M 183.6 109.935 
L 196.2 109.935 
L 196.2 114.255 
L 183.6 114.255 
L 183.6 109.935 
" clip-path="url(#p08ddbb9c07)" style="fill: #f0f921"/>
    <path d="M 196.2 109.935 
L 208.8 109.935 
L 208.8 114.255 
L 196.2 114.255 
L 196.2 109.935 
" clip-path="url(#p08ddbb9c07)" style="fill: #f0f921"/>
    <path d="M 208.8 109.935 
L 221.4 109.935 
L 221.4 114.255 
L 208.8 114.255 
L 208.8 109.935 
" clip-path="url(#p08ddbb9c07)" style="fill: #f0f921"/>
    <path d="M 221.4 109.935 
L 234 109.935 
L 234 114.255 
L 221.4 114.255 
L 221.4 109.935 
" clip-path="url(#p08ddbb9c07)" style="fill: #f0f921"/>
    <path d="M 234 109.935 
L 246.6 109.935 
L 246.6 114.255 
L 234 114.255 
L 234 109.935 
" clip-path="url(#p08ddbb9c07)" style="fill: #f0f921"/>
    <path d="M 246.6 109.935 
L 259.2 109.935 
L 259.2 114.255 
L 246.6 114.255 
L 246.6 109.935 
" clip-path="url(#p08ddbb9c07)" style="fill: #f0f921"/>
    <path d="M 7.2 114.255 
L 19.8 114.255 
L 19.8 118.575 
L 7.2 118.575 
L 7.2 114.255 
" clip-path="url(#p08ddbb9c07)" style="fill: #f0f921"/>
    <path d="M 19.8 114.255 
L 32.4 114.255 
L 32.4 118.575 
L 19.8 118.575 
L 19.8 114.255 
" clip-path="url(#p08ddbb9c07)" style="fill: #f0f921"/>
    <path d="M 32.4 114.255 
L 45 114.255 
L 45 118.575 
L 32.4 118.575 
L 32.4 114.255 
" clip-path="url(#p08ddbb9c07)" style="fill: #f0f921"/>
    <path d="M 45 114.255 
L 57.6 114.255 
L 57.6 118.575 
L 45 118.575 
L 45 114.255 
" clip-path="url(#p08ddbb9c07)" style="fill: #f0f921"/>
    <path d="M 57.6 114.255 
L 70.2 114.255 
L 70.2 118.575 
L 57.6 118.575 
L 57.6 114.255 
" clip-path="url(#p08ddbb9c07)" style="fill: #f0f921"/>
    <path d="M 70.2 114.255 
L 82.8 114.255 
L 82.8 118.575 
L 70.2 118.575 
L 70.2 114.255 
" clip-path="url(#p08ddbb9c07)" style="fill: #f0f921"/>
    <path d="M 82.8 114.255 
L 95.4 114.255 
L 95.4 118.575 
L 82.8 118.575 
L 82.8 114.255 
" clip-path="url(#p08ddbb9c07)" style="fill: #f0f921"/>
    <path d="M 95.4 114.255 
L 108 114.255 
L 108 118.575 
L 95.4 118.575 
L 95.4 114.255 
" clip-path="url(#p08ddbb9c07)" style="fill: #f0f921"/>
    <path d="M 108 114.255 
L 120.6 114.255 
L 120.6 118.575 
L 108 118.575 
L 108 114.255 
" clip-path="url(#p08ddbb9c07)" style="fill: #f0f921"/>
    <path d="M 120.6 114.255 
L 133.2 114.255 
L 133.2 118.575 
L 120.6 118.575 
L 120.6 114.255 
" clip-path="url(#p08ddbb9c07)" style="fill: #f0f921"/>
    <path d="M 133.2 114.255 
L 145.8 114.255 
L 145.8 118.575 
L 133.2 118.575 
L 133.2 114.255 
" clip-path="url(#p08ddbb9c07)" style="fill: #f0f921"/>
    <path d="M 145.8 114.255 
L 158.4 114.255 
L 158.4 118.575 
L 145.8 118.575 
L 145.8 114.255 
" clip-path="url(#p08ddbb9c07)" style="fill: #f0f921"/>
    <path d="M 158.4 114.255 
L 171 114.255 
L 171 118.575 
L 158.4 118.575 
L 158.4 114.255 
" clip-path="url(#p08ddbb9c07)" style="fill: #f0f921"/>
    <path d="M 171 114.255 
L 183.6 114.255 
L 183.6 118.575 
L 171 118.575 
L 171 114.255 
" clip-path="url(#p08ddbb9c07)" style="fill: #f0f921"/>
    <path d="M 183.6 114.255 
L 196.2 114.255 
L 196.2 118.575 
L 183.6 118.575 
L 183.6 114.255 
" clip-path="url(#p08ddbb9c07)" style="fill: #f0f921"/>
    <path d="M 196.2 114.255 
L 208.8 114.255 
L 208.8 118.575 
L 196.2 118.575 
L 196.2 114.255 
" clip-path="url(#p08ddbb9c07)" style="fill: #f0f921"/>
    <path d="M 208.8 114.255 
L 221.4 114.255 
L 221.4 118.575 
L 208.8 118.575 
L 208.8 114.255 
" clip-path="url(#p08ddbb9c07)" style="fill: #f0f921"/>
    <path d="M 221.4 114.255 
L 234 114.255 
L 234 118.575 
L 221.4 118.575 
L 221.4 114.255 
" clip-path="url(#p08ddbb9c07)" style="fill: #f0f921"/>
    <path d="M 234 114.255 
L 246.6 114.255 
L 246.6 118.575 
L 234 118.575 
L 234 114.255 
" clip-path="url(#p08ddbb9c07)" style="fill: #f0f921"/>
    <path d="M 246.6 114.255 
L 259.2 114.255 
L 259.2 118.575 
L 246.6 118.575 
L 246.6 114.255 
" clip-path="url(#p08ddbb9c07)" style="fill: #f0f921"/>
    <path d="M 7.2 118.575 
L 19.8 118.575 
L 19.8 122.895 
L 7.2 122.895 
L 7.2 118.575 
" clip-path="url(#p08ddbb9c07)" style="fill: #f0f921"/>
    <path d="M 19.8 118.575 
L 32.4 118.575 
L 32.4 122.895 
L 19.8 122.895 
L 19.8 118.575 
" clip-path="url(#p08ddbb9c07)" style="fill: #f0f921"/>
    <path d="M 32.4 118.575 
L 45 118.575 
L 45 122.895 
L 32.4 122.895 
L 32.4 118.575 
" clip-path="url(#p08ddbb9c07)" style="fill: #f0f921"/>
    <path d="M 45 118.575 
L 57.6 118.575 
L 57.6 122.895 
L 45 122.895 
L 45 118.575 
" clip-path="url(#p08ddbb9c07)" style="fill: #f0f921"/>
    <path d="M 57.6 118.575 
L 70.2 118.575 
L 70.2 122.895 
L 57.6 122.895 
L 57.6 118.575 
" clip-path="url(#p08ddbb9c07)" style="fill: #f0f921"/>
    <path d="M 70.2 118.575 
L 82.8 118.575 
L 82.8 122.895 
L 70.2 122.895 
L 70.2 118.575 
" clip-path="url(#p08ddbb9c07)" style="fill: #f0f921"/>
    <path d="M 82.8 118.575 
L 95.4 118.575 
L 95.4 122.895 
L 82.8 122.895 
L 82.8 118.575 
" clip-path="url(#p08ddbb9c07)" style="fill: #f0f921"/>
    <path d="M 95.4 118.575 
L 108 118.575 
L 108 122.895 
L 95.4 122.895 
L 95.4 118.575 
" clip-path="url(#p08ddbb9c07)" style="fill: #f0f921"/>
    <path d="M 108 118.575 
L 120.6 118.575 
L 120.6 122.895 
L 108 122.895 
L 108 118.575 
" clip-path="url(#p08ddbb9c07)" style="fill: #f0f921"/>
    <path d="M 120.6 118.575 
L 133.2 118.575 
L 133.2 122.895 
L 120.6 122.895 
L 120.6 118.575 
" clip-path="url(#p08ddbb9c07)" style="fill: #f0f921"/>
    <path d="M 133.2 118.575 
L 145.8 118.575 
L 145.8 122.895 
L 133.2 122.895 
L 133.2 118.575 
" clip-path="url(#p08ddbb9c07)" style="fill: #f0f921"/>
    <path d="M 145.8 118.575 
L 158.4 118.575 
L 158.4 122.895 
L 145.8 122.895 
L 145.8 118.575 
" clip-path="url(#p08ddbb9c07)" style="fill: #f0f921"/>
    <path d="M 158.4 118.575 
L 171 118.575 
L 171 122.895 
L 158.4 122.895 
L 158.4 118.575 
" clip-path="url(#p08ddbb9c07)" style="fill: #f0f921"/>
    <path d="M 171 118.575 
L 183.6 118.575 
L 183.6 122.895 
L 171 122.895 
L 171 118.575 
" clip-path="url(#p08ddbb9c07)" style="fill: #f0f921"/>
    <path d="M 183.6 118.575 
L 196.2 118.575 
L 196.2 122.895 
L 183.6 122.895 
L 183.6 118.575 
" clip-path="url(#p08ddbb9c07)" style="fill: #f0f921"/>
    <path d="M 196.2 118.575 
L 208.8 118.575 
L 208.8 122.895 
L 196.2 122.895 
L 196.2 118.575 
" clip-path="url(#p08ddbb9c07)" style="fill: #f0f921"/>
    <path d="M 208.8 118.575 
L 221.4 118.575 
L 221.4 122.895 
L 208.8 122.895 
L 208.8 118.575 
" clip-path="url(#p08ddbb9c07)" style="fill: #f0f921"/>
    <path d="M 221.4 118.575 
L 234 118.575 
L 234 122.895 
L 221.4 122.895 
L 221.4 118.575 
" clip-path="url(#p08ddbb9c07)" style="fill: #f0f921"/>
    <path d="M 234 118.575 
L 246.6 118.575 
L 246.6 122.895 
L 234 122.895 
L 234 118.575 
" clip-path="url(#p08ddbb9c07)" style="fill: #f0f921"/>
    <path d="M 246.6 118.575 
L 259.2 118.575 
L 259.2 122.895 
L 246.6 122.895 
L 246.6 118.575 
" clip-path="url(#p08ddbb9c07)" style="fill: #f0f921"/>
    <path d="M 7.2 122.895 
L 19.8 122.895 
L 19.8 127.215 
L 7.2 127.215 
L 7.2 122.895 
" clip-path="url(#p08ddbb9c07)" style="fill: #f0f921"/>
    <path d="M 19.8 122.895 
L 32.4 122.895 
L 32.4 127.215 
L 19.8 127.215 
L 19.8 122.895 
" clip-path="url(#p08ddbb9c07)" style="fill: #f0f921"/>
    <path d="M 32.4 122.895 
L 45 122.895 
L 45 127.215 
L 32.4 127.215 
L 32.4 122.895 
" clip-path="url(#p08ddbb9c07)" style="fill: #f0f921"/>
    <path d="M 45 122.895 
L 57.6 122.895 
L 57.6 127.215 
L 45 127.215 
L 45 122.895 
" clip-path="url(#p08ddbb9c07)" style="fill: #f0f921"/>
    <path d="M 57.6 122.895 
L 70.2 122.895 
L 70.2 127.215 
L 57.6 127.215 
L 57.6 122.895 
" clip-path="url(#p08ddbb9c07)" style="fill: #f0f921"/>
    <path d="M 70.2 122.895 
L 82.8 122.895 
L 82.8 127.215 
L 70.2 127.215 
L 70.2 122.895 
" clip-path="url(#p08ddbb9c07)" style="fill: #f0f921"/>
    <path d="M 82.8 122.895 
L 95.4 122.895 
L 95.4 127.215 
L 82.8 127.215 
L 82.8 122.895 
" clip-path="url(#p08ddbb9c07)" style="fill: #f0f921"/>
    <path d="M 95.4 122.895 
L 108 122.895 
L 108 127.215 
L 95.4 127.215 
L 95.4 122.895 
" clip-path="url(#p08ddbb9c07)" style="fill: #f0f921"/>
    <path d="M 108 122.895 
L 120.6 122.895 
L 120.6 127.215 
L 108 127.215 
L 108 122.895 
" clip-path="url(#p08ddbb9c07)" style="fill: #f0f921"/>
    <path d="M 120.6 122.895 
L 133.2 122.895 
L 133.2 127.215 
L 120.6 127.215 
L 120.6 122.895 
" clip-path="url(#p08ddbb9c07)" style="fill: #f0f921"/>
    <path d="M 133.2 122.895 
L 145.8 122.895 
L 145.8 127.215 
L 133.2 127.215 
L 133.2 122.895 
" clip-path="url(#p08ddbb9c07)" style="fill: #f0f921"/>
    <path d="M 145.8 122.895 
L 158.4 122.895 
L 158.4 127.215 
L 145.8 127.215 
L 145.8 122.895 
" clip-path="url(#p08ddbb9c07)" style="fill: #f0f921"/>
    <path d="M 158.4 122.895 
L 171 122.895 
L 171 127.215 
L 158.4 127.215 
L 158.4 122.895 
" clip-path="url(#p08ddbb9c07)" style="fill: #f0f921"/>
    <path d="M 171 122.895 
L 183.6 122.895 
L 183.6 127.215 
L 171 127.215 
L 171 122.895 
" clip-path="url(#p08ddbb9c07)" style="fill: #f0f921"/>
    <path d="M 183.6 122.895 
L 196.2 122.895 
L 196.2 127.215 
L 183.6 127.215 
L 183.6 122.895 
" clip-path="url(#p08ddbb9c07)" style="fill: #f0f921"/>
    <path d="M 196.2 122.895 
L 208.8 122.895 
L 208.8 127.215 
L 196.2 127.215 
L 196.2 122.895 
" clip-path="url(#p08ddbb9c07)" style="fill: #f0f921"/>
    <path d="M 208.8 122.895 
L 221.4 122.895 
L 221.4 127.215 
L 208.8 127.215 
L 208.8 122.895 
" clip-path="url(#p08ddbb9c07)" style="fill: #f0f921"/>
    <path d="M 221.4 122.895 
L 234 122.895 
L 234 127.215 
L 221.4 127.215 
L 221.4 122.895 
" clip-path="url(#p08ddbb9c07)" style="fill: #f0f921"/>
    <path d="M 234 122.895 
L 246.6 122.895 
L 246.6 127.215 
L 234 127.215 
L 234 122.895 
" clip-path="url(#p08ddbb9c07)" style="fill: #f0f921"/>
    <path d="M 246.6 122.895 
L 259.2 122.895 
L 259.2 127.215 
L 246.6 127.215 
L 246.6 122.895 
" clip-path="url(#p08ddbb9c07)" style="fill: #f0f921"/>
   </g>
  </g>
  <g id="text_21">
   <text style="fill: #262626; font: 14.4px 'sans-serif'; text-anchor: middle" x="73.962545" y="17.50725" transform="rotate(-0, 73.962545, 17.50725)">k13 INS SINES</text>
  </g>
 </g>
 <defs>
  <clipPath id="p08ddbb9c07">
   <rect x="7.2" y="19.215" width="252" height="108"/>
  </clipPath>
 </defs>
</svg>
