<?xml version="1.0" encoding="utf-8" standalone="no"?>
<!DOCTYPE svg PUBLIC "-//W3C//DTD SVG 1.1//EN"
  "http://www.w3.org/Graphics/SVG/1.1/DTD/svg11.dtd">
<svg xmlns:xlink="http://www.w3.org/1999/xlink" width="266.4pt" height="179.950937pt" viewBox="0 0 266.4 179.950937" xmlns="http://www.w3.org/2000/svg" version="1.1">
 <metadata>
  <rdf:RDF xmlns:dc="http://purl.org/dc/elements/1.1/" xmlns:cc="http://creativecommons.org/ns#" xmlns:rdf="http://www.w3.org/1999/02/22-rdf-syntax-ns#">
   <cc:Work>
    <dc:type rdf:resource="http://purl.org/dc/dcmitype/StillImage"/>
    <dc:date>2023-12-20T13:35:52.689292</dc:date>
    <dc:format>image/svg+xml</dc:format>
    <dc:creator>
     <cc:Agent>
      <dc:title>Matplotlib v3.5.1, https://matplotlib.org/</dc:title>
     </cc:Agent>
    </dc:creator>
   </cc:Work>
  </rdf:RDF>
 </metadata>
 <defs>
  <style type="text/css">*{stroke-linejoin: round; stroke-linecap: butt}</style>
 </defs>
 <g id="figure_1">
  <g id="patch_1">
   <path d="M 0 179.950937 
L 266.4 179.950937 
L 266.4 0 
L 0 0 
L 0 179.950937 
z
" style="fill: none"/>
  </g>
  <g id="axes_1">
   <g id="patch_2">
    <path d="M 7.2 115.465 
L 259.2 115.465 
L 259.2 7.465 
L 7.2 7.465 
L 7.2 115.465 
z
" style="fill: none"/>
   </g>
   <g id="matplotlib.axis_1">
    <g id="xtick_1">
     <g id="line2d_1">
      <defs>
       <path id="m465dff5886" d="M 0 0 
L 0 6 
" style="stroke: #262626; stroke-width: 1.25"/>
      </defs>
      <g>
       <use xlink:href="#m465dff5886" x="13.5" y="115.465" style="fill: #262626; stroke: #262626; stroke-width: 1.25"/>
      </g>
     </g>
     <g id="text_1">
      <text style="fill: #262626; font: 10px 'sans-serif'" transform="translate(16.085156 153.879062)rotate(-90)">L1P4d</text>
     </g>
    </g>
    <g id="xtick_2">
     <g id="line2d_2">
      <g>
       <use xlink:href="#m465dff5886" x="26.1" y="115.465" style="fill: #262626; stroke: #262626; stroke-width: 1.25"/>
      </g>
     </g>
     <g id="text_2">
      <text style="fill: #262626; font: 10px 'sans-serif'" transform="translate(28.685156 157.199375)rotate(-90)">L1MDb</text>
     </g>
    </g>
    <g id="xtick_3">
     <g id="line2d_3">
      <g>
       <use xlink:href="#m465dff5886" x="38.7" y="115.465" style="fill: #262626; stroke: #262626; stroke-width: 1.25"/>
      </g>
     </g>
     <g id="text_3">
      <text style="fill: #262626; font: 10px 'sans-serif'" transform="translate(41.285156 155.538437)rotate(-90)">L1M3e</text>
     </g>
    </g>
    <g id="xtick_4">
     <g id="line2d_4">
      <g>
       <use xlink:href="#m465dff5886" x="51.3" y="115.465" style="fill: #262626; stroke: #262626; stroke-width: 1.25"/>
      </g>
     </g>
     <g id="text_4">
      <text style="fill: #262626; font: 10px 'sans-serif'" transform="translate(53.946094 172.210312)rotate(-90)">X7C_LINE</text>
     </g>
    </g>
    <g id="xtick_5">
     <g id="line2d_5">
      <g>
       <use xlink:href="#m465dff5886" x="63.9" y="115.465" style="fill: #262626; stroke: #262626; stroke-width: 1.25"/>
      </g>
     </g>
     <g id="text_5">
      <text style="fill: #262626; font: 10px 'sans-serif'" transform="translate(66.485156 153.879062)rotate(-90)">L1P4a</text>
     </g>
    </g>
    <g id="xtick_6">
     <g id="line2d_6">
      <g>
       <use xlink:href="#m465dff5886" x="76.5" y="115.465" style="fill: #262626; stroke: #262626; stroke-width: 1.25"/>
      </g>
     </g>
     <g id="text_6">
      <text style="fill: #262626; font: 10px 'sans-serif'" transform="translate(79.085156 154.250937)rotate(-90)">L1PA4</text>
     </g>
    </g>
    <g id="xtick_7">
     <g id="line2d_7">
      <g>
       <use xlink:href="#m465dff5886" x="89.1" y="115.465" style="fill: #262626; stroke: #262626; stroke-width: 1.25"/>
      </g>
     </g>
     <g id="text_7">
      <text style="fill: #262626; font: 10px 'sans-serif'" transform="translate(91.685156 154.250937)rotate(-90)">L1PA2</text>
     </g>
    </g>
    <g id="xtick_8">
     <g id="line2d_8">
      <g>
       <use xlink:href="#m465dff5886" x="101.7" y="115.465" style="fill: #262626; stroke: #262626; stroke-width: 1.25"/>
      </g>
     </g>
     <g id="text_8">
      <text style="fill: #262626; font: 10px 'sans-serif'" transform="translate(104.285156 154.250937)rotate(-90)">L1PA8</text>
     </g>
    </g>
    <g id="xtick_9">
     <g id="line2d_9">
      <g>
       <use xlink:href="#m465dff5886" x="114.3" y="115.465" style="fill: #262626; stroke: #262626; stroke-width: 1.25"/>
      </g>
     </g>
     <g id="text_9">
      <text style="fill: #262626; font: 10px 'sans-serif'" transform="translate(116.885156 154.250937)rotate(-90)">L1PA3</text>
     </g>
    </g>
    <g id="xtick_10">
     <g id="line2d_10">
      <g>
       <use xlink:href="#m465dff5886" x="126.9" y="115.465" style="fill: #262626; stroke: #262626; stroke-width: 1.25"/>
      </g>
     </g>
     <g id="text_10">
      <text style="fill: #262626; font: 10px 'sans-serif'" transform="translate(129.485156 149.9775)rotate(-90)">L1M8</text>
     </g>
    </g>
    <g id="xtick_11">
     <g id="line2d_11">
      <g>
       <use xlink:href="#m465dff5886" x="139.5" y="115.465" style="fill: #262626; stroke: #262626; stroke-width: 1.25"/>
      </g>
     </g>
     <g id="text_11">
      <text style="fill: #262626; font: 10px 'sans-serif'" transform="translate(142.085156 154.250937)rotate(-90)">L1PA6</text>
     </g>
    </g>
    <g id="xtick_12">
     <g id="line2d_12">
      <g>
       <use xlink:href="#m465dff5886" x="152.1" y="115.465" style="fill: #262626; stroke: #262626; stroke-width: 1.25"/>
      </g>
     </g>
     <g id="text_12">
      <text style="fill: #262626; font: 10px 'sans-serif'" transform="translate(154.685156 154.250937)rotate(-90)">L1PA7</text>
     </g>
    </g>
    <g id="xtick_13">
     <g id="line2d_13">
      <g>
       <use xlink:href="#m465dff5886" x="164.7" y="115.465" style="fill: #262626; stroke: #262626; stroke-width: 1.25"/>
      </g>
     </g>
     <g id="text_13">
      <text style="fill: #262626; font: 10px 'sans-serif'" transform="translate(167.285156 154.250937)rotate(-90)">L1PA5</text>
     </g>
    </g>
    <g id="xtick_14">
     <g id="line2d_14">
      <g>
       <use xlink:href="#m465dff5886" x="177.3" y="115.465" style="fill: #262626; stroke: #262626; stroke-width: 1.25"/>
      </g>
     </g>
     <g id="text_14">
      <text style="fill: #262626; font: 10px 'sans-serif'" transform="translate(179.885156 148.318125)rotate(-90)">L1P1</text>
     </g>
    </g>
    <g id="xtick_15">
     <g id="line2d_15">
      <g>
       <use xlink:href="#m465dff5886" x="189.9" y="115.465" style="fill: #262626; stroke: #262626; stroke-width: 1.25"/>
      </g>
     </g>
     <g id="text_15">
      <text style="fill: #262626; font: 10px 'sans-serif'" transform="translate(192.485156 149.979062)rotate(-90)">L1HS</text>
     </g>
    </g>
    <g id="xtick_16">
     <g id="line2d_16">
      <g>
       <use xlink:href="#m465dff5886" x="202.5" y="115.465" style="fill: #262626; stroke: #262626; stroke-width: 1.25"/>
      </g>
     </g>
     <g id="text_16">
      <text style="fill: #262626; font: 10px 'sans-serif'" transform="translate(205.085156 157.199375)rotate(-90)">L1MC2</text>
     </g>
    </g>
    <g id="xtick_17">
     <g id="line2d_17">
      <g>
       <use xlink:href="#m465dff5886" x="215.1" y="115.465" style="fill: #262626; stroke: #262626; stroke-width: 1.25"/>
      </g>
     </g>
     <g id="text_17">
      <text style="fill: #262626; font: 10px 'sans-serif'" transform="translate(217.685156 157.199375)rotate(-90)">L1MCb</text>
     </g>
    </g>
    <g id="xtick_18">
     <g id="line2d_18">
      <g>
       <use xlink:href="#m465dff5886" x="227.7" y="115.465" style="fill: #262626; stroke: #262626; stroke-width: 1.25"/>
      </g>
     </g>
     <g id="text_18">
      <text style="fill: #262626; font: 10px 'sans-serif'" transform="translate(230.285156 156.647812)rotate(-90)">L1MA6</text>
     </g>
    </g>
    <g id="xtick_19">
     <g id="line2d_19">
      <g>
       <use xlink:href="#m465dff5886" x="240.3" y="115.465" style="fill: #262626; stroke: #262626; stroke-width: 1.25"/>
      </g>
     </g>
     <g id="text_19">
      <text style="fill: #262626; font: 10px 'sans-serif'" transform="translate(242.946094 172.750937)rotate(-90)">CR1_Mam</text>
     </g>
    </g>
    <g id="xtick_20">
     <g id="line2d_20">
      <g>
       <use xlink:href="#m465dff5886" x="252.9" y="115.465" style="fill: #262626; stroke: #262626; stroke-width: 1.25"/>
      </g>
     </g>
     <g id="text_20">
      <text style="fill: #262626; font: 10px 'sans-serif'" transform="translate(255.485156 149.4275)rotate(-90)">L1PB</text>
     </g>
    </g>
   </g>
   <g id="matplotlib.axis_2"/>
   <g id="QuadMesh_1">
    <path d="M 7.2 7.465 
L 19.8 7.465 
L 19.8 11.785 
L 7.2 11.785 
L 7.2 7.465 
" clip-path="url(#pcb35f38311)" style="fill: #f0f921"/>
    <path d="M 19.8 7.465 
L 32.4 7.465 
L 32.4 11.785 
L 19.8 11.785 
L 19.8 7.465 
" clip-path="url(#pcb35f38311)" style="fill: #0d0887"/>
    <path d="M 32.4 7.465 
L 45 7.465 
L 45 11.785 
L 32.4 11.785 
L 32.4 7.465 
" clip-path="url(#pcb35f38311)" style="fill: #0d0887"/>
    <path d="M 45 7.465 
L 57.6 7.465 
L 57.6 11.785 
L 45 11.785 
L 45 7.465 
" clip-path="url(#pcb35f38311)" style="fill: #0d0887"/>
    <path d="M 57.6 7.465 
L 70.2 7.465 
L 70.2 11.785 
L 57.6 11.785 
L 57.6 7.465 
" clip-path="url(#pcb35f38311)" style="fill: #f0f921"/>
    <path d="M 70.2 7.465 
L 82.8 7.465 
L 82.8 11.785 
L 70.2 11.785 
L 70.2 7.465 
" clip-path="url(#pcb35f38311)" style="fill: #38049a"/>
    <path d="M 82.8 7.465 
L 95.4 7.465 
L 95.4 11.785 
L 82.8 11.785 
L 82.8 7.465 
" clip-path="url(#pcb35f38311)" style="fill: #0d0887"/>
    <path d="M 95.4 7.465 
L 108 7.465 
L 108 11.785 
L 95.4 11.785 
L 95.4 7.465 
" clip-path="url(#pcb35f38311)" style="fill: #48039f"/>
    <path d="M 108 7.465 
L 120.6 7.465 
L 120.6 11.785 
L 108 11.785 
L 108 7.465 
" clip-path="url(#pcb35f38311)" style="fill: #0d0887"/>
    <path d="M 120.6 7.465 
L 133.2 7.465 
L 133.2 11.785 
L 120.6 11.785 
L 120.6 7.465 
" clip-path="url(#pcb35f38311)" style="fill: #0d0887"/>
    <path d="M 133.2 7.465 
L 145.8 7.465 
L 145.8 11.785 
L 133.2 11.785 
L 133.2 7.465 
" clip-path="url(#pcb35f38311)" style="fill: #0d0887"/>
    <path d="M 145.8 7.465 
L 158.4 7.465 
L 158.4 11.785 
L 145.8 11.785 
L 145.8 7.465 
" clip-path="url(#pcb35f38311)" style="fill: #350498"/>
    <path d="M 158.4 7.465 
L 171 7.465 
L 171 11.785 
L 158.4 11.785 
L 158.4 7.465 
" clip-path="url(#pcb35f38311)" style="fill: #0d0887"/>
    <path d="M 171 7.465 
L 183.6 7.465 
L 183.6 11.785 
L 171 11.785 
L 171 7.465 
" clip-path="url(#pcb35f38311)" style="fill: #0d0887"/>
    <path d="M 183.6 7.465 
L 196.2 7.465 
L 196.2 11.785 
L 183.6 11.785 
L 183.6 7.465 
" clip-path="url(#pcb35f38311)" style="fill: #0d0887"/>
    <path d="M 196.2 7.465 
L 208.8 7.465 
L 208.8 11.785 
L 196.2 11.785 
L 196.2 7.465 
" clip-path="url(#pcb35f38311)" style="fill: #0d0887"/>
    <path d="M 208.8 7.465 
L 221.4 7.465 
L 221.4 11.785 
L 208.8 11.785 
L 208.8 7.465 
" clip-path="url(#pcb35f38311)" style="fill: #0d0887"/>
    <path d="M 221.4 7.465 
L 234 7.465 
L 234 11.785 
L 221.4 11.785 
L 221.4 7.465 
" clip-path="url(#pcb35f38311)" style="fill: #0d0887"/>
    <path d="M 234 7.465 
L 246.6 7.465 
L 246.6 11.785 
L 234 11.785 
L 234 7.465 
" clip-path="url(#pcb35f38311)" style="fill: #0d0887"/>
    <path d="M 246.6 7.465 
L 259.2 7.465 
L 259.2 11.785 
L 246.6 11.785 
L 246.6 7.465 
" clip-path="url(#pcb35f38311)" style="fill: #d5536f"/>
    <path d="M 7.2 11.785 
L 19.8 11.785 
L 19.8 16.105 
L 7.2 16.105 
L 7.2 11.785 
" clip-path="url(#pcb35f38311)" style="fill: #f0f921"/>
    <path d="M 19.8 11.785 
L 32.4 11.785 
L 32.4 16.105 
L 19.8 16.105 
L 19.8 11.785 
" clip-path="url(#pcb35f38311)" style="fill: #0d0887"/>
    <path d="M 32.4 11.785 
L 45 11.785 
L 45 16.105 
L 32.4 16.105 
L 32.4 11.785 
" clip-path="url(#pcb35f38311)" style="fill: #0d0887"/>
    <path d="M 45 11.785 
L 57.6 11.785 
L 57.6 16.105 
L 45 16.105 
L 45 11.785 
" clip-path="url(#pcb35f38311)" style="fill: #0d0887"/>
    <path d="M 57.6 11.785 
L 70.2 11.785 
L 70.2 16.105 
L 57.6 16.105 
L 57.6 11.785 
" clip-path="url(#pcb35f38311)" style="fill: #f0f921"/>
    <path d="M 70.2 11.785 
L 82.8 11.785 
L 82.8 16.105 
L 70.2 16.105 
L 70.2 11.785 
" clip-path="url(#pcb35f38311)" style="fill: #38049a"/>
    <path d="M 82.8 11.785 
L 95.4 11.785 
L 95.4 16.105 
L 82.8 16.105 
L 82.8 11.785 
" clip-path="url(#pcb35f38311)" style="fill: #0d0887"/>
    <path d="M 95.4 11.785 
L 108 11.785 
L 108 16.105 
L 95.4 16.105 
L 95.4 11.785 
" clip-path="url(#pcb35f38311)" style="fill: #48039f"/>
    <path d="M 108 11.785 
L 120.6 11.785 
L 120.6 16.105 
L 108 16.105 
L 108 11.785 
" clip-path="url(#pcb35f38311)" style="fill: #0d0887"/>
    <path d="M 120.6 11.785 
L 133.2 11.785 
L 133.2 16.105 
L 120.6 16.105 
L 120.6 11.785 
" clip-path="url(#pcb35f38311)" style="fill: #0d0887"/>
    <path d="M 133.2 11.785 
L 145.8 11.785 
L 145.8 16.105 
L 133.2 16.105 
L 133.2 11.785 
" clip-path="url(#pcb35f38311)" style="fill: #0d0887"/>
    <path d="M 145.8 11.785 
L 158.4 11.785 
L 158.4 16.105 
L 145.8 16.105 
L 145.8 11.785 
" clip-path="url(#pcb35f38311)" style="fill: #350498"/>
    <path d="M 158.4 11.785 
L 171 11.785 
L 171 16.105 
L 158.4 16.105 
L 158.4 11.785 
" clip-path="url(#pcb35f38311)" style="fill: #0d0887"/>
    <path d="M 171 11.785 
L 183.6 11.785 
L 183.6 16.105 
L 171 16.105 
L 171 11.785 
" clip-path="url(#pcb35f38311)" style="fill: #0d0887"/>
    <path d="M 183.6 11.785 
L 196.2 11.785 
L 196.2 16.105 
L 183.6 16.105 
L 183.6 11.785 
" clip-path="url(#pcb35f38311)" style="fill: #0d0887"/>
    <path d="M 196.2 11.785 
L 208.8 11.785 
L 208.8 16.105 
L 196.2 16.105 
L 196.2 11.785 
" clip-path="url(#pcb35f38311)" style="fill: #0d0887"/>
    <path d="M 208.8 11.785 
L 221.4 11.785 
L 221.4 16.105 
L 208.8 16.105 
L 208.8 11.785 
" clip-path="url(#pcb35f38311)" style="fill: #0d0887"/>
    <path d="M 221.4 11.785 
L 234 11.785 
L 234 16.105 
L 221.4 16.105 
L 221.4 11.785 
" clip-path="url(#pcb35f38311)" style="fill: #0d0887"/>
    <path d="M 234 11.785 
L 246.6 11.785 
L 246.6 16.105 
L 234 16.105 
L 234 11.785 
" clip-path="url(#pcb35f38311)" style="fill: #0d0887"/>
    <path d="M 246.6 11.785 
L 259.2 11.785 
L 259.2 16.105 
L 246.6 16.105 
L 246.6 11.785 
" clip-path="url(#pcb35f38311)" style="fill: #d5536f"/>
    <path d="M 7.2 16.105 
L 19.8 16.105 
L 19.8 20.425 
L 7.2 20.425 
L 7.2 16.105 
" clip-path="url(#pcb35f38311)" style="fill: #0d0887"/>
    <path d="M 19.8 16.105 
L 32.4 16.105 
L 32.4 20.425 
L 19.8 20.425 
L 19.8 16.105 
" clip-path="url(#pcb35f38311)" style="fill: #0d0887"/>
    <path d="M 32.4 16.105 
L 45 16.105 
L 45 20.425 
L 32.4 20.425 
L 32.4 16.105 
" clip-path="url(#pcb35f38311)" style="fill: #0d0887"/>
    <path d="M 45 16.105 
L 57.6 16.105 
L 57.6 20.425 
L 45 20.425 
L 45 16.105 
" clip-path="url(#pcb35f38311)" style="fill: #0d0887"/>
    <path d="M 57.6 16.105 
L 70.2 16.105 
L 70.2 20.425 
L 57.6 20.425 
L 57.6 16.105 
" clip-path="url(#pcb35f38311)" style="fill: #0d0887"/>
    <path d="M 70.2 16.105 
L 82.8 16.105 
L 82.8 20.425 
L 70.2 20.425 
L 70.2 16.105 
" clip-path="url(#pcb35f38311)" style="fill: #fba238"/>
    <path d="M 82.8 16.105 
L 95.4 16.105 
L 95.4 20.425 
L 82.8 20.425 
L 82.8 16.105 
" clip-path="url(#pcb35f38311)" style="fill: #f99a3e"/>
    <path d="M 95.4 16.105 
L 108 16.105 
L 108 20.425 
L 95.4 20.425 
L 95.4 16.105 
" clip-path="url(#pcb35f38311)" style="fill: #c23c81"/>
    <path d="M 108 16.105 
L 120.6 16.105 
L 120.6 20.425 
L 108 20.425 
L 108 16.105 
" clip-path="url(#pcb35f38311)" style="fill: #e4695e"/>
    <path d="M 120.6 16.105 
L 133.2 16.105 
L 133.2 20.425 
L 120.6 20.425 
L 120.6 16.105 
" clip-path="url(#pcb35f38311)" style="fill: #d45270"/>
    <path d="M 133.2 16.105 
L 145.8 16.105 
L 145.8 20.425 
L 133.2 20.425 
L 133.2 16.105 
" clip-path="url(#pcb35f38311)" style="fill: #f0f921"/>
    <path d="M 145.8 16.105 
L 158.4 16.105 
L 158.4 20.425 
L 145.8 20.425 
L 145.8 16.105 
" clip-path="url(#pcb35f38311)" style="fill: #f0f921"/>
    <path d="M 158.4 16.105 
L 171 16.105 
L 171 20.425 
L 158.4 20.425 
L 158.4 16.105 
" clip-path="url(#pcb35f38311)" style="fill: #f0f921"/>
    <path d="M 171 16.105 
L 183.6 16.105 
L 183.6 20.425 
L 171 20.425 
L 171 16.105 
" clip-path="url(#pcb35f38311)" style="fill: #f0f921"/>
    <path d="M 183.6 16.105 
L 196.2 16.105 
L 196.2 20.425 
L 183.6 20.425 
L 183.6 16.105 
" clip-path="url(#pcb35f38311)" style="fill: #f0f921"/>
    <path d="M 196.2 16.105 
L 208.8 16.105 
L 208.8 20.425 
L 196.2 20.425 
L 196.2 16.105 
" clip-path="url(#pcb35f38311)" style="fill: #0d0887"/>
    <path d="M 208.8 16.105 
L 221.4 16.105 
L 221.4 20.425 
L 208.8 20.425 
L 208.8 16.105 
" clip-path="url(#pcb35f38311)" style="fill: #0d0887"/>
    <path d="M 221.4 16.105 
L 234 16.105 
L 234 20.425 
L 221.4 20.425 
L 221.4 16.105 
" clip-path="url(#pcb35f38311)" style="fill: #0d0887"/>
    <path d="M 234 16.105 
L 246.6 16.105 
L 246.6 20.425 
L 234 20.425 
L 234 16.105 
" clip-path="url(#pcb35f38311)" style="fill: #0d0887"/>
    <path d="M 246.6 16.105 
L 259.2 16.105 
L 259.2 20.425 
L 246.6 20.425 
L 246.6 16.105 
" clip-path="url(#pcb35f38311)" style="fill: #0d0887"/>
    <path d="M 7.2 20.425 
L 19.8 20.425 
L 19.8 24.745 
L 7.2 24.745 
L 7.2 20.425 
" clip-path="url(#pcb35f38311)" style="fill: #0d0887"/>
    <path d="M 19.8 20.425 
L 32.4 20.425 
L 32.4 24.745 
L 19.8 24.745 
L 19.8 20.425 
" clip-path="url(#pcb35f38311)" style="fill: #0d0887"/>
    <path d="M 32.4 20.425 
L 45 20.425 
L 45 24.745 
L 32.4 24.745 
L 32.4 20.425 
" clip-path="url(#pcb35f38311)" style="fill: #0d0887"/>
    <path d="M 45 20.425 
L 57.6 20.425 
L 57.6 24.745 
L 45 24.745 
L 45 20.425 
" clip-path="url(#pcb35f38311)" style="fill: #0d0887"/>
    <path d="M 57.6 20.425 
L 70.2 20.425 
L 70.2 24.745 
L 57.6 24.745 
L 57.6 20.425 
" clip-path="url(#pcb35f38311)" style="fill: #0d0887"/>
    <path d="M 70.2 20.425 
L 82.8 20.425 
L 82.8 24.745 
L 70.2 24.745 
L 70.2 20.425 
" clip-path="url(#pcb35f38311)" style="fill: #fba238"/>
    <path d="M 82.8 20.425 
L 95.4 20.425 
L 95.4 24.745 
L 82.8 24.745 
L 82.8 20.425 
" clip-path="url(#pcb35f38311)" style="fill: #f99a3e"/>
    <path d="M 95.4 20.425 
L 108 20.425 
L 108 24.745 
L 95.4 24.745 
L 95.4 20.425 
" clip-path="url(#pcb35f38311)" style="fill: #c23c81"/>
    <path d="M 108 20.425 
L 120.6 20.425 
L 120.6 24.745 
L 108 24.745 
L 108 20.425 
" clip-path="url(#pcb35f38311)" style="fill: #e4695e"/>
    <path d="M 120.6 20.425 
L 133.2 20.425 
L 133.2 24.745 
L 120.6 24.745 
L 120.6 20.425 
" clip-path="url(#pcb35f38311)" style="fill: #d45270"/>
    <path d="M 133.2 20.425 
L 145.8 20.425 
L 145.8 24.745 
L 133.2 24.745 
L 133.2 20.425 
" clip-path="url(#pcb35f38311)" style="fill: #f0f921"/>
    <path d="M 145.8 20.425 
L 158.4 20.425 
L 158.4 24.745 
L 145.8 24.745 
L 145.8 20.425 
" clip-path="url(#pcb35f38311)" style="fill: #f0f921"/>
    <path d="M 158.4 20.425 
L 171 20.425 
L 171 24.745 
L 158.4 24.745 
L 158.4 20.425 
" clip-path="url(#pcb35f38311)" style="fill: #f0f921"/>
    <path d="M 171 20.425 
L 183.6 20.425 
L 183.6 24.745 
L 171 24.745 
L 171 20.425 
" clip-path="url(#pcb35f38311)" style="fill: #f0f921"/>
    <path d="M 183.6 20.425 
L 196.2 20.425 
L 196.2 24.745 
L 183.6 24.745 
L 183.6 20.425 
" clip-path="url(#pcb35f38311)" style="fill: #f0f921"/>
    <path d="M 196.2 20.425 
L 208.8 20.425 
L 208.8 24.745 
L 196.2 24.745 
L 196.2 20.425 
" clip-path="url(#pcb35f38311)" style="fill: #0d0887"/>
    <path d="M 208.8 20.425 
L 221.4 20.425 
L 221.4 24.745 
L 208.8 24.745 
L 208.8 20.425 
" clip-path="url(#pcb35f38311)" style="fill: #0d0887"/>
    <path d="M 221.4 20.425 
L 234 20.425 
L 234 24.745 
L 221.4 24.745 
L 221.4 20.425 
" clip-path="url(#pcb35f38311)" style="fill: #0d0887"/>
    <path d="M 234 20.425 
L 246.6 20.425 
L 246.6 24.745 
L 234 24.745 
L 234 20.425 
" clip-path="url(#pcb35f38311)" style="fill: #0d0887"/>
    <path d="M 246.6 20.425 
L 259.2 20.425 
L 259.2 24.745 
L 246.6 24.745 
L 246.6 20.425 
" clip-path="url(#pcb35f38311)" style="fill: #0d0887"/>
    <path d="M 7.2 24.745 
L 19.8 24.745 
L 19.8 29.065 
L 7.2 29.065 
L 7.2 24.745 
" clip-path="url(#pcb35f38311)" style="fill: #0d0887"/>
    <path d="M 19.8 24.745 
L 32.4 24.745 
L 32.4 29.065 
L 19.8 29.065 
L 19.8 24.745 
" clip-path="url(#pcb35f38311)" style="fill: #f0f921"/>
    <path d="M 32.4 24.745 
L 45 24.745 
L 45 29.065 
L 32.4 29.065 
L 32.4 24.745 
" clip-path="url(#pcb35f38311)" style="fill: #0d0887"/>
    <path d="M 45 24.745 
L 57.6 24.745 
L 57.6 29.065 
L 45 29.065 
L 45 24.745 
" clip-path="url(#pcb35f38311)" style="fill: #0d0887"/>
    <path d="M 57.6 24.745 
L 70.2 24.745 
L 70.2 29.065 
L 57.6 29.065 
L 57.6 24.745 
" clip-path="url(#pcb35f38311)" style="fill: #0d0887"/>
    <path d="M 70.2 24.745 
L 82.8 24.745 
L 82.8 29.065 
L 70.2 29.065 
L 70.2 24.745 
" clip-path="url(#pcb35f38311)" style="fill: #0d0887"/>
    <path d="M 82.8 24.745 
L 95.4 24.745 
L 95.4 29.065 
L 82.8 29.065 
L 82.8 24.745 
" clip-path="url(#pcb35f38311)" style="fill: #0d0887"/>
    <path d="M 95.4 24.745 
L 108 24.745 
L 108 29.065 
L 95.4 29.065 
L 95.4 24.745 
" clip-path="url(#pcb35f38311)" style="fill: #0d0887"/>
    <path d="M 108 24.745 
L 120.6 24.745 
L 120.6 29.065 
L 108 29.065 
L 108 24.745 
" clip-path="url(#pcb35f38311)" style="fill: #0d0887"/>
    <path d="M 120.6 24.745 
L 133.2 24.745 
L 133.2 29.065 
L 120.6 29.065 
L 120.6 24.745 
" clip-path="url(#pcb35f38311)" style="fill: #0d0887"/>
    <path d="M 133.2 24.745 
L 145.8 24.745 
L 145.8 29.065 
L 133.2 29.065 
L 133.2 24.745 
" clip-path="url(#pcb35f38311)" style="fill: #0d0887"/>
    <path d="M 145.8 24.745 
L 158.4 24.745 
L 158.4 29.065 
L 145.8 29.065 
L 145.8 24.745 
" clip-path="url(#pcb35f38311)" style="fill: #0d0887"/>
    <path d="M 158.4 24.745 
L 171 24.745 
L 171 29.065 
L 158.4 29.065 
L 158.4 24.745 
" clip-path="url(#pcb35f38311)" style="fill: #0d0887"/>
    <path d="M 171 24.745 
L 183.6 24.745 
L 183.6 29.065 
L 171 29.065 
L 171 24.745 
" clip-path="url(#pcb35f38311)" style="fill: #0d0887"/>
    <path d="M 183.6 24.745 
L 196.2 24.745 
L 196.2 29.065 
L 183.6 29.065 
L 183.6 24.745 
" clip-path="url(#pcb35f38311)" style="fill: #0d0887"/>
    <path d="M 196.2 24.745 
L 208.8 24.745 
L 208.8 29.065 
L 196.2 29.065 
L 196.2 24.745 
" clip-path="url(#pcb35f38311)" style="fill: #0d0887"/>
    <path d="M 208.8 24.745 
L 221.4 24.745 
L 221.4 29.065 
L 208.8 29.065 
L 208.8 24.745 
" clip-path="url(#pcb35f38311)" style="fill: #0d0887"/>
    <path d="M 221.4 24.745 
L 234 24.745 
L 234 29.065 
L 221.4 29.065 
L 221.4 24.745 
" clip-path="url(#pcb35f38311)" style="fill: #0d0887"/>
    <path d="M 234 24.745 
L 246.6 24.745 
L 246.6 29.065 
L 234 29.065 
L 234 24.745 
" clip-path="url(#pcb35f38311)" style="fill: #0d0887"/>
    <path d="M 246.6 24.745 
L 259.2 24.745 
L 259.2 29.065 
L 246.6 29.065 
L 246.6 24.745 
" clip-path="url(#pcb35f38311)" style="fill: #0d0887"/>
    <path d="M 7.2 29.065 
L 19.8 29.065 
L 19.8 33.385 
L 7.2 33.385 
L 7.2 29.065 
" clip-path="url(#pcb35f38311)" style="fill: #0d0887"/>
    <path d="M 19.8 29.065 
L 32.4 29.065 
L 32.4 33.385 
L 19.8 33.385 
L 19.8 29.065 
" clip-path="url(#pcb35f38311)" style="fill: #f0f921"/>
    <path d="M 32.4 29.065 
L 45 29.065 
L 45 33.385 
L 32.4 33.385 
L 32.4 29.065 
" clip-path="url(#pcb35f38311)" style="fill: #0d0887"/>
    <path d="M 45 29.065 
L 57.6 29.065 
L 57.6 33.385 
L 45 33.385 
L 45 29.065 
" clip-path="url(#pcb35f38311)" style="fill: #0d0887"/>
    <path d="M 57.6 29.065 
L 70.2 29.065 
L 70.2 33.385 
L 57.6 33.385 
L 57.6 29.065 
" clip-path="url(#pcb35f38311)" style="fill: #0d0887"/>
    <path d="M 70.2 29.065 
L 82.8 29.065 
L 82.8 33.385 
L 70.2 33.385 
L 70.2 29.065 
" clip-path="url(#pcb35f38311)" style="fill: #0d0887"/>
    <path d="M 82.8 29.065 
L 95.4 29.065 
L 95.4 33.385 
L 82.8 33.385 
L 82.8 29.065 
" clip-path="url(#pcb35f38311)" style="fill: #0d0887"/>
    <path d="M 95.4 29.065 
L 108 29.065 
L 108 33.385 
L 95.4 33.385 
L 95.4 29.065 
" clip-path="url(#pcb35f38311)" style="fill: #0d0887"/>
    <path d="M 108 29.065 
L 120.6 29.065 
L 120.6 33.385 
L 108 33.385 
L 108 29.065 
" clip-path="url(#pcb35f38311)" style="fill: #0d0887"/>
    <path d="M 120.6 29.065 
L 133.2 29.065 
L 133.2 33.385 
L 120.6 33.385 
L 120.6 29.065 
" clip-path="url(#pcb35f38311)" style="fill: #0d0887"/>
    <path d="M 133.2 29.065 
L 145.8 29.065 
L 145.8 33.385 
L 133.2 33.385 
L 133.2 29.065 
" clip-path="url(#pcb35f38311)" style="fill: #0d0887"/>
    <path d="M 145.8 29.065 
L 158.4 29.065 
L 158.4 33.385 
L 145.8 33.385 
L 145.8 29.065 
" clip-path="url(#pcb35f38311)" style="fill: #0d0887"/>
    <path d="M 158.4 29.065 
L 171 29.065 
L 171 33.385 
L 158.4 33.385 
L 158.4 29.065 
" clip-path="url(#pcb35f38311)" style="fill: #0d0887"/>
    <path d="M 171 29.065 
L 183.6 29.065 
L 183.6 33.385 
L 171 33.385 
L 171 29.065 
" clip-path="url(#pcb35f38311)" style="fill: #0d0887"/>
    <path d="M 183.6 29.065 
L 196.2 29.065 
L 196.2 33.385 
L 183.6 33.385 
L 183.6 29.065 
" clip-path="url(#pcb35f38311)" style="fill: #0d0887"/>
    <path d="M 196.2 29.065 
L 208.8 29.065 
L 208.8 33.385 
L 196.2 33.385 
L 196.2 29.065 
" clip-path="url(#pcb35f38311)" style="fill: #0d0887"/>
    <path d="M 208.8 29.065 
L 221.4 29.065 
L 221.4 33.385 
L 208.8 33.385 
L 208.8 29.065 
" clip-path="url(#pcb35f38311)" style="fill: #0d0887"/>
    <path d="M 221.4 29.065 
L 234 29.065 
L 234 33.385 
L 221.4 33.385 
L 221.4 29.065 
" clip-path="url(#pcb35f38311)" style="fill: #0d0887"/>
    <path d="M 234 29.065 
L 246.6 29.065 
L 246.6 33.385 
L 234 33.385 
L 234 29.065 
" clip-path="url(#pcb35f38311)" style="fill: #0d0887"/>
    <path d="M 246.6 29.065 
L 259.2 29.065 
L 259.2 33.385 
L 246.6 33.385 
L 246.6 29.065 
" clip-path="url(#pcb35f38311)" style="fill: #0d0887"/>
    <path d="M 7.2 33.385 
L 19.8 33.385 
L 19.8 37.705 
L 7.2 37.705 
L 7.2 33.385 
" clip-path="url(#pcb35f38311)" style="fill: #0d0887"/>
    <path d="M 19.8 33.385 
L 32.4 33.385 
L 32.4 37.705 
L 19.8 37.705 
L 19.8 33.385 
" clip-path="url(#pcb35f38311)" style="fill: #0d0887"/>
    <path d="M 32.4 33.385 
L 45 33.385 
L 45 37.705 
L 32.4 37.705 
L 32.4 33.385 
" clip-path="url(#pcb35f38311)" style="fill: #f0f921"/>
    <path d="M 45 33.385 
L 57.6 33.385 
L 57.6 37.705 
L 45 37.705 
L 45 33.385 
" clip-path="url(#pcb35f38311)" style="fill: #0d0887"/>
    <path d="M 57.6 33.385 
L 70.2 33.385 
L 70.2 37.705 
L 57.6 37.705 
L 57.6 33.385 
" clip-path="url(#pcb35f38311)" style="fill: #0d0887"/>
    <path d="M 70.2 33.385 
L 82.8 33.385 
L 82.8 37.705 
L 70.2 37.705 
L 70.2 33.385 
" clip-path="url(#pcb35f38311)" style="fill: #0d0887"/>
    <path d="M 82.8 33.385 
L 95.4 33.385 
L 95.4 37.705 
L 82.8 37.705 
L 82.8 33.385 
" clip-path="url(#pcb35f38311)" style="fill: #6600a7"/>
    <path d="M 95.4 33.385 
L 108 33.385 
L 108 37.705 
L 95.4 37.705 
L 95.4 33.385 
" clip-path="url(#pcb35f38311)" style="fill: #0d0887"/>
    <path d="M 108 33.385 
L 120.6 33.385 
L 120.6 37.705 
L 108 37.705 
L 108 33.385 
" clip-path="url(#pcb35f38311)" style="fill: #0d0887"/>
    <path d="M 120.6 33.385 
L 133.2 33.385 
L 133.2 37.705 
L 120.6 37.705 
L 120.6 33.385 
" clip-path="url(#pcb35f38311)" style="fill: #0d0887"/>
    <path d="M 133.2 33.385 
L 145.8 33.385 
L 145.8 37.705 
L 133.2 37.705 
L 133.2 33.385 
" clip-path="url(#pcb35f38311)" style="fill: #c5407e"/>
    <path d="M 145.8 33.385 
L 158.4 33.385 
L 158.4 37.705 
L 145.8 37.705 
L 145.8 33.385 
" clip-path="url(#pcb35f38311)" style="fill: #bc3587"/>
    <path d="M 158.4 33.385 
L 171 33.385 
L 171 37.705 
L 158.4 37.705 
L 158.4 33.385 
" clip-path="url(#pcb35f38311)" style="fill: #0d0887"/>
    <path d="M 171 33.385 
L 183.6 33.385 
L 183.6 37.705 
L 171 37.705 
L 171 33.385 
" clip-path="url(#pcb35f38311)" style="fill: #0d0887"/>
    <path d="M 183.6 33.385 
L 196.2 33.385 
L 196.2 37.705 
L 183.6 37.705 
L 183.6 33.385 
" clip-path="url(#pcb35f38311)" style="fill: #0d0887"/>
    <path d="M 196.2 33.385 
L 208.8 33.385 
L 208.8 37.705 
L 196.2 37.705 
L 196.2 33.385 
" clip-path="url(#pcb35f38311)" style="fill: #0d0887"/>
    <path d="M 208.8 33.385 
L 221.4 33.385 
L 221.4 37.705 
L 208.8 37.705 
L 208.8 33.385 
" clip-path="url(#pcb35f38311)" style="fill: #0d0887"/>
    <path d="M 221.4 33.385 
L 234 33.385 
L 234 37.705 
L 221.4 37.705 
L 221.4 33.385 
" clip-path="url(#pcb35f38311)" style="fill: #0d0887"/>
    <path d="M 234 33.385 
L 246.6 33.385 
L 246.6 37.705 
L 234 37.705 
L 234 33.385 
" clip-path="url(#pcb35f38311)" style="fill: #0d0887"/>
    <path d="M 246.6 33.385 
L 259.2 33.385 
L 259.2 37.705 
L 246.6 37.705 
L 246.6 33.385 
" clip-path="url(#pcb35f38311)" style="fill: #0d0887"/>
    <path d="M 7.2 37.705 
L 19.8 37.705 
L 19.8 42.025 
L 7.2 42.025 
L 7.2 37.705 
" clip-path="url(#pcb35f38311)" style="fill: #0d0887"/>
    <path d="M 19.8 37.705 
L 32.4 37.705 
L 32.4 42.025 
L 19.8 42.025 
L 19.8 37.705 
" clip-path="url(#pcb35f38311)" style="fill: #0d0887"/>
    <path d="M 32.4 37.705 
L 45 37.705 
L 45 42.025 
L 32.4 42.025 
L 32.4 37.705 
" clip-path="url(#pcb35f38311)" style="fill: #0d0887"/>
    <path d="M 45 37.705 
L 57.6 37.705 
L 57.6 42.025 
L 45 42.025 
L 45 37.705 
" clip-path="url(#pcb35f38311)" style="fill: #f0f921"/>
    <path d="M 57.6 37.705 
L 70.2 37.705 
L 70.2 42.025 
L 57.6 42.025 
L 57.6 37.705 
" clip-path="url(#pcb35f38311)" style="fill: #0d0887"/>
    <path d="M 70.2 37.705 
L 82.8 37.705 
L 82.8 42.025 
L 70.2 42.025 
L 70.2 37.705 
" clip-path="url(#pcb35f38311)" style="fill: #0d0887"/>
    <path d="M 82.8 37.705 
L 95.4 37.705 
L 95.4 42.025 
L 82.8 42.025 
L 82.8 37.705 
" clip-path="url(#pcb35f38311)" style="fill: #0d0887"/>
    <path d="M 95.4 37.705 
L 108 37.705 
L 108 42.025 
L 95.4 42.025 
L 95.4 37.705 
" clip-path="url(#pcb35f38311)" style="fill: #0d0887"/>
    <path d="M 108 37.705 
L 120.6 37.705 
L 120.6 42.025 
L 108 42.025 
L 108 37.705 
" clip-path="url(#pcb35f38311)" style="fill: #0d0887"/>
    <path d="M 120.6 37.705 
L 133.2 37.705 
L 133.2 42.025 
L 120.6 42.025 
L 120.6 37.705 
" clip-path="url(#pcb35f38311)" style="fill: #0d0887"/>
    <path d="M 133.2 37.705 
L 145.8 37.705 
L 145.8 42.025 
L 133.2 42.025 
L 133.2 37.705 
" clip-path="url(#pcb35f38311)" style="fill: #0d0887"/>
    <path d="M 145.8 37.705 
L 158.4 37.705 
L 158.4 42.025 
L 145.8 42.025 
L 145.8 37.705 
" clip-path="url(#pcb35f38311)" style="fill: #0d0887"/>
    <path d="M 158.4 37.705 
L 171 37.705 
L 171 42.025 
L 158.4 42.025 
L 158.4 37.705 
" clip-path="url(#pcb35f38311)" style="fill: #0d0887"/>
    <path d="M 171 37.705 
L 183.6 37.705 
L 183.6 42.025 
L 171 42.025 
L 171 37.705 
" clip-path="url(#pcb35f38311)" style="fill: #0d0887"/>
    <path d="M 183.6 37.705 
L 196.2 37.705 
L 196.2 42.025 
L 183.6 42.025 
L 183.6 37.705 
" clip-path="url(#pcb35f38311)" style="fill: #0d0887"/>
    <path d="M 196.2 37.705 
L 208.8 37.705 
L 208.8 42.025 
L 196.2 42.025 
L 196.2 37.705 
" clip-path="url(#pcb35f38311)" style="fill: #0d0887"/>
    <path d="M 208.8 37.705 
L 221.4 37.705 
L 221.4 42.025 
L 208.8 42.025 
L 208.8 37.705 
" clip-path="url(#pcb35f38311)" style="fill: #0d0887"/>
    <path d="M 221.4 37.705 
L 234 37.705 
L 234 42.025 
L 221.4 42.025 
L 221.4 37.705 
" clip-path="url(#pcb35f38311)" style="fill: #0d0887"/>
    <path d="M 234 37.705 
L 246.6 37.705 
L 246.6 42.025 
L 234 42.025 
L 234 37.705 
" clip-path="url(#pcb35f38311)" style="fill: #0d0887"/>
    <path d="M 246.6 37.705 
L 259.2 37.705 
L 259.2 42.025 
L 246.6 42.025 
L 246.6 37.705 
" clip-path="url(#pcb35f38311)" style="fill: #0d0887"/>
    <path d="M 7.2 42.025 
L 19.8 42.025 
L 19.8 46.345 
L 7.2 46.345 
L 7.2 42.025 
" clip-path="url(#pcb35f38311)" style="fill: #0d0887"/>
    <path d="M 19.8 42.025 
L 32.4 42.025 
L 32.4 46.345 
L 19.8 46.345 
L 19.8 42.025 
" clip-path="url(#pcb35f38311)" style="fill: #0d0887"/>
    <path d="M 32.4 42.025 
L 45 42.025 
L 45 46.345 
L 32.4 46.345 
L 32.4 42.025 
" clip-path="url(#pcb35f38311)" style="fill: #0d0887"/>
    <path d="M 45 42.025 
L 57.6 42.025 
L 57.6 46.345 
L 45 46.345 
L 45 42.025 
" clip-path="url(#pcb35f38311)" style="fill: #f0f921"/>
    <path d="M 57.6 42.025 
L 70.2 42.025 
L 70.2 46.345 
L 57.6 46.345 
L 57.6 42.025 
" clip-path="url(#pcb35f38311)" style="fill: #0d0887"/>
    <path d="M 70.2 42.025 
L 82.8 42.025 
L 82.8 46.345 
L 70.2 46.345 
L 70.2 42.025 
" clip-path="url(#pcb35f38311)" style="fill: #0d0887"/>
    <path d="M 82.8 42.025 
L 95.4 42.025 
L 95.4 46.345 
L 82.8 46.345 
L 82.8 42.025 
" clip-path="url(#pcb35f38311)" style="fill: #0d0887"/>
    <path d="M 95.4 42.025 
L 108 42.025 
L 108 46.345 
L 95.4 46.345 
L 95.4 42.025 
" clip-path="url(#pcb35f38311)" style="fill: #0d0887"/>
    <path d="M 108 42.025 
L 120.6 42.025 
L 120.6 46.345 
L 108 46.345 
L 108 42.025 
" clip-path="url(#pcb35f38311)" style="fill: #0d0887"/>
    <path d="M 120.6 42.025 
L 133.2 42.025 
L 133.2 46.345 
L 120.6 46.345 
L 120.6 42.025 
" clip-path="url(#pcb35f38311)" style="fill: #0d0887"/>
    <path d="M 133.2 42.025 
L 145.8 42.025 
L 145.8 46.345 
L 133.2 46.345 
L 133.2 42.025 
" clip-path="url(#pcb35f38311)" style="fill: #0d0887"/>
    <path d="M 145.8 42.025 
L 158.4 42.025 
L 158.4 46.345 
L 145.8 46.345 
L 145.8 42.025 
" clip-path="url(#pcb35f38311)" style="fill: #0d0887"/>
    <path d="M 158.4 42.025 
L 171 42.025 
L 171 46.345 
L 158.4 46.345 
L 158.4 42.025 
" clip-path="url(#pcb35f38311)" style="fill: #0d0887"/>
    <path d="M 171 42.025 
L 183.6 42.025 
L 183.6 46.345 
L 171 46.345 
L 171 42.025 
" clip-path="url(#pcb35f38311)" style="fill: #0d0887"/>
    <path d="M 183.6 42.025 
L 196.2 42.025 
L 196.2 46.345 
L 183.6 46.345 
L 183.6 42.025 
" clip-path="url(#pcb35f38311)" style="fill: #0d0887"/>
    <path d="M 196.2 42.025 
L 208.8 42.025 
L 208.8 46.345 
L 196.2 46.345 
L 196.2 42.025 
" clip-path="url(#pcb35f38311)" style="fill: #0d0887"/>
    <path d="M 208.8 42.025 
L 221.4 42.025 
L 221.4 46.345 
L 208.8 46.345 
L 208.8 42.025 
" clip-path="url(#pcb35f38311)" style="fill: #0d0887"/>
    <path d="M 221.4 42.025 
L 234 42.025 
L 234 46.345 
L 221.4 46.345 
L 221.4 42.025 
" clip-path="url(#pcb35f38311)" style="fill: #0d0887"/>
    <path d="M 234 42.025 
L 246.6 42.025 
L 246.6 46.345 
L 234 46.345 
L 234 42.025 
" clip-path="url(#pcb35f38311)" style="fill: #0d0887"/>
    <path d="M 246.6 42.025 
L 259.2 42.025 
L 259.2 46.345 
L 246.6 46.345 
L 246.6 42.025 
" clip-path="url(#pcb35f38311)" style="fill: #0d0887"/>
    <path d="M 7.2 46.345 
L 19.8 46.345 
L 19.8 50.665 
L 7.2 50.665 
L 7.2 46.345 
" clip-path="url(#pcb35f38311)" style="fill: #0d0887"/>
    <path d="M 19.8 46.345 
L 32.4 46.345 
L 32.4 50.665 
L 19.8 50.665 
L 19.8 46.345 
" clip-path="url(#pcb35f38311)" style="fill: #0d0887"/>
    <path d="M 32.4 46.345 
L 45 46.345 
L 45 50.665 
L 32.4 50.665 
L 32.4 46.345 
" clip-path="url(#pcb35f38311)" style="fill: #f0f921"/>
    <path d="M 45 46.345 
L 57.6 46.345 
L 57.6 50.665 
L 45 50.665 
L 45 46.345 
" clip-path="url(#pcb35f38311)" style="fill: #0d0887"/>
    <path d="M 57.6 46.345 
L 70.2 46.345 
L 70.2 50.665 
L 57.6 50.665 
L 57.6 46.345 
" clip-path="url(#pcb35f38311)" style="fill: #0d0887"/>
    <path d="M 70.2 46.345 
L 82.8 46.345 
L 82.8 50.665 
L 70.2 50.665 
L 70.2 46.345 
" clip-path="url(#pcb35f38311)" style="fill: #0d0887"/>
    <path d="M 82.8 46.345 
L 95.4 46.345 
L 95.4 50.665 
L 82.8 50.665 
L 82.8 46.345 
" clip-path="url(#pcb35f38311)" style="fill: #0d0887"/>
    <path d="M 95.4 46.345 
L 108 46.345 
L 108 50.665 
L 95.4 50.665 
L 95.4 46.345 
" clip-path="url(#pcb35f38311)" style="fill: #0d0887"/>
    <path d="M 108 46.345 
L 120.6 46.345 
L 120.6 50.665 
L 108 50.665 
L 108 46.345 
" clip-path="url(#pcb35f38311)" style="fill: #0d0887"/>
    <path d="M 120.6 46.345 
L 133.2 46.345 
L 133.2 50.665 
L 120.6 50.665 
L 120.6 46.345 
" clip-path="url(#pcb35f38311)" style="fill: #0d0887"/>
    <path d="M 133.2 46.345 
L 145.8 46.345 
L 145.8 50.665 
L 133.2 50.665 
L 133.2 46.345 
" clip-path="url(#pcb35f38311)" style="fill: #0d0887"/>
    <path d="M 145.8 46.345 
L 158.4 46.345 
L 158.4 50.665 
L 145.8 50.665 
L 145.8 46.345 
" clip-path="url(#pcb35f38311)" style="fill: #0d0887"/>
    <path d="M 158.4 46.345 
L 171 46.345 
L 171 50.665 
L 158.4 50.665 
L 158.4 46.345 
" clip-path="url(#pcb35f38311)" style="fill: #0d0887"/>
    <path d="M 171 46.345 
L 183.6 46.345 
L 183.6 50.665 
L 171 50.665 
L 171 46.345 
" clip-path="url(#pcb35f38311)" style="fill: #0d0887"/>
    <path d="M 183.6 46.345 
L 196.2 46.345 
L 196.2 50.665 
L 183.6 50.665 
L 183.6 46.345 
" clip-path="url(#pcb35f38311)" style="fill: #0d0887"/>
    <path d="M 196.2 46.345 
L 208.8 46.345 
L 208.8 50.665 
L 196.2 50.665 
L 196.2 46.345 
" clip-path="url(#pcb35f38311)" style="fill: #0d0887"/>
    <path d="M 208.8 46.345 
L 221.4 46.345 
L 221.4 50.665 
L 208.8 50.665 
L 208.8 46.345 
" clip-path="url(#pcb35f38311)" style="fill: #0d0887"/>
    <path d="M 221.4 46.345 
L 234 46.345 
L 234 50.665 
L 221.4 50.665 
L 221.4 46.345 
" clip-path="url(#pcb35f38311)" style="fill: #0d0887"/>
    <path d="M 234 46.345 
L 246.6 46.345 
L 246.6 50.665 
L 234 50.665 
L 234 46.345 
" clip-path="url(#pcb35f38311)" style="fill: #0d0887"/>
    <path d="M 246.6 46.345 
L 259.2 46.345 
L 259.2 50.665 
L 246.6 50.665 
L 246.6 46.345 
" clip-path="url(#pcb35f38311)" style="fill: #0d0887"/>
    <path d="M 7.2 50.665 
L 19.8 50.665 
L 19.8 54.985 
L 7.2 54.985 
L 7.2 50.665 
" clip-path="url(#pcb35f38311)" style="fill: #0d0887"/>
    <path d="M 19.8 50.665 
L 32.4 50.665 
L 32.4 54.985 
L 19.8 54.985 
L 19.8 50.665 
" clip-path="url(#pcb35f38311)" style="fill: #0d0887"/>
    <path d="M 32.4 50.665 
L 45 50.665 
L 45 54.985 
L 32.4 54.985 
L 32.4 50.665 
" clip-path="url(#pcb35f38311)" style="fill: #f0f921"/>
    <path d="M 45 50.665 
L 57.6 50.665 
L 57.6 54.985 
L 45 54.985 
L 45 50.665 
" clip-path="url(#pcb35f38311)" style="fill: #0d0887"/>
    <path d="M 57.6 50.665 
L 70.2 50.665 
L 70.2 54.985 
L 57.6 54.985 
L 57.6 50.665 
" clip-path="url(#pcb35f38311)" style="fill: #0d0887"/>
    <path d="M 70.2 50.665 
L 82.8 50.665 
L 82.8 54.985 
L 70.2 54.985 
L 70.2 50.665 
" clip-path="url(#pcb35f38311)" style="fill: #0d0887"/>
    <path d="M 82.8 50.665 
L 95.4 50.665 
L 95.4 54.985 
L 82.8 54.985 
L 82.8 50.665 
" clip-path="url(#pcb35f38311)" style="fill: #0d0887"/>
    <path d="M 95.4 50.665 
L 108 50.665 
L 108 54.985 
L 95.4 54.985 
L 95.4 50.665 
" clip-path="url(#pcb35f38311)" style="fill: #0d0887"/>
    <path d="M 108 50.665 
L 120.6 50.665 
L 120.6 54.985 
L 108 54.985 
L 108 50.665 
" clip-path="url(#pcb35f38311)" style="fill: #0d0887"/>
    <path d="M 120.6 50.665 
L 133.2 50.665 
L 133.2 54.985 
L 120.6 54.985 
L 120.6 50.665 
" clip-path="url(#pcb35f38311)" style="fill: #0d0887"/>
    <path d="M 133.2 50.665 
L 145.8 50.665 
L 145.8 54.985 
L 133.2 54.985 
L 133.2 50.665 
" clip-path="url(#pcb35f38311)" style="fill: #0d0887"/>
    <path d="M 145.8 50.665 
L 158.4 50.665 
L 158.4 54.985 
L 145.8 54.985 
L 145.8 50.665 
" clip-path="url(#pcb35f38311)" style="fill: #0d0887"/>
    <path d="M 158.4 50.665 
L 171 50.665 
L 171 54.985 
L 158.4 54.985 
L 158.4 50.665 
" clip-path="url(#pcb35f38311)" style="fill: #0d0887"/>
    <path d="M 171 50.665 
L 183.6 50.665 
L 183.6 54.985 
L 171 54.985 
L 171 50.665 
" clip-path="url(#pcb35f38311)" style="fill: #0d0887"/>
    <path d="M 183.6 50.665 
L 196.2 50.665 
L 196.2 54.985 
L 183.6 54.985 
L 183.6 50.665 
" clip-path="url(#pcb35f38311)" style="fill: #0d0887"/>
    <path d="M 196.2 50.665 
L 208.8 50.665 
L 208.8 54.985 
L 196.2 54.985 
L 196.2 50.665 
" clip-path="url(#pcb35f38311)" style="fill: #0d0887"/>
    <path d="M 208.8 50.665 
L 221.4 50.665 
L 221.4 54.985 
L 208.8 54.985 
L 208.8 50.665 
" clip-path="url(#pcb35f38311)" style="fill: #0d0887"/>
    <path d="M 221.4 50.665 
L 234 50.665 
L 234 54.985 
L 221.4 54.985 
L 221.4 50.665 
" clip-path="url(#pcb35f38311)" style="fill: #0d0887"/>
    <path d="M 234 50.665 
L 246.6 50.665 
L 246.6 54.985 
L 234 54.985 
L 234 50.665 
" clip-path="url(#pcb35f38311)" style="fill: #0d0887"/>
    <path d="M 246.6 50.665 
L 259.2 50.665 
L 259.2 54.985 
L 246.6 54.985 
L 246.6 50.665 
" clip-path="url(#pcb35f38311)" style="fill: #0d0887"/>
    <path d="M 7.2 54.985 
L 19.8 54.985 
L 19.8 59.305 
L 7.2 59.305 
L 7.2 54.985 
" clip-path="url(#pcb35f38311)" style="fill: #0d0887"/>
    <path d="M 19.8 54.985 
L 32.4 54.985 
L 32.4 59.305 
L 19.8 59.305 
L 19.8 54.985 
" clip-path="url(#pcb35f38311)" style="fill: #0d0887"/>
    <path d="M 32.4 54.985 
L 45 54.985 
L 45 59.305 
L 32.4 59.305 
L 32.4 54.985 
" clip-path="url(#pcb35f38311)" style="fill: #0d0887"/>
    <path d="M 45 54.985 
L 57.6 54.985 
L 57.6 59.305 
L 45 59.305 
L 45 54.985 
" clip-path="url(#pcb35f38311)" style="fill: #0d0887"/>
    <path d="M 57.6 54.985 
L 70.2 54.985 
L 70.2 59.305 
L 57.6 59.305 
L 57.6 54.985 
" clip-path="url(#pcb35f38311)" style="fill: #0d0887"/>
    <path d="M 70.2 54.985 
L 82.8 54.985 
L 82.8 59.305 
L 70.2 59.305 
L 70.2 54.985 
" clip-path="url(#pcb35f38311)" style="fill: #0d0887"/>
    <path d="M 82.8 54.985 
L 95.4 54.985 
L 95.4 59.305 
L 82.8 59.305 
L 82.8 54.985 
" clip-path="url(#pcb35f38311)" style="fill: #0d0887"/>
    <path d="M 95.4 54.985 
L 108 54.985 
L 108 59.305 
L 95.4 59.305 
L 95.4 54.985 
" clip-path="url(#pcb35f38311)" style="fill: #0d0887"/>
    <path d="M 108 54.985 
L 120.6 54.985 
L 120.6 59.305 
L 108 59.305 
L 108 54.985 
" clip-path="url(#pcb35f38311)" style="fill: #0d0887"/>
    <path d="M 120.6 54.985 
L 133.2 54.985 
L 133.2 59.305 
L 120.6 59.305 
L 120.6 54.985 
" clip-path="url(#pcb35f38311)" style="fill: #0d0887"/>
    <path d="M 133.2 54.985 
L 145.8 54.985 
L 145.8 59.305 
L 133.2 59.305 
L 133.2 54.985 
" clip-path="url(#pcb35f38311)" style="fill: #0d0887"/>
    <path d="M 145.8 54.985 
L 158.4 54.985 
L 158.4 59.305 
L 145.8 59.305 
L 145.8 54.985 
" clip-path="url(#pcb35f38311)" style="fill: #0d0887"/>
    <path d="M 158.4 54.985 
L 171 54.985 
L 171 59.305 
L 158.4 59.305 
L 158.4 54.985 
" clip-path="url(#pcb35f38311)" style="fill: #0d0887"/>
    <path d="M 171 54.985 
L 183.6 54.985 
L 183.6 59.305 
L 171 59.305 
L 171 54.985 
" clip-path="url(#pcb35f38311)" style="fill: #0d0887"/>
    <path d="M 183.6 54.985 
L 196.2 54.985 
L 196.2 59.305 
L 183.6 59.305 
L 183.6 54.985 
" clip-path="url(#pcb35f38311)" style="fill: #0d0887"/>
    <path d="M 196.2 54.985 
L 208.8 54.985 
L 208.8 59.305 
L 196.2 59.305 
L 196.2 54.985 
" clip-path="url(#pcb35f38311)" style="fill: #5502a4"/>
    <path d="M 208.8 54.985 
L 221.4 54.985 
L 221.4 59.305 
L 208.8 59.305 
L 208.8 54.985 
" clip-path="url(#pcb35f38311)" style="fill: #feb72d"/>
    <path d="M 221.4 54.985 
L 234 54.985 
L 234 59.305 
L 221.4 59.305 
L 221.4 54.985 
" clip-path="url(#pcb35f38311)" style="fill: #a11b9b"/>
    <path d="M 234 54.985 
L 246.6 54.985 
L 246.6 59.305 
L 234 59.305 
L 234 54.985 
" clip-path="url(#pcb35f38311)" style="fill: #0d0887"/>
    <path d="M 246.6 54.985 
L 259.2 54.985 
L 259.2 59.305 
L 246.6 59.305 
L 246.6 54.985 
" clip-path="url(#pcb35f38311)" style="fill: #0d0887"/>
    <path d="M 7.2 59.305 
L 19.8 59.305 
L 19.8 63.625 
L 7.2 63.625 
L 7.2 59.305 
" clip-path="url(#pcb35f38311)" style="fill: #0d0887"/>
    <path d="M 19.8 59.305 
L 32.4 59.305 
L 32.4 63.625 
L 19.8 63.625 
L 19.8 59.305 
" clip-path="url(#pcb35f38311)" style="fill: #0d0887"/>
    <path d="M 32.4 59.305 
L 45 59.305 
L 45 63.625 
L 32.4 63.625 
L 32.4 59.305 
" clip-path="url(#pcb35f38311)" style="fill: #0d0887"/>
    <path d="M 45 59.305 
L 57.6 59.305 
L 57.6 63.625 
L 45 63.625 
L 45 59.305 
" clip-path="url(#pcb35f38311)" style="fill: #0d0887"/>
    <path d="M 57.6 59.305 
L 70.2 59.305 
L 70.2 63.625 
L 57.6 63.625 
L 57.6 59.305 
" clip-path="url(#pcb35f38311)" style="fill: #0d0887"/>
    <path d="M 70.2 59.305 
L 82.8 59.305 
L 82.8 63.625 
L 70.2 63.625 
L 70.2 59.305 
" clip-path="url(#pcb35f38311)" style="fill: #0d0887"/>
    <path d="M 82.8 59.305 
L 95.4 59.305 
L 95.4 63.625 
L 82.8 63.625 
L 82.8 59.305 
" clip-path="url(#pcb35f38311)" style="fill: #0d0887"/>
    <path d="M 95.4 59.305 
L 108 59.305 
L 108 63.625 
L 95.4 63.625 
L 95.4 59.305 
" clip-path="url(#pcb35f38311)" style="fill: #0d0887"/>
    <path d="M 108 59.305 
L 120.6 59.305 
L 120.6 63.625 
L 108 63.625 
L 108 59.305 
" clip-path="url(#pcb35f38311)" style="fill: #0d0887"/>
    <path d="M 120.6 59.305 
L 133.2 59.305 
L 133.2 63.625 
L 120.6 63.625 
L 120.6 59.305 
" clip-path="url(#pcb35f38311)" style="fill: #0d0887"/>
    <path d="M 133.2 59.305 
L 145.8 59.305 
L 145.8 63.625 
L 133.2 63.625 
L 133.2 59.305 
" clip-path="url(#pcb35f38311)" style="fill: #0d0887"/>
    <path d="M 145.8 59.305 
L 158.4 59.305 
L 158.4 63.625 
L 145.8 63.625 
L 145.8 59.305 
" clip-path="url(#pcb35f38311)" style="fill: #0d0887"/>
    <path d="M 158.4 59.305 
L 171 59.305 
L 171 63.625 
L 158.4 63.625 
L 158.4 59.305 
" clip-path="url(#pcb35f38311)" style="fill: #0d0887"/>
    <path d="M 171 59.305 
L 183.6 59.305 
L 183.6 63.625 
L 171 63.625 
L 171 59.305 
" clip-path="url(#pcb35f38311)" style="fill: #0d0887"/>
    <path d="M 183.6 59.305 
L 196.2 59.305 
L 196.2 63.625 
L 183.6 63.625 
L 183.6 59.305 
" clip-path="url(#pcb35f38311)" style="fill: #0d0887"/>
    <path d="M 196.2 59.305 
L 208.8 59.305 
L 208.8 63.625 
L 196.2 63.625 
L 196.2 59.305 
" clip-path="url(#pcb35f38311)" style="fill: #5502a4"/>
    <path d="M 208.8 59.305 
L 221.4 59.305 
L 221.4 63.625 
L 208.8 63.625 
L 208.8 59.305 
" clip-path="url(#pcb35f38311)" style="fill: #feb72d"/>
    <path d="M 221.4 59.305 
L 234 59.305 
L 234 63.625 
L 221.4 63.625 
L 221.4 59.305 
" clip-path="url(#pcb35f38311)" style="fill: #a11b9b"/>
    <path d="M 234 59.305 
L 246.6 59.305 
L 246.6 63.625 
L 234 63.625 
L 234 59.305 
" clip-path="url(#pcb35f38311)" style="fill: #0d0887"/>
    <path d="M 246.6 59.305 
L 259.2 59.305 
L 259.2 63.625 
L 246.6 63.625 
L 246.6 59.305 
" clip-path="url(#pcb35f38311)" style="fill: #0d0887"/>
    <path d="M 7.2 63.625 
L 19.8 63.625 
L 19.8 67.945 
L 7.2 67.945 
L 7.2 63.625 
" clip-path="url(#pcb35f38311)" style="fill: #0d0887"/>
    <path d="M 19.8 63.625 
L 32.4 63.625 
L 32.4 67.945 
L 19.8 67.945 
L 19.8 63.625 
" clip-path="url(#pcb35f38311)" style="fill: #0d0887"/>
    <path d="M 32.4 63.625 
L 45 63.625 
L 45 67.945 
L 32.4 67.945 
L 32.4 63.625 
" clip-path="url(#pcb35f38311)" style="fill: #0d0887"/>
    <path d="M 45 63.625 
L 57.6 63.625 
L 57.6 67.945 
L 45 67.945 
L 45 63.625 
" clip-path="url(#pcb35f38311)" style="fill: #0d0887"/>
    <path d="M 57.6 63.625 
L 70.2 63.625 
L 70.2 67.945 
L 57.6 67.945 
L 57.6 63.625 
" clip-path="url(#pcb35f38311)" style="fill: #0d0887"/>
    <path d="M 70.2 63.625 
L 82.8 63.625 
L 82.8 67.945 
L 70.2 67.945 
L 70.2 63.625 
" clip-path="url(#pcb35f38311)" style="fill: #0d0887"/>
    <path d="M 82.8 63.625 
L 95.4 63.625 
L 95.4 67.945 
L 82.8 67.945 
L 82.8 63.625 
" clip-path="url(#pcb35f38311)" style="fill: #0d0887"/>
    <path d="M 95.4 63.625 
L 108 63.625 
L 108 67.945 
L 95.4 67.945 
L 95.4 63.625 
" clip-path="url(#pcb35f38311)" style="fill: #0d0887"/>
    <path d="M 108 63.625 
L 120.6 63.625 
L 120.6 67.945 
L 108 67.945 
L 108 63.625 
" clip-path="url(#pcb35f38311)" style="fill: #0d0887"/>
    <path d="M 120.6 63.625 
L 133.2 63.625 
L 133.2 67.945 
L 120.6 67.945 
L 120.6 63.625 
" clip-path="url(#pcb35f38311)" style="fill: #0d0887"/>
    <path d="M 133.2 63.625 
L 145.8 63.625 
L 145.8 67.945 
L 133.2 67.945 
L 133.2 63.625 
" clip-path="url(#pcb35f38311)" style="fill: #0d0887"/>
    <path d="M 145.8 63.625 
L 158.4 63.625 
L 158.4 67.945 
L 145.8 67.945 
L 145.8 63.625 
" clip-path="url(#pcb35f38311)" style="fill: #350498"/>
    <path d="M 158.4 63.625 
L 171 63.625 
L 171 67.945 
L 158.4 67.945 
L 158.4 63.625 
" clip-path="url(#pcb35f38311)" style="fill: #0d0887"/>
    <path d="M 171 63.625 
L 183.6 63.625 
L 183.6 67.945 
L 171 67.945 
L 171 63.625 
" clip-path="url(#pcb35f38311)" style="fill: #0d0887"/>
    <path d="M 183.6 63.625 
L 196.2 63.625 
L 196.2 67.945 
L 183.6 67.945 
L 183.6 63.625 
" clip-path="url(#pcb35f38311)" style="fill: #0d0887"/>
    <path d="M 196.2 63.625 
L 208.8 63.625 
L 208.8 67.945 
L 196.2 67.945 
L 196.2 63.625 
" clip-path="url(#pcb35f38311)" style="fill: #0d0887"/>
    <path d="M 208.8 63.625 
L 221.4 63.625 
L 221.4 67.945 
L 208.8 67.945 
L 208.8 63.625 
" clip-path="url(#pcb35f38311)" style="fill: #0d0887"/>
    <path d="M 221.4 63.625 
L 234 63.625 
L 234 67.945 
L 221.4 67.945 
L 221.4 63.625 
" clip-path="url(#pcb35f38311)" style="fill: #6001a6"/>
    <path d="M 234 63.625 
L 246.6 63.625 
L 246.6 67.945 
L 234 67.945 
L 234 63.625 
" clip-path="url(#pcb35f38311)" style="fill: #df6263"/>
    <path d="M 246.6 63.625 
L 259.2 63.625 
L 259.2 67.945 
L 246.6 67.945 
L 246.6 63.625 
" clip-path="url(#pcb35f38311)" style="fill: #0d0887"/>
    <path d="M 7.2 67.945 
L 19.8 67.945 
L 19.8 72.265 
L 7.2 72.265 
L 7.2 67.945 
" clip-path="url(#pcb35f38311)" style="fill: #0d0887"/>
    <path d="M 19.8 67.945 
L 32.4 67.945 
L 32.4 72.265 
L 19.8 72.265 
L 19.8 67.945 
" clip-path="url(#pcb35f38311)" style="fill: #0d0887"/>
    <path d="M 32.4 67.945 
L 45 67.945 
L 45 72.265 
L 32.4 72.265 
L 32.4 67.945 
" clip-path="url(#pcb35f38311)" style="fill: #0d0887"/>
    <path d="M 45 67.945 
L 57.6 67.945 
L 57.6 72.265 
L 45 72.265 
L 45 67.945 
" clip-path="url(#pcb35f38311)" style="fill: #0d0887"/>
    <path d="M 57.6 67.945 
L 70.2 67.945 
L 70.2 72.265 
L 57.6 72.265 
L 57.6 67.945 
" clip-path="url(#pcb35f38311)" style="fill: #0d0887"/>
    <path d="M 70.2 67.945 
L 82.8 67.945 
L 82.8 72.265 
L 70.2 72.265 
L 70.2 67.945 
" clip-path="url(#pcb35f38311)" style="fill: #0d0887"/>
    <path d="M 82.8 67.945 
L 95.4 67.945 
L 95.4 72.265 
L 82.8 72.265 
L 82.8 67.945 
" clip-path="url(#pcb35f38311)" style="fill: #0d0887"/>
    <path d="M 95.4 67.945 
L 108 67.945 
L 108 72.265 
L 95.4 72.265 
L 95.4 67.945 
" clip-path="url(#pcb35f38311)" style="fill: #0d0887"/>
    <path d="M 108 67.945 
L 120.6 67.945 
L 120.6 72.265 
L 108 72.265 
L 108 67.945 
" clip-path="url(#pcb35f38311)" style="fill: #0d0887"/>
    <path d="M 120.6 67.945 
L 133.2 67.945 
L 133.2 72.265 
L 120.6 72.265 
L 120.6 67.945 
" clip-path="url(#pcb35f38311)" style="fill: #0d0887"/>
    <path d="M 133.2 67.945 
L 145.8 67.945 
L 145.8 72.265 
L 133.2 72.265 
L 133.2 67.945 
" clip-path="url(#pcb35f38311)" style="fill: #0d0887"/>
    <path d="M 145.8 67.945 
L 158.4 67.945 
L 158.4 72.265 
L 145.8 72.265 
L 145.8 67.945 
" clip-path="url(#pcb35f38311)" style="fill: #350498"/>
    <path d="M 158.4 67.945 
L 171 67.945 
L 171 72.265 
L 158.4 72.265 
L 158.4 67.945 
" clip-path="url(#pcb35f38311)" style="fill: #0d0887"/>
    <path d="M 171 67.945 
L 183.6 67.945 
L 183.6 72.265 
L 171 72.265 
L 171 67.945 
" clip-path="url(#pcb35f38311)" style="fill: #0d0887"/>
    <path d="M 183.6 67.945 
L 196.2 67.945 
L 196.2 72.265 
L 183.6 72.265 
L 183.6 67.945 
" clip-path="url(#pcb35f38311)" style="fill: #0d0887"/>
    <path d="M 196.2 67.945 
L 208.8 67.945 
L 208.8 72.265 
L 196.2 72.265 
L 196.2 67.945 
" clip-path="url(#pcb35f38311)" style="fill: #0d0887"/>
    <path d="M 208.8 67.945 
L 221.4 67.945 
L 221.4 72.265 
L 208.8 72.265 
L 208.8 67.945 
" clip-path="url(#pcb35f38311)" style="fill: #0d0887"/>
    <path d="M 221.4 67.945 
L 234 67.945 
L 234 72.265 
L 221.4 72.265 
L 221.4 67.945 
" clip-path="url(#pcb35f38311)" style="fill: #6001a6"/>
    <path d="M 234 67.945 
L 246.6 67.945 
L 246.6 72.265 
L 234 72.265 
L 234 67.945 
" clip-path="url(#pcb35f38311)" style="fill: #df6263"/>
    <path d="M 246.6 67.945 
L 259.2 67.945 
L 259.2 72.265 
L 246.6 72.265 
L 246.6 67.945 
" clip-path="url(#pcb35f38311)" style="fill: #0d0887"/>
    <path d="M 7.2 72.265 
L 19.8 72.265 
L 19.8 76.585 
L 7.2 76.585 
L 7.2 72.265 
" clip-path="url(#pcb35f38311)" style="fill: #0d0887"/>
    <path d="M 19.8 72.265 
L 32.4 72.265 
L 32.4 76.585 
L 19.8 76.585 
L 19.8 72.265 
" clip-path="url(#pcb35f38311)" style="fill: #0d0887"/>
    <path d="M 32.4 72.265 
L 45 72.265 
L 45 76.585 
L 32.4 76.585 
L 32.4 72.265 
" clip-path="url(#pcb35f38311)" style="fill: #0d0887"/>
    <path d="M 45 72.265 
L 57.6 72.265 
L 57.6 76.585 
L 45 76.585 
L 45 72.265 
" clip-path="url(#pcb35f38311)" style="fill: #0d0887"/>
    <path d="M 57.6 72.265 
L 70.2 72.265 
L 70.2 76.585 
L 57.6 76.585 
L 57.6 72.265 
" clip-path="url(#pcb35f38311)" style="fill: #0d0887"/>
    <path d="M 70.2 72.265 
L 82.8 72.265 
L 82.8 76.585 
L 70.2 76.585 
L 70.2 72.265 
" clip-path="url(#pcb35f38311)" style="fill: #0d0887"/>
    <path d="M 82.8 72.265 
L 95.4 72.265 
L 95.4 76.585 
L 82.8 76.585 
L 82.8 72.265 
" clip-path="url(#pcb35f38311)" style="fill: #0d0887"/>
    <path d="M 95.4 72.265 
L 108 72.265 
L 108 76.585 
L 95.4 76.585 
L 95.4 72.265 
" clip-path="url(#pcb35f38311)" style="fill: #0d0887"/>
    <path d="M 108 72.265 
L 120.6 72.265 
L 120.6 76.585 
L 108 76.585 
L 108 72.265 
" clip-path="url(#pcb35f38311)" style="fill: #0d0887"/>
    <path d="M 120.6 72.265 
L 133.2 72.265 
L 133.2 76.585 
L 120.6 76.585 
L 120.6 72.265 
" clip-path="url(#pcb35f38311)" style="fill: #0d0887"/>
    <path d="M 133.2 72.265 
L 145.8 72.265 
L 145.8 76.585 
L 133.2 76.585 
L 133.2 72.265 
" clip-path="url(#pcb35f38311)" style="fill: #0d0887"/>
    <path d="M 145.8 72.265 
L 158.4 72.265 
L 158.4 76.585 
L 145.8 76.585 
L 145.8 72.265 
" clip-path="url(#pcb35f38311)" style="fill: #0d0887"/>
    <path d="M 158.4 72.265 
L 171 72.265 
L 171 76.585 
L 158.4 76.585 
L 158.4 72.265 
" clip-path="url(#pcb35f38311)" style="fill: #0d0887"/>
    <path d="M 171 72.265 
L 183.6 72.265 
L 183.6 76.585 
L 171 76.585 
L 171 72.265 
" clip-path="url(#pcb35f38311)" style="fill: #0d0887"/>
    <path d="M 183.6 72.265 
L 196.2 72.265 
L 196.2 76.585 
L 183.6 76.585 
L 183.6 72.265 
" clip-path="url(#pcb35f38311)" style="fill: #0d0887"/>
    <path d="M 196.2 72.265 
L 208.8 72.265 
L 208.8 76.585 
L 196.2 76.585 
L 196.2 72.265 
" clip-path="url(#pcb35f38311)" style="fill: #df6263"/>
    <path d="M 208.8 72.265 
L 221.4 72.265 
L 221.4 76.585 
L 208.8 76.585 
L 208.8 72.265 
" clip-path="url(#pcb35f38311)" style="fill: #0d0887"/>
    <path d="M 221.4 72.265 
L 234 72.265 
L 234 76.585 
L 221.4 76.585 
L 221.4 72.265 
" clip-path="url(#pcb35f38311)" style="fill: #0d0887"/>
    <path d="M 234 72.265 
L 246.6 72.265 
L 246.6 76.585 
L 234 76.585 
L 234 72.265 
" clip-path="url(#pcb35f38311)" style="fill: #0d0887"/>
    <path d="M 246.6 72.265 
L 259.2 72.265 
L 259.2 76.585 
L 246.6 76.585 
L 246.6 72.265 
" clip-path="url(#pcb35f38311)" style="fill: #0d0887"/>
    <path d="M 7.2 76.585 
L 19.8 76.585 
L 19.8 80.905 
L 7.2 80.905 
L 7.2 76.585 
" clip-path="url(#pcb35f38311)" style="fill: #0d0887"/>
    <path d="M 19.8 76.585 
L 32.4 76.585 
L 32.4 80.905 
L 19.8 80.905 
L 19.8 76.585 
" clip-path="url(#pcb35f38311)" style="fill: #0d0887"/>
    <path d="M 32.4 76.585 
L 45 76.585 
L 45 80.905 
L 32.4 80.905 
L 32.4 76.585 
" clip-path="url(#pcb35f38311)" style="fill: #0d0887"/>
    <path d="M 45 76.585 
L 57.6 76.585 
L 57.6 80.905 
L 45 80.905 
L 45 76.585 
" clip-path="url(#pcb35f38311)" style="fill: #0d0887"/>
    <path d="M 57.6 76.585 
L 70.2 76.585 
L 70.2 80.905 
L 57.6 80.905 
L 57.6 76.585 
" clip-path="url(#pcb35f38311)" style="fill: #0d0887"/>
    <path d="M 70.2 76.585 
L 82.8 76.585 
L 82.8 80.905 
L 70.2 80.905 
L 70.2 76.585 
" clip-path="url(#pcb35f38311)" style="fill: #0d0887"/>
    <path d="M 82.8 76.585 
L 95.4 76.585 
L 95.4 80.905 
L 82.8 80.905 
L 82.8 76.585 
" clip-path="url(#pcb35f38311)" style="fill: #0d0887"/>
    <path d="M 95.4 76.585 
L 108 76.585 
L 108 80.905 
L 95.4 80.905 
L 95.4 76.585 
" clip-path="url(#pcb35f38311)" style="fill: #0d0887"/>
    <path d="M 108 76.585 
L 120.6 76.585 
L 120.6 80.905 
L 108 80.905 
L 108 76.585 
" clip-path="url(#pcb35f38311)" style="fill: #0d0887"/>
    <path d="M 120.6 76.585 
L 133.2 76.585 
L 133.2 80.905 
L 120.6 80.905 
L 120.6 76.585 
" clip-path="url(#pcb35f38311)" style="fill: #0d0887"/>
    <path d="M 133.2 76.585 
L 145.8 76.585 
L 145.8 80.905 
L 133.2 80.905 
L 133.2 76.585 
" clip-path="url(#pcb35f38311)" style="fill: #0d0887"/>
    <path d="M 145.8 76.585 
L 158.4 76.585 
L 158.4 80.905 
L 145.8 80.905 
L 145.8 76.585 
" clip-path="url(#pcb35f38311)" style="fill: #0d0887"/>
    <path d="M 158.4 76.585 
L 171 76.585 
L 171 80.905 
L 158.4 80.905 
L 158.4 76.585 
" clip-path="url(#pcb35f38311)" style="fill: #0d0887"/>
    <path d="M 171 76.585 
L 183.6 76.585 
L 183.6 80.905 
L 171 80.905 
L 171 76.585 
" clip-path="url(#pcb35f38311)" style="fill: #0d0887"/>
    <path d="M 183.6 76.585 
L 196.2 76.585 
L 196.2 80.905 
L 183.6 80.905 
L 183.6 76.585 
" clip-path="url(#pcb35f38311)" style="fill: #0d0887"/>
    <path d="M 196.2 76.585 
L 208.8 76.585 
L 208.8 80.905 
L 196.2 80.905 
L 196.2 76.585 
" clip-path="url(#pcb35f38311)" style="fill: #df6263"/>
    <path d="M 208.8 76.585 
L 221.4 76.585 
L 221.4 80.905 
L 208.8 80.905 
L 208.8 76.585 
" clip-path="url(#pcb35f38311)" style="fill: #0d0887"/>
    <path d="M 221.4 76.585 
L 234 76.585 
L 234 80.905 
L 221.4 80.905 
L 221.4 76.585 
" clip-path="url(#pcb35f38311)" style="fill: #0d0887"/>
    <path d="M 234 76.585 
L 246.6 76.585 
L 246.6 80.905 
L 234 80.905 
L 234 76.585 
" clip-path="url(#pcb35f38311)" style="fill: #0d0887"/>
    <path d="M 246.6 76.585 
L 259.2 76.585 
L 259.2 80.905 
L 246.6 80.905 
L 246.6 76.585 
" clip-path="url(#pcb35f38311)" style="fill: #0d0887"/>
    <path d="M 7.2 80.905 
L 19.8 80.905 
L 19.8 85.225 
L 7.2 85.225 
L 7.2 80.905 
" clip-path="url(#pcb35f38311)" style="fill: #0d0887"/>
    <path d="M 19.8 80.905 
L 32.4 80.905 
L 32.4 85.225 
L 19.8 85.225 
L 19.8 80.905 
" clip-path="url(#pcb35f38311)" style="fill: #0d0887"/>
    <path d="M 32.4 80.905 
L 45 80.905 
L 45 85.225 
L 32.4 85.225 
L 32.4 80.905 
" clip-path="url(#pcb35f38311)" style="fill: #0d0887"/>
    <path d="M 45 80.905 
L 57.6 80.905 
L 57.6 85.225 
L 45 85.225 
L 45 80.905 
" clip-path="url(#pcb35f38311)" style="fill: #0d0887"/>
    <path d="M 57.6 80.905 
L 70.2 80.905 
L 70.2 85.225 
L 57.6 85.225 
L 57.6 80.905 
" clip-path="url(#pcb35f38311)" style="fill: #0d0887"/>
    <path d="M 70.2 80.905 
L 82.8 80.905 
L 82.8 85.225 
L 70.2 85.225 
L 70.2 80.905 
" clip-path="url(#pcb35f38311)" style="fill: #0d0887"/>
    <path d="M 82.8 80.905 
L 95.4 80.905 
L 95.4 85.225 
L 82.8 85.225 
L 82.8 80.905 
" clip-path="url(#pcb35f38311)" style="fill: #0d0887"/>
    <path d="M 95.4 80.905 
L 108 80.905 
L 108 85.225 
L 95.4 85.225 
L 95.4 80.905 
" clip-path="url(#pcb35f38311)" style="fill: #0d0887"/>
    <path d="M 108 80.905 
L 120.6 80.905 
L 120.6 85.225 
L 108 85.225 
L 108 80.905 
" clip-path="url(#pcb35f38311)" style="fill: #0d0887"/>
    <path d="M 120.6 80.905 
L 133.2 80.905 
L 133.2 85.225 
L 120.6 85.225 
L 120.6 80.905 
" clip-path="url(#pcb35f38311)" style="fill: #0d0887"/>
    <path d="M 133.2 80.905 
L 145.8 80.905 
L 145.8 85.225 
L 133.2 85.225 
L 133.2 80.905 
" clip-path="url(#pcb35f38311)" style="fill: #0d0887"/>
    <path d="M 145.8 80.905 
L 158.4 80.905 
L 158.4 85.225 
L 145.8 85.225 
L 145.8 80.905 
" clip-path="url(#pcb35f38311)" style="fill: #0d0887"/>
    <path d="M 158.4 80.905 
L 171 80.905 
L 171 85.225 
L 158.4 85.225 
L 158.4 80.905 
" clip-path="url(#pcb35f38311)" style="fill: #0d0887"/>
    <path d="M 171 80.905 
L 183.6 80.905 
L 183.6 85.225 
L 171 85.225 
L 171 80.905 
" clip-path="url(#pcb35f38311)" style="fill: #0d0887"/>
    <path d="M 183.6 80.905 
L 196.2 80.905 
L 196.2 85.225 
L 183.6 85.225 
L 183.6 80.905 
" clip-path="url(#pcb35f38311)" style="fill: #0d0887"/>
    <path d="M 196.2 80.905 
L 208.8 80.905 
L 208.8 85.225 
L 196.2 85.225 
L 196.2 80.905 
" clip-path="url(#pcb35f38311)" style="fill: #0d0887"/>
    <path d="M 208.8 80.905 
L 221.4 80.905 
L 221.4 85.225 
L 208.8 85.225 
L 208.8 80.905 
" clip-path="url(#pcb35f38311)" style="fill: #0d0887"/>
    <path d="M 221.4 80.905 
L 234 80.905 
L 234 85.225 
L 221.4 85.225 
L 221.4 80.905 
" clip-path="url(#pcb35f38311)" style="fill: #0d0887"/>
    <path d="M 234 80.905 
L 246.6 80.905 
L 246.6 85.225 
L 234 85.225 
L 234 80.905 
" clip-path="url(#pcb35f38311)" style="fill: #0d0887"/>
    <path d="M 246.6 80.905 
L 259.2 80.905 
L 259.2 85.225 
L 246.6 85.225 
L 246.6 80.905 
" clip-path="url(#pcb35f38311)" style="fill: #0d0887"/>
    <path d="M 7.2 85.225 
L 19.8 85.225 
L 19.8 89.545 
L 7.2 89.545 
L 7.2 85.225 
" clip-path="url(#pcb35f38311)" style="fill: #0d0887"/>
    <path d="M 19.8 85.225 
L 32.4 85.225 
L 32.4 89.545 
L 19.8 89.545 
L 19.8 85.225 
" clip-path="url(#pcb35f38311)" style="fill: #0d0887"/>
    <path d="M 32.4 85.225 
L 45 85.225 
L 45 89.545 
L 32.4 89.545 
L 32.4 85.225 
" clip-path="url(#pcb35f38311)" style="fill: #0d0887"/>
    <path d="M 45 85.225 
L 57.6 85.225 
L 57.6 89.545 
L 45 89.545 
L 45 85.225 
" clip-path="url(#pcb35f38311)" style="fill: #0d0887"/>
    <path d="M 57.6 85.225 
L 70.2 85.225 
L 70.2 89.545 
L 57.6 89.545 
L 57.6 85.225 
" clip-path="url(#pcb35f38311)" style="fill: #0d0887"/>
    <path d="M 70.2 85.225 
L 82.8 85.225 
L 82.8 89.545 
L 70.2 89.545 
L 70.2 85.225 
" clip-path="url(#pcb35f38311)" style="fill: #0d0887"/>
    <path d="M 82.8 85.225 
L 95.4 85.225 
L 95.4 89.545 
L 82.8 89.545 
L 82.8 85.225 
" clip-path="url(#pcb35f38311)" style="fill: #0d0887"/>
    <path d="M 95.4 85.225 
L 108 85.225 
L 108 89.545 
L 95.4 89.545 
L 95.4 85.225 
" clip-path="url(#pcb35f38311)" style="fill: #0d0887"/>
    <path d="M 108 85.225 
L 120.6 85.225 
L 120.6 89.545 
L 108 89.545 
L 108 85.225 
" clip-path="url(#pcb35f38311)" style="fill: #0d0887"/>
    <path d="M 120.6 85.225 
L 133.2 85.225 
L 133.2 89.545 
L 120.6 89.545 
L 120.6 85.225 
" clip-path="url(#pcb35f38311)" style="fill: #0d0887"/>
    <path d="M 133.2 85.225 
L 145.8 85.225 
L 145.8 89.545 
L 133.2 89.545 
L 133.2 85.225 
" clip-path="url(#pcb35f38311)" style="fill: #0d0887"/>
    <path d="M 145.8 85.225 
L 158.4 85.225 
L 158.4 89.545 
L 145.8 89.545 
L 145.8 85.225 
" clip-path="url(#pcb35f38311)" style="fill: #0d0887"/>
    <path d="M 158.4 85.225 
L 171 85.225 
L 171 89.545 
L 158.4 89.545 
L 158.4 85.225 
" clip-path="url(#pcb35f38311)" style="fill: #0d0887"/>
    <path d="M 171 85.225 
L 183.6 85.225 
L 183.6 89.545 
L 171 89.545 
L 171 85.225 
" clip-path="url(#pcb35f38311)" style="fill: #0d0887"/>
    <path d="M 183.6 85.225 
L 196.2 85.225 
L 196.2 89.545 
L 183.6 89.545 
L 183.6 85.225 
" clip-path="url(#pcb35f38311)" style="fill: #0d0887"/>
    <path d="M 196.2 85.225 
L 208.8 85.225 
L 208.8 89.545 
L 196.2 89.545 
L 196.2 85.225 
" clip-path="url(#pcb35f38311)" style="fill: #0d0887"/>
    <path d="M 208.8 85.225 
L 221.4 85.225 
L 221.4 89.545 
L 208.8 89.545 
L 208.8 85.225 
" clip-path="url(#pcb35f38311)" style="fill: #0d0887"/>
    <path d="M 221.4 85.225 
L 234 85.225 
L 234 89.545 
L 221.4 89.545 
L 221.4 85.225 
" clip-path="url(#pcb35f38311)" style="fill: #0d0887"/>
    <path d="M 234 85.225 
L 246.6 85.225 
L 246.6 89.545 
L 234 89.545 
L 234 85.225 
" clip-path="url(#pcb35f38311)" style="fill: #0d0887"/>
    <path d="M 246.6 85.225 
L 259.2 85.225 
L 259.2 89.545 
L 246.6 89.545 
L 246.6 85.225 
" clip-path="url(#pcb35f38311)" style="fill: #0d0887"/>
    <path d="M 7.2 89.545 
L 19.8 89.545 
L 19.8 93.865 
L 7.2 93.865 
L 7.2 89.545 
" clip-path="url(#pcb35f38311)" style="fill: #0d0887"/>
    <path d="M 19.8 89.545 
L 32.4 89.545 
L 32.4 93.865 
L 19.8 93.865 
L 19.8 89.545 
" clip-path="url(#pcb35f38311)" style="fill: #0d0887"/>
    <path d="M 32.4 89.545 
L 45 89.545 
L 45 93.865 
L 32.4 93.865 
L 32.4 89.545 
" clip-path="url(#pcb35f38311)" style="fill: #0d0887"/>
    <path d="M 45 89.545 
L 57.6 89.545 
L 57.6 93.865 
L 45 93.865 
L 45 89.545 
" clip-path="url(#pcb35f38311)" style="fill: #0d0887"/>
    <path d="M 57.6 89.545 
L 70.2 89.545 
L 70.2 93.865 
L 57.6 93.865 
L 57.6 89.545 
" clip-path="url(#pcb35f38311)" style="fill: #0d0887"/>
    <path d="M 70.2 89.545 
L 82.8 89.545 
L 82.8 93.865 
L 70.2 93.865 
L 70.2 89.545 
" clip-path="url(#pcb35f38311)" style="fill: #0d0887"/>
    <path d="M 82.8 89.545 
L 95.4 89.545 
L 95.4 93.865 
L 82.8 93.865 
L 82.8 89.545 
" clip-path="url(#pcb35f38311)" style="fill: #0d0887"/>
    <path d="M 95.4 89.545 
L 108 89.545 
L 108 93.865 
L 95.4 93.865 
L 95.4 89.545 
" clip-path="url(#pcb35f38311)" style="fill: #0d0887"/>
    <path d="M 108 89.545 
L 120.6 89.545 
L 120.6 93.865 
L 108 93.865 
L 108 89.545 
" clip-path="url(#pcb35f38311)" style="fill: #0d0887"/>
    <path d="M 120.6 89.545 
L 133.2 89.545 
L 133.2 93.865 
L 120.6 93.865 
L 120.6 89.545 
" clip-path="url(#pcb35f38311)" style="fill: #0d0887"/>
    <path d="M 133.2 89.545 
L 145.8 89.545 
L 145.8 93.865 
L 133.2 93.865 
L 133.2 89.545 
" clip-path="url(#pcb35f38311)" style="fill: #0d0887"/>
    <path d="M 145.8 89.545 
L 158.4 89.545 
L 158.4 93.865 
L 145.8 93.865 
L 145.8 89.545 
" clip-path="url(#pcb35f38311)" style="fill: #0d0887"/>
    <path d="M 158.4 89.545 
L 171 89.545 
L 171 93.865 
L 158.4 93.865 
L 158.4 89.545 
" clip-path="url(#pcb35f38311)" style="fill: #0d0887"/>
    <path d="M 171 89.545 
L 183.6 89.545 
L 183.6 93.865 
L 171 93.865 
L 171 89.545 
" clip-path="url(#pcb35f38311)" style="fill: #0d0887"/>
    <path d="M 183.6 89.545 
L 196.2 89.545 
L 196.2 93.865 
L 183.6 93.865 
L 183.6 89.545 
" clip-path="url(#pcb35f38311)" style="fill: #0d0887"/>
    <path d="M 196.2 89.545 
L 208.8 89.545 
L 208.8 93.865 
L 196.2 93.865 
L 196.2 89.545 
" clip-path="url(#pcb35f38311)" style="fill: #0d0887"/>
    <path d="M 208.8 89.545 
L 221.4 89.545 
L 221.4 93.865 
L 208.8 93.865 
L 208.8 89.545 
" clip-path="url(#pcb35f38311)" style="fill: #0d0887"/>
    <path d="M 221.4 89.545 
L 234 89.545 
L 234 93.865 
L 221.4 93.865 
L 221.4 89.545 
" clip-path="url(#pcb35f38311)" style="fill: #0d0887"/>
    <path d="M 234 89.545 
L 246.6 89.545 
L 246.6 93.865 
L 234 93.865 
L 234 89.545 
" clip-path="url(#pcb35f38311)" style="fill: #0d0887"/>
    <path d="M 246.6 89.545 
L 259.2 89.545 
L 259.2 93.865 
L 246.6 93.865 
L 246.6 89.545 
" clip-path="url(#pcb35f38311)" style="fill: #0d0887"/>
    <path d="M 7.2 93.865 
L 19.8 93.865 
L 19.8 98.185 
L 7.2 98.185 
L 7.2 93.865 
" clip-path="url(#pcb35f38311)" style="fill: #0d0887"/>
    <path d="M 19.8 93.865 
L 32.4 93.865 
L 32.4 98.185 
L 19.8 98.185 
L 19.8 93.865 
" clip-path="url(#pcb35f38311)" style="fill: #0d0887"/>
    <path d="M 32.4 93.865 
L 45 93.865 
L 45 98.185 
L 32.4 98.185 
L 32.4 93.865 
" clip-path="url(#pcb35f38311)" style="fill: #0d0887"/>
    <path d="M 45 93.865 
L 57.6 93.865 
L 57.6 98.185 
L 45 98.185 
L 45 93.865 
" clip-path="url(#pcb35f38311)" style="fill: #0d0887"/>
    <path d="M 57.6 93.865 
L 70.2 93.865 
L 70.2 98.185 
L 57.6 98.185 
L 57.6 93.865 
" clip-path="url(#pcb35f38311)" style="fill: #0d0887"/>
    <path d="M 70.2 93.865 
L 82.8 93.865 
L 82.8 98.185 
L 70.2 98.185 
L 70.2 93.865 
" clip-path="url(#pcb35f38311)" style="fill: #0d0887"/>
    <path d="M 82.8 93.865 
L 95.4 93.865 
L 95.4 98.185 
L 82.8 98.185 
L 82.8 93.865 
" clip-path="url(#pcb35f38311)" style="fill: #0d0887"/>
    <path d="M 95.4 93.865 
L 108 93.865 
L 108 98.185 
L 95.4 98.185 
L 95.4 93.865 
" clip-path="url(#pcb35f38311)" style="fill: #0d0887"/>
    <path d="M 108 93.865 
L 120.6 93.865 
L 120.6 98.185 
L 108 98.185 
L 108 93.865 
" clip-path="url(#pcb35f38311)" style="fill: #0d0887"/>
    <path d="M 120.6 93.865 
L 133.2 93.865 
L 133.2 98.185 
L 120.6 98.185 
L 120.6 93.865 
" clip-path="url(#pcb35f38311)" style="fill: #0d0887"/>
    <path d="M 133.2 93.865 
L 145.8 93.865 
L 145.8 98.185 
L 133.2 98.185 
L 133.2 93.865 
" clip-path="url(#pcb35f38311)" style="fill: #0d0887"/>
    <path d="M 145.8 93.865 
L 158.4 93.865 
L 158.4 98.185 
L 145.8 98.185 
L 145.8 93.865 
" clip-path="url(#pcb35f38311)" style="fill: #0d0887"/>
    <path d="M 158.4 93.865 
L 171 93.865 
L 171 98.185 
L 158.4 98.185 
L 158.4 93.865 
" clip-path="url(#pcb35f38311)" style="fill: #0d0887"/>
    <path d="M 171 93.865 
L 183.6 93.865 
L 183.6 98.185 
L 171 98.185 
L 171 93.865 
" clip-path="url(#pcb35f38311)" style="fill: #0d0887"/>
    <path d="M 183.6 93.865 
L 196.2 93.865 
L 196.2 98.185 
L 183.6 98.185 
L 183.6 93.865 
" clip-path="url(#pcb35f38311)" style="fill: #0d0887"/>
    <path d="M 196.2 93.865 
L 208.8 93.865 
L 208.8 98.185 
L 196.2 98.185 
L 196.2 93.865 
" clip-path="url(#pcb35f38311)" style="fill: #0d0887"/>
    <path d="M 208.8 93.865 
L 221.4 93.865 
L 221.4 98.185 
L 208.8 98.185 
L 208.8 93.865 
" clip-path="url(#pcb35f38311)" style="fill: #0d0887"/>
    <path d="M 221.4 93.865 
L 234 93.865 
L 234 98.185 
L 221.4 98.185 
L 221.4 93.865 
" clip-path="url(#pcb35f38311)" style="fill: #0d0887"/>
    <path d="M 234 93.865 
L 246.6 93.865 
L 246.6 98.185 
L 234 98.185 
L 234 93.865 
" clip-path="url(#pcb35f38311)" style="fill: #0d0887"/>
    <path d="M 246.6 93.865 
L 259.2 93.865 
L 259.2 98.185 
L 246.6 98.185 
L 246.6 93.865 
" clip-path="url(#pcb35f38311)" style="fill: #0d0887"/>
    <path d="M 7.2 98.185 
L 19.8 98.185 
L 19.8 102.505 
L 7.2 102.505 
L 7.2 98.185 
" clip-path="url(#pcb35f38311)" style="fill: #0d0887"/>
    <path d="M 19.8 98.185 
L 32.4 98.185 
L 32.4 102.505 
L 19.8 102.505 
L 19.8 98.185 
" clip-path="url(#pcb35f38311)" style="fill: #0d0887"/>
    <path d="M 32.4 98.185 
L 45 98.185 
L 45 102.505 
L 32.4 102.505 
L 32.4 98.185 
" clip-path="url(#pcb35f38311)" style="fill: #0d0887"/>
    <path d="M 45 98.185 
L 57.6 98.185 
L 57.6 102.505 
L 45 102.505 
L 45 98.185 
" clip-path="url(#pcb35f38311)" style="fill: #0d0887"/>
    <path d="M 57.6 98.185 
L 70.2 98.185 
L 70.2 102.505 
L 57.6 102.505 
L 57.6 98.185 
" clip-path="url(#pcb35f38311)" style="fill: #0d0887"/>
    <path d="M 70.2 98.185 
L 82.8 98.185 
L 82.8 102.505 
L 70.2 102.505 
L 70.2 98.185 
" clip-path="url(#pcb35f38311)" style="fill: #0d0887"/>
    <path d="M 82.8 98.185 
L 95.4 98.185 
L 95.4 102.505 
L 82.8 102.505 
L 82.8 98.185 
" clip-path="url(#pcb35f38311)" style="fill: #0d0887"/>
    <path d="M 95.4 98.185 
L 108 98.185 
L 108 102.505 
L 95.4 102.505 
L 95.4 98.185 
" clip-path="url(#pcb35f38311)" style="fill: #0d0887"/>
    <path d="M 108 98.185 
L 120.6 98.185 
L 120.6 102.505 
L 108 102.505 
L 108 98.185 
" clip-path="url(#pcb35f38311)" style="fill: #0d0887"/>
    <path d="M 120.6 98.185 
L 133.2 98.185 
L 133.2 102.505 
L 120.6 102.505 
L 120.6 98.185 
" clip-path="url(#pcb35f38311)" style="fill: #0d0887"/>
    <path d="M 133.2 98.185 
L 145.8 98.185 
L 145.8 102.505 
L 133.2 102.505 
L 133.2 98.185 
" clip-path="url(#pcb35f38311)" style="fill: #0d0887"/>
    <path d="M 145.8 98.185 
L 158.4 98.185 
L 158.4 102.505 
L 145.8 102.505 
L 145.8 98.185 
" clip-path="url(#pcb35f38311)" style="fill: #0d0887"/>
    <path d="M 158.4 98.185 
L 171 98.185 
L 171 102.505 
L 158.4 102.505 
L 158.4 98.185 
" clip-path="url(#pcb35f38311)" style="fill: #0d0887"/>
    <path d="M 171 98.185 
L 183.6 98.185 
L 183.6 102.505 
L 171 102.505 
L 171 98.185 
" clip-path="url(#pcb35f38311)" style="fill: #0d0887"/>
    <path d="M 183.6 98.185 
L 196.2 98.185 
L 196.2 102.505 
L 183.6 102.505 
L 183.6 98.185 
" clip-path="url(#pcb35f38311)" style="fill: #0d0887"/>
    <path d="M 196.2 98.185 
L 208.8 98.185 
L 208.8 102.505 
L 196.2 102.505 
L 196.2 98.185 
" clip-path="url(#pcb35f38311)" style="fill: #0d0887"/>
    <path d="M 208.8 98.185 
L 221.4 98.185 
L 221.4 102.505 
L 208.8 102.505 
L 208.8 98.185 
" clip-path="url(#pcb35f38311)" style="fill: #0d0887"/>
    <path d="M 221.4 98.185 
L 234 98.185 
L 234 102.505 
L 221.4 102.505 
L 221.4 98.185 
" clip-path="url(#pcb35f38311)" style="fill: #0d0887"/>
    <path d="M 234 98.185 
L 246.6 98.185 
L 246.6 102.505 
L 234 102.505 
L 234 98.185 
" clip-path="url(#pcb35f38311)" style="fill: #0d0887"/>
    <path d="M 246.6 98.185 
L 259.2 98.185 
L 259.2 102.505 
L 246.6 102.505 
L 246.6 98.185 
" clip-path="url(#pcb35f38311)" style="fill: #0d0887"/>
    <path d="M 7.2 102.505 
L 19.8 102.505 
L 19.8 106.825 
L 7.2 106.825 
L 7.2 102.505 
" clip-path="url(#pcb35f38311)" style="fill: #0d0887"/>
    <path d="M 19.8 102.505 
L 32.4 102.505 
L 32.4 106.825 
L 19.8 106.825 
L 19.8 102.505 
" clip-path="url(#pcb35f38311)" style="fill: #0d0887"/>
    <path d="M 32.4 102.505 
L 45 102.505 
L 45 106.825 
L 32.4 106.825 
L 32.4 102.505 
" clip-path="url(#pcb35f38311)" style="fill: #0d0887"/>
    <path d="M 45 102.505 
L 57.6 102.505 
L 57.6 106.825 
L 45 106.825 
L 45 102.505 
" clip-path="url(#pcb35f38311)" style="fill: #0d0887"/>
    <path d="M 57.6 102.505 
L 70.2 102.505 
L 70.2 106.825 
L 57.6 106.825 
L 57.6 102.505 
" clip-path="url(#pcb35f38311)" style="fill: #0d0887"/>
    <path d="M 70.2 102.505 
L 82.8 102.505 
L 82.8 106.825 
L 70.2 106.825 
L 70.2 102.505 
" clip-path="url(#pcb35f38311)" style="fill: #0d0887"/>
    <path d="M 82.8 102.505 
L 95.4 102.505 
L 95.4 106.825 
L 82.8 106.825 
L 82.8 102.505 
" clip-path="url(#pcb35f38311)" style="fill: #0d0887"/>
    <path d="M 95.4 102.505 
L 108 102.505 
L 108 106.825 
L 95.4 106.825 
L 95.4 102.505 
" clip-path="url(#pcb35f38311)" style="fill: #0d0887"/>
    <path d="M 108 102.505 
L 120.6 102.505 
L 120.6 106.825 
L 108 106.825 
L 108 102.505 
" clip-path="url(#pcb35f38311)" style="fill: #0d0887"/>
    <path d="M 120.6 102.505 
L 133.2 102.505 
L 133.2 106.825 
L 120.6 106.825 
L 120.6 102.505 
" clip-path="url(#pcb35f38311)" style="fill: #0d0887"/>
    <path d="M 133.2 102.505 
L 145.8 102.505 
L 145.8 106.825 
L 133.2 106.825 
L 133.2 102.505 
" clip-path="url(#pcb35f38311)" style="fill: #0d0887"/>
    <path d="M 145.8 102.505 
L 158.4 102.505 
L 158.4 106.825 
L 145.8 106.825 
L 145.8 102.505 
" clip-path="url(#pcb35f38311)" style="fill: #0d0887"/>
    <path d="M 158.4 102.505 
L 171 102.505 
L 171 106.825 
L 158.4 106.825 
L 158.4 102.505 
" clip-path="url(#pcb35f38311)" style="fill: #0d0887"/>
    <path d="M 171 102.505 
L 183.6 102.505 
L 183.6 106.825 
L 171 106.825 
L 171 102.505 
" clip-path="url(#pcb35f38311)" style="fill: #0d0887"/>
    <path d="M 183.6 102.505 
L 196.2 102.505 
L 196.2 106.825 
L 183.6 106.825 
L 183.6 102.505 
" clip-path="url(#pcb35f38311)" style="fill: #0d0887"/>
    <path d="M 196.2 102.505 
L 208.8 102.505 
L 208.8 106.825 
L 196.2 106.825 
L 196.2 102.505 
" clip-path="url(#pcb35f38311)" style="fill: #0d0887"/>
    <path d="M 208.8 102.505 
L 221.4 102.505 
L 221.4 106.825 
L 208.8 106.825 
L 208.8 102.505 
" clip-path="url(#pcb35f38311)" style="fill: #0d0887"/>
    <path d="M 221.4 102.505 
L 234 102.505 
L 234 106.825 
L 221.4 106.825 
L 221.4 102.505 
" clip-path="url(#pcb35f38311)" style="fill: #0d0887"/>
    <path d="M 234 102.505 
L 246.6 102.505 
L 246.6 106.825 
L 234 106.825 
L 234 102.505 
" clip-path="url(#pcb35f38311)" style="fill: #0d0887"/>
    <path d="M 246.6 102.505 
L 259.2 102.505 
L 259.2 106.825 
L 246.6 106.825 
L 246.6 102.505 
" clip-path="url(#pcb35f38311)" style="fill: #0d0887"/>
    <path d="M 7.2 106.825 
L 19.8 106.825 
L 19.8 111.145 
L 7.2 111.145 
L 7.2 106.825 
" clip-path="url(#pcb35f38311)" style="fill: #0d0887"/>
    <path d="M 19.8 106.825 
L 32.4 106.825 
L 32.4 111.145 
L 19.8 111.145 
L 19.8 106.825 
" clip-path="url(#pcb35f38311)" style="fill: #0d0887"/>
    <path d="M 32.4 106.825 
L 45 106.825 
L 45 111.145 
L 32.4 111.145 
L 32.4 106.825 
" clip-path="url(#pcb35f38311)" style="fill: #0d0887"/>
    <path d="M 45 106.825 
L 57.6 106.825 
L 57.6 111.145 
L 45 111.145 
L 45 106.825 
" clip-path="url(#pcb35f38311)" style="fill: #0d0887"/>
    <path d="M 57.6 106.825 
L 70.2 106.825 
L 70.2 111.145 
L 57.6 111.145 
L 57.6 106.825 
" clip-path="url(#pcb35f38311)" style="fill: #0d0887"/>
    <path d="M 70.2 106.825 
L 82.8 106.825 
L 82.8 111.145 
L 70.2 111.145 
L 70.2 106.825 
" clip-path="url(#pcb35f38311)" style="fill: #0d0887"/>
    <path d="M 82.8 106.825 
L 95.4 106.825 
L 95.4 111.145 
L 82.8 111.145 
L 82.8 106.825 
" clip-path="url(#pcb35f38311)" style="fill: #0d0887"/>
    <path d="M 95.4 106.825 
L 108 106.825 
L 108 111.145 
L 95.4 111.145 
L 95.4 106.825 
" clip-path="url(#pcb35f38311)" style="fill: #0d0887"/>
    <path d="M 108 106.825 
L 120.6 106.825 
L 120.6 111.145 
L 108 111.145 
L 108 106.825 
" clip-path="url(#pcb35f38311)" style="fill: #3c049b"/>
    <path d="M 120.6 106.825 
L 133.2 106.825 
L 133.2 111.145 
L 120.6 111.145 
L 120.6 106.825 
" clip-path="url(#pcb35f38311)" style="fill: #0d0887"/>
    <path d="M 133.2 106.825 
L 145.8 106.825 
L 145.8 111.145 
L 133.2 111.145 
L 133.2 106.825 
" clip-path="url(#pcb35f38311)" style="fill: #0d0887"/>
    <path d="M 145.8 106.825 
L 158.4 106.825 
L 158.4 111.145 
L 145.8 111.145 
L 145.8 106.825 
" clip-path="url(#pcb35f38311)" style="fill: #5502a4"/>
    <path d="M 158.4 106.825 
L 171 106.825 
L 171 111.145 
L 158.4 111.145 
L 158.4 106.825 
" clip-path="url(#pcb35f38311)" style="fill: #0d0887"/>
    <path d="M 171 106.825 
L 183.6 106.825 
L 183.6 111.145 
L 171 111.145 
L 171 106.825 
" clip-path="url(#pcb35f38311)" style="fill: #0d0887"/>
    <path d="M 183.6 106.825 
L 196.2 106.825 
L 196.2 111.145 
L 183.6 111.145 
L 183.6 106.825 
" clip-path="url(#pcb35f38311)" style="fill: #0d0887"/>
    <path d="M 196.2 106.825 
L 208.8 106.825 
L 208.8 111.145 
L 196.2 111.145 
L 196.2 106.825 
" clip-path="url(#pcb35f38311)" style="fill: #0d0887"/>
    <path d="M 208.8 106.825 
L 221.4 106.825 
L 221.4 111.145 
L 208.8 111.145 
L 208.8 106.825 
" clip-path="url(#pcb35f38311)" style="fill: #0d0887"/>
    <path d="M 221.4 106.825 
L 234 106.825 
L 234 111.145 
L 221.4 111.145 
L 221.4 106.825 
" clip-path="url(#pcb35f38311)" style="fill: #0d0887"/>
    <path d="M 234 106.825 
L 246.6 106.825 
L 246.6 111.145 
L 234 111.145 
L 234 106.825 
" clip-path="url(#pcb35f38311)" style="fill: #0d0887"/>
    <path d="M 246.6 106.825 
L 259.2 106.825 
L 259.2 111.145 
L 246.6 111.145 
L 246.6 106.825 
" clip-path="url(#pcb35f38311)" style="fill: #0d0887"/>
    <path d="M 7.2 111.145 
L 19.8 111.145 
L 19.8 115.465 
L 7.2 115.465 
L 7.2 111.145 
" clip-path="url(#pcb35f38311)" style="fill: #0d0887"/>
    <path d="M 19.8 111.145 
L 32.4 111.145 
L 32.4 115.465 
L 19.8 115.465 
L 19.8 111.145 
" clip-path="url(#pcb35f38311)" style="fill: #0d0887"/>
    <path d="M 32.4 111.145 
L 45 111.145 
L 45 115.465 
L 32.4 115.465 
L 32.4 111.145 
" clip-path="url(#pcb35f38311)" style="fill: #0d0887"/>
    <path d="M 45 111.145 
L 57.6 111.145 
L 57.6 115.465 
L 45 115.465 
L 45 111.145 
" clip-path="url(#pcb35f38311)" style="fill: #0d0887"/>
    <path d="M 57.6 111.145 
L 70.2 111.145 
L 70.2 115.465 
L 57.6 115.465 
L 57.6 111.145 
" clip-path="url(#pcb35f38311)" style="fill: #0d0887"/>
    <path d="M 70.2 111.145 
L 82.8 111.145 
L 82.8 115.465 
L 70.2 115.465 
L 70.2 111.145 
" clip-path="url(#pcb35f38311)" style="fill: #0d0887"/>
    <path d="M 82.8 111.145 
L 95.4 111.145 
L 95.4 115.465 
L 82.8 115.465 
L 82.8 111.145 
" clip-path="url(#pcb35f38311)" style="fill: #0d0887"/>
    <path d="M 95.4 111.145 
L 108 111.145 
L 108 115.465 
L 95.4 115.465 
L 95.4 111.145 
" clip-path="url(#pcb35f38311)" style="fill: #0d0887"/>
    <path d="M 108 111.145 
L 120.6 111.145 
L 120.6 115.465 
L 108 115.465 
L 108 111.145 
" clip-path="url(#pcb35f38311)" style="fill: #3c049b"/>
    <path d="M 120.6 111.145 
L 133.2 111.145 
L 133.2 115.465 
L 120.6 115.465 
L 120.6 111.145 
" clip-path="url(#pcb35f38311)" style="fill: #0d0887"/>
    <path d="M 133.2 111.145 
L 145.8 111.145 
L 145.8 115.465 
L 133.2 115.465 
L 133.2 111.145 
" clip-path="url(#pcb35f38311)" style="fill: #0d0887"/>
    <path d="M 145.8 111.145 
L 158.4 111.145 
L 158.4 115.465 
L 145.8 115.465 
L 145.8 111.145 
" clip-path="url(#pcb35f38311)" style="fill: #5502a4"/>
    <path d="M 158.4 111.145 
L 171 111.145 
L 171 115.465 
L 158.4 115.465 
L 158.4 111.145 
" clip-path="url(#pcb35f38311)" style="fill: #0d0887"/>
    <path d="M 171 111.145 
L 183.6 111.145 
L 183.6 115.465 
L 171 115.465 
L 171 111.145 
" clip-path="url(#pcb35f38311)" style="fill: #0d0887"/>
    <path d="M 183.6 111.145 
L 196.2 111.145 
L 196.2 115.465 
L 183.6 115.465 
L 183.6 111.145 
" clip-path="url(#pcb35f38311)" style="fill: #0d0887"/>
    <path d="M 196.2 111.145 
L 208.8 111.145 
L 208.8 115.465 
L 196.2 115.465 
L 196.2 111.145 
" clip-path="url(#pcb35f38311)" style="fill: #0d0887"/>
    <path d="M 208.8 111.145 
L 221.4 111.145 
L 221.4 115.465 
L 208.8 115.465 
L 208.8 111.145 
" clip-path="url(#pcb35f38311)" style="fill: #0d0887"/>
    <path d="M 221.4 111.145 
L 234 111.145 
L 234 115.465 
L 221.4 115.465 
L 221.4 111.145 
" clip-path="url(#pcb35f38311)" style="fill: #0d0887"/>
    <path d="M 234 111.145 
L 246.6 111.145 
L 246.6 115.465 
L 234 115.465 
L 234 111.145 
" clip-path="url(#pcb35f38311)" style="fill: #0d0887"/>
    <path d="M 246.6 111.145 
L 259.2 111.145 
L 259.2 115.465 
L 246.6 115.465 
L 246.6 111.145 
" clip-path="url(#pcb35f38311)" style="fill: #0d0887"/>
   </g>
  </g>
  <g id="text_21">
   <text style="fill: #262626; font: 14.4px 'sans-serif'; text-anchor: middle" x="73.962545" y="17.50725" transform="rotate(-0, 73.962545, 17.50725)">k13 SUBS LINES</text>
  </g>
 </g>
 <defs>
  <clipPath id="pcb35f38311">
   <rect x="7.2" y="7.465" width="252" height="108"/>
  </clipPath>
 </defs>
</svg>
